<?xml version="1.0" encoding="UTF-8" standalone="no"?>
<svg
   width="9.3278942in"
   height="7.490212in"
   viewBox="0 0 2798.3682 2247.0636"
   version="1.1"
   id="svg10"
   xmlns="http://www.w3.org/2000/svg"
   xmlns:svg="http://www.w3.org/2000/svg">
  <defs
     id="defs14">
    <rect
       x="42.199989"
       y="-42.199997"
       width="155"
       height="95"
       id="rect8834" />
    <rect
       x="42.199989"
       y="-42.199997"
       width="155"
       height="95"
       id="rect8834-2" />
    <rect
       x="42.199989"
       y="-42.199997"
       width="185.14961"
       height="116.76244"
       id="rect8834-2-4" />
    <rect
       x="42.199989"
       y="-42.199997"
       width="215.14961"
       height="106.76244"
       id="rect8834-2-4-9" />
    <rect
       x="42.199989"
       y="-42.199997"
       width="215.14961"
       height="106.76244"
       id="rect8834-2-4-9-4" />
    <rect
       x="42.199989"
       y="-42.199997"
       width="215.14961"
       height="106.76244"
       id="rect8834-2-4-9-4-3" />
  </defs>
  <path
     style="fill:#5f6073;fill-opacity:1;stroke-width:0.803642"
     d="m 699.24999,398.61438 c -6.08197,-1.01122 -15.84659,-4.41528 -21.02639,-7.3299 -2.43099,-1.36799 -7.35917,-5.43968 -10.95149,-9.04839 -5.4826,-5.50762 -7.19094,-7.90569 -10.63784,-14.93297 -6.06598,-12.36692 -7.74872,-19.57482 -7.6769,-32.88274 0.0536,-9.38793 0.35274,-11.82332 2.24214,-18.08194 7.99773,-26.49182 24.22404,-41.19715 49.7743,-45.10877 25.50666,-3.90496 49.98089,4.69065 62.70335,22.02213 6.47181,8.81633 11.58904,22.35806 13.37331,35.3896 0.705,5.1491 0.639,8.05631 -0.33024,14.53885 -4.4708,29.90089 -21.36893,49.43517 -47.41363,54.81053 -7.83202,1.6164 -22.28235,1.91621 -30.05649,0.6236 z"
     id="path1096" />
  <path
     style="fill:#5f6073;fill-opacity:1;stroke-width:0.803642"
     d="m 2156.1199,1979.473 v -61.8814 l 62.0792,31.0417 62.0791,31.0416 -61.4765,30.7954 c -33.812,16.9376 -61.7476,30.8156 -62.0791,30.8398 -0.3319,0.021 -0.6018,-27.8025 -0.6018,-61.8371 z"
     id="path2964" />
  <path
     style="fill:#5f6073;fill-opacity:1;stroke-width:0.473208"
     d="m 785.07999,334.92453 v -7.09812 h 39.51296 39.51295 l -0.006,6.03339 c -0.004,3.31838 -0.13494,6.51256 -0.29172,7.09815 l -0.2853,1.06475 h -39.22111 -39.22118 z"
     id="path5149" />
  <path
     style="fill:#5f6073;fill-opacity:1;stroke-width:0.473208"
     d="m 912.37322,338.54499 c 0,-1.91278 0.13703,-5.10687 0.30617,-7.09812 l 0.30616,-3.62046 h 39.20689 39.20688 v 7.09812 7.09813 h -39.51294 -39.51295 z"
     id="path5151" />
  <path
     style="fill:#5f6073;fill-opacity:1;stroke-width:0.236603"
     d="m 1039.904,337.94124 c 5e-4,-2.24478 0.071,-5.43896 0.1542,-7.09815 l 0.1542,-3.01668 h 39.4977 39.4978 l -0.1477,6.09256 c -0.081,3.35091 -0.2034,6.54506 -0.2724,7.09813 l -0.1243,1.00564 h -39.3802 -39.3801 z"
     id="path5163" />
  <path
     style="fill:#5f6073;fill-opacity:1;stroke-width:0.236603"
     d="m 1167.2877,338.47359 0.2901,-7.09812 0.1456,-3.54906 h 39.5218 39.5218 l -0.1563,3.96312 c -0.086,2.1797 -0.2237,5.37387 -0.3067,7.09812 l -0.1498,3.13501 h -39.5053 -39.5053 z"
     id="path5165" />
  <path
     style="fill:#5f6073;fill-opacity:1;stroke-width:0.236603"
     d="m 1294.8842,336.16684 c 0.1521,-3.22086 0.2853,-6.41507 0.296,-7.09828 l 0.021,-1.24207 h 39.5129 39.513 l 7e-4,1.12386 c 10e-4,1.63803 -0.471,10.88815 -0.6159,12.06683 l -0.1243,1.00565 -39.4393,1.3e-4 -39.4392,1.3e-4 z"
     id="path5167" />
  <path
     style="fill:#5f6073;fill-opacity:1;stroke-width:0.236603"
     d="m 1422.0985,340.07068 c 0.079,-1.07353 0.2709,-4.26775 0.4261,-7.09815 l 0.2821,-5.14612 h 39.5634 39.5634 l -0.094,1.00564 c -0.1412,1.51683 -0.7949,11.86498 -0.7949,12.57277 v 0.61803 h -39.5455 -39.5455 z"
     id="path5169" />
  <path
     style="fill:#5f6073;fill-opacity:1;stroke-width:0.236603"
     d="m 1549.8927,334.88768 0.4652,-7.13501 39.5191,0.17135 c 21.7354,0.0942 39.5293,0.1906 39.5417,0.21437 0.021,0.0385 -1.0322,13.68005 -1.0665,13.82526 -0.01,0.0321 -17.7688,0.0599 -39.4691,0.0599 h -39.4552 z"
     id="path5171" />
  <path
     style="fill:#5f6073;fill-opacity:1;stroke-width:0.236603"
     d="m 1676.8565,341.49031 c 0.01,-0.29274 0.2484,-3.40711 0.5354,-6.92069 l 0.5203,-6.38833 39.5807,-0.0599 39.5809,-0.0599 -0.1284,0.76966 c -0.064,0.42339 -0.3555,3.56455 -0.6425,6.98052 l -0.5181,6.21086 h -39.4732 -39.4732 z"
     id="path5173" />
  <path
     style="fill:#5f6073;fill-opacity:1;stroke-width:0.236603"
     d="m 1804.8788,335.10198 c 0.3532,-3.80637 0.651,-6.9473 0.6596,-6.97983 0.011,-0.0321 17.8063,-0.0599 39.55,-0.0599 h 39.5336 l -0.1284,0.88722 c -0.064,0.48805 -0.349,3.17642 -0.6103,5.97427 -0.2612,2.79785 -0.5354,5.5395 -0.6104,6.09256 l -0.1285,1.00565 h -39.4487 -39.4488 z"
     id="path5175" />
  <path
     style="fill:#5f6073;fill-opacity:1;stroke-width:0.236603"
     d="m 1931.6651,341.81661 c 0,-0.35317 1.165,-11.68728 1.3107,-12.74805 l 0.1284,-1.00565 h 39.5287 39.5287 l -0.1285,0.88722 c -0.064,0.48805 -0.4304,3.62892 -0.7923,6.97983 l -0.6575,6.09257 h -39.4616 c -22.2515,0 -39.4616,-0.0899 -39.4616,-0.20559 z"
     id="path5177" />
  <path
     style="fill:#5f6073;fill-opacity:1;stroke-width:0.236603"
     d="m 2059.0867,341.37201 c 0.1071,-0.5463 1.529,-12.91005 1.529,-13.20954 0,-0.0557 17.7809,-0.0985 39.5128,-0.0985 21.7322,0 39.5126,0.0792 39.512,0.17776 -6e-4,0.0985 -0.3725,3.18962 -0.8288,6.87111 -0.4539,3.68152 -0.8266,6.74258 -0.8266,6.80239 0,0.0599 -17.7781,0.10919 -39.507,0.10919 h -39.507 z"
     id="path5179" />
  <path
     style="fill:#5f6073;fill-opacity:1;stroke-width:0.236603"
     d="m 2247.0422,379.08157 c -7.3588,-7.11962 -16.3254,-13.6244 -25.7731,-18.69686 l -2.9578,-1.58793 -16.6804,-4.16125 c -9.1744,-2.28868 -16.7787,-4.24974 -16.8986,-4.35788 -0.2441,-0.22015 2.7071,-13.45757 3.0004,-13.45926 0.1072,-5.8e-4 8.0844,1.97467 17.7453,4.38932 l 17.5656,4.3904 3.1901,1.66651 c 7.0111,3.66258 15.2287,9.03289 21.4525,14.01964 3.4463,2.76117 8.9315,7.62706 11.1632,9.90281 l 1.499,1.52774 -0.8222,0.68378 c -0.4519,0.37602 -2.7232,2.50755 -5.0477,4.73649 l -4.2258,4.05261 z"
     id="path5181" />
  <path
     style="fill:#5f6073;fill-opacity:1;stroke-width:0.236603"
     d="m 2281.8375,481.56013 c 0,-14.87466 -0.1506,-19.65874 -0.8352,-26.67715 -1.0343,-10.61031 -3.2702,-21.72087 -6.1361,-30.4827 -0.6105,-1.86525 -1.0687,-3.43231 -1.0195,-3.48219 0.1277,-0.12204 12.7958,-5.07483 12.9866,-5.07483 0.3659,0 2.845,7.8318 4.3417,13.71271 2.7249,10.7081 4.3066,21.6675 4.8504,33.60815 0.1277,2.928 0.2441,11.63208 0.2441,19.34244 v 14.01881 h -7.2164 -7.2164 v -14.96524 z"
     id="path5185" />
  <path
     style="fill:#5f6073;fill-opacity:1;stroke-width:0.236603"
     d="m 2289.0564,623.93687 -7.0983,-0.23663 -0.065,-39.49182 -0.065,-39.49182 7.1421,0.16067 c 3.9281,0.0879 7.1762,0.1949 7.2179,0.23601 0.042,0.0406 0.042,17.84733 0.019,39.56823 l -0.065,39.49252 z"
     id="path5187" />
  <path
     style="fill:#5f6073;fill-opacity:1;stroke-width:0.236603"
     d="m 2287.9915,751.37051 -5.7969,-0.37735 -0.065,-39.4886 -0.065,-39.48854 2.6626,0.15 c 1.4647,0.0814 4.6055,0.2208 6.9805,0.30729 l 4.318,0.15857 v 39.59522 39.59521 l -1.1243,-0.0375 c -0.6188,-0.0213 -3.7323,-0.20767 -6.9206,-0.41375 z"
     id="path5189" />
  <path
     style="fill:#5f6073;fill-opacity:1;stroke-width:0.236603"
     d="m 2288.9378,878.87204 c -3.7085,-0.36129 -6.7696,-0.66731 -6.8022,-0.68015 -0.042,-0.0114 -0.065,-17.75105 -0.065,-39.4181 0,-37.36244 0.021,-39.39444 0.4132,-39.3908 0.227,0.002 3.1823,0.21411 6.5659,0.47156 3.3834,0.25745 6.3379,0.46834 6.5655,0.46943 0.3919,10e-4 0.4132,2.04704 0.4132,39.63278 0,21.79723 -0.086,39.61797 -0.1715,39.60169 -0.1068,-0.0152 -3.2119,-0.3249 -6.9208,-0.68636 z"
     id="path5191" />
  <path
     style="fill:#5f6073;fill-opacity:1;stroke-width:0.236603"
     d="m 2288.3464,1006.2774 c -3.3834,-0.4298 -6.1782,-0.7887 -6.2108,-0.7983 -0.1506,-0.043 -0.042,-78.80675 0.1277,-78.80649 0.4261,7.5e-4 12.0951,1.19711 12.8951,1.32214 l 0.8866,0.13913 v 39.49213 39.49219 l -0.7689,-0.032 c -0.424,-0.015 -3.5372,-0.3812 -6.9207,-0.8108 z"
     id="path5193" />
  <path
     style="fill:#5f6073;fill-opacity:1;stroke-width:0.236603"
     d="m 2247.0891,1122.8905 -4.7412,-4.8956 2.7762,-2.8532 c 7.0252,-7.2203 13.4207,-16.0568 18.5903,-25.6856 l 1.5869,-2.9576 4.282,-17.1538 c 2.3554,-9.4345 4.3093,-17.1878 4.3417,-17.2293 0.086,-0.096 13.0476,2.8427 13.3405,3.0238 0.1277,0.077 -1.741,7.9821 -4.2723,18.114 l -4.4934,17.9774 -1.649,3.1581 c -5.6562,10.827 -13.6473,21.9622 -21.9884,30.6386 -1.4584,1.5172 -2.7377,2.7587 -2.8423,2.7587 -0.1068,0 -2.3239,-2.203 -4.9314,-4.8955 z"
     id="path5195" />
  <path
     style="fill:#5f6073;fill-opacity:1;stroke-width:0.236603"
     d="m 2128.2834,1157.3616 v -7.0981 l 11.1798,-0 c 12.4481,-0 22.1549,-0.2918 28.2121,-0.8386 12.0414,-1.0869 23.6423,-3.439 33.6562,-6.824 1.332,-0.4502 2.4756,-0.7313 2.5415,-0.6247 0.5224,0.8444 5.0806,12.8893 4.9306,13.0278 -0.2998,0.2767 -6.4151,2.2773 -10.4959,3.4334 -11.1234,3.1515 -22.5879,5.0262 -35.3617,5.7825 -2.2122,0.1306 -10.9163,0.2393 -19.3424,0.2404 l -15.3202,0 z"
     id="path5197" />
  <path
     style="fill:#5f6073;fill-opacity:1;stroke-width:0.236603"
     d="m 2000.9103,1159.3135 c -0.086,-2.8303 -0.1498,-6.0244 -0.1498,-7.0981 l -4e-4,-1.9519 h 39.4768 39.4766 l 0.1498,2.6617 c 0.086,1.464 0.1498,4.6582 0.1498,7.0982 v 4.4363 h -39.4753 -39.4753 z"
     id="path5199" />
  <path
     style="fill:#5f6073;fill-opacity:1;stroke-width:0.236603"
     d="m 1873.4605,1161.3033 c 0,-1.7361 -0.064,-4.9301 -0.1498,-7.0981 l -0.1498,-3.9417 h 39.5145 39.5143 l 0.1498,2.3069 c 0.086,1.2688 0.1498,4.4629 0.1498,7.0981 v 4.7912 h -39.5128 -39.5131 z"
     id="path5201" />
  <path
     style="fill:#5f6073;fill-opacity:1;stroke-width:0.236603"
     d="m 1746.0839,1161.6796 c -0.085,-1.529 -0.2141,-4.7232 -0.2976,-7.0981 l -0.1498,-4.318 h 39.5188 39.519 l 0.1285,3.135 c 0.064,1.7243 0.1927,4.9183 0.2655,7.0981 l 0.1285,3.9631 h -39.4878 -39.4875 z"
     id="path5203" />
  <path
     style="fill:#5f6073;fill-opacity:1;stroke-width:0.236603"
     d="m 1491.3378,1163.9274 c 0,-0.2928 -0.1605,-2.928 -0.3485,-5.856 -0.1885,-2.928 -0.3447,-5.8826 -0.3484,-6.5658 l -0.01,-1.242 h 39.5129 39.5129 l 2e-4,0.6505 c 2e-4,0.8423 0.4175,8.7946 0.6017,11.4753 l 0.1498,2.0704 h -39.5301 -39.5306 z"
     id="path5205" />
  <path
     style="fill:#5f6073;fill-opacity:1;stroke-width:0.236603"
     d="m 1618.7708,1164.164 c -0.086,-0.28 -0.6168,-11.867 -0.6103,-13.2499 v -0.6506 h 39.4794 39.4791 l 0.1498,2.5435 c 0.086,1.3991 0.2184,4.5931 0.3041,7.0982 l 0.1498,4.5546 h -39.4366 c -31.3442,0 -39.4548,-0.06 -39.525,-0.296 z"
     id="path5207" />
  <path
     style="fill:#5f6073;fill-opacity:1;stroke-width:0.236603"
     d="m 1364.0251,1164.4006 c -0.015,-0.032 -0.2543,-3.2267 -0.5337,-7.0982 l -0.5074,-7.0389 h 39.5731 39.5732 l 0.01,0.8872 c 0,0.4882 0.1606,3.1764 0.35,5.9742 0.1906,2.7979 0.3469,5.5928 0.3501,6.2109 l 0.01,1.1239 h -39.3946 c -21.6671,0 -39.4064,-0.027 -39.4207,-0.06 z"
     id="path5209" />
  <path
     style="fill:#5f6073;fill-opacity:1;stroke-width:0.236603"
     d="m 1236.5213,1164.024 c 0,-0.4019 -0.8116,-10.4587 -1.0294,-12.755 l -0.096,-1.0056 h 39.5565 39.5566 l 0.4138,5.9742 c 0.2275,3.2859 0.4747,6.48 0.5492,7.0981 l 0.135,1.1239 h -39.5434 c -38.2494,0 -39.5435,-0.015 -39.5435,-0.4357 z"
     id="path5211" />
  <path
     style="fill:#5f6073;fill-opacity:1;stroke-width:0.236603"
     d="m 1006.246,1164.2823 c -21.08286,-0.054 -24.5477,-0.1093 -24.5477,-0.3994 0,-0.4142 -1.12447,-11.2172 -1.31293,-12.614 l -0.13494,-1.0056 h 39.51667 39.5167 l 0.1243,0.769 c 0.068,0.4228 0.3404,3.1113 0.6043,5.9742 0.2639,2.8629 0.5418,5.711 0.618,6.3292 l 0.1392,1.1238 -14.9874,-0.058 c -8.2431,-0.032 -26.0339,-0.086 -39.5352,-0.1198 z"
     id="path5213" />
  <path
     style="fill:#5f6073;fill-opacity:1;stroke-width:0.236603"
     d="m 1109.1254,1163.6907 c -0.069,-0.4228 -0.3388,-3.2178 -0.6017,-6.2108 -0.2628,-2.993 -0.5326,-5.8412 -0.5992,-6.3292 l -0.1219,-0.8872 h 39.5112 39.5112 l 0.1113,0.5326 c 0.135,0.6435 1.0888,12.093 1.0837,13.0133 l -0,0.6505 h -39.3837 -39.384 z"
     id="path5215" />
  <path
     style="fill:#5f6073;fill-opacity:1;stroke-width:0.236603"
     d="m 854.29476,1163.4541 c -0.12198,-0.7069 -1.54593,-12.7358 -1.54593,-13.052 0,-0.1284 79.02392,-0.2098 79.02751,-0.079 9.1e-4,0.032 0.32061,2.9294 0.70992,6.4374 0.38966,3.5081 0.70814,6.6223 0.70814,6.9207 v 0.5424 h -39.3839 -39.38395 z"
     id="path5219" />
  <path
     style="fill:#5f6073;fill-opacity:1;stroke-width:0.236603"
     d="m 730.09588,1176.704 c -0.0793,-0.2928 -1.03368,-3.2644 -2.12198,-6.6036 l -1.97873,-6.0713 27.53058,-6.8828 27.53067,-6.8828 h 11.59434 c 6.37689,0 11.59482,0.079 11.59535,0.1776 0.002,0.3067 1.40848,11.9627 1.5562,12.8949 l 0.14123,0.8872 h -11.73261 -11.73266 l -25.8677,6.5067 c -14.22723,3.5786 -25.98086,6.5065 -26.11923,6.5065 -0.13914,0 -0.3158,-0.2398 -0.39447,-0.5325 z"
     id="path5221" />
  <path
     style="fill:#5f6073;fill-opacity:1;stroke-width:0.236603"
     d="m 647.63037,1259.9587 c -4.02703,-0.7337 -6.76359,-1.3389 -6.82006,-1.5083 -0.17554,-0.5283 2.55854,-10.9843 4.12342,-15.7669 5.359,-16.3786 12.81206,-30.0488 22.63871,-41.5238 4.45382,-5.2009 13.3911,-14.0682 14.03833,-13.9284 0.33186,0.071 8.42117,11.0629 8.14193,11.0629 -0.34739,0 -7.69858,7.4122 -9.86803,9.9495 -5.90449,6.9058 -11.48542,15.4447 -15.38532,23.5398 -3.83272,7.9556 -6.96718,17.1048 -9.02889,26.3543 -0.36024,1.6171 -0.75873,2.9641 -0.8849,2.9932 -0.12637,0.032 -3.25603,-0.4983 -6.95519,-1.1722 z"
     id="path5223" />
  <path
     style="fill:#5f6073;fill-opacity:1;stroke-width:0.236603"
     d="m 637.20224,1347.8977 v -39.5824 h 7.21645 7.21642 l -9.5e-4,36.3778 c -5.5e-4,20.0079 -0.0707,37.7273 -0.15419,39.3764 l -0.1519,2.9984 -1.91645,0.1327 c -1.05403,0.073 -4.23214,0.1649 -7.06253,0.2055 l -5.14613,0.073 z"
     id="path5225" />
  <path
     style="fill:#5f6073;fill-opacity:1;stroke-width:0.236603"
     d="m 637.20224,1475.5991 v -39.5085 l 0.53259,-0.1092 c 0.29277,-0.06 3.48698,-0.1776 7.09816,-0.2601 l 6.56575,-0.1498 v 39.3968 39.3968 l -1.24207,0.1305 c -1.36394,0.1435 -10.64923,0.6157 -12.0668,0.6147 l -0.88725,-8e-4 z"
     id="path5227" />
  <path
     style="fill:#5f6073;fill-opacity:1;stroke-width:0.236603"
     d="m 637.39487,1603.3069 c -0.0482,-21.7674 -0.0856,-39.5913 -0.0814,-39.6085 0.0114,-0.043 12.89283,-0.8032 13.55332,-0.7996 h 0.5326 v 39.3801 39.3802 l -1.00565,0.1327 c -0.55313,0.073 -3.18822,0.2917 -5.85595,0.4849 -2.66772,0.1927 -5.34584,0.4084 -5.95137,0.478 l -1.10092,0.1264 z"
     id="path5229" />
  <path
     style="fill:#5f6073;fill-opacity:1;stroke-width:0.236603"
     d="m 637.43882,1730.9053 v -39.4985 l 1.0057,-0.1284 c 1.23201,-0.1563 11.96447,-1.0851 12.53999,-1.0845 0.39288,6e-4 0.41375,2.0338 0.41375,39.3808 v 39.3801 l -1.00564,0.1391 c -1.75987,0.2452 -11.8493,1.3087 -12.41271,1.3087 h -0.54135 z"
     id="path5231" />
  <path
     style="fill:#5f6073;fill-opacity:1;stroke-width:0.236603"
     d="m 650.80621,1896.9279 c -0.0577,-0.1714 -3.08941,-12.2503 -6.73794,-26.8615 l -6.63368,-26.5657 0.0621,-12.2297 0.0621,-12.2297 6.38831,-0.7624 c 3.51353,-0.4196 6.62783,-0.7687 6.92067,-0.7773 l 0.53258,-0.015 v 12.2557 12.256 l 6.3804,25.4194 c 3.5092,13.9808 6.30405,25.4909 6.21087,25.5783 -0.16696,0.1498 -12.6069,4.226 -12.91879,4.226 -0.0879,0 -0.20769,-0.1284 -0.26443,-0.2954 z"
     id="path5235" />
  <path
     style="fill:#5f6073;fill-opacity:1;stroke-width:0.236603"
     d="m 739.06044,1981.8201 c -9.89204,-2.5265 -18.70134,-5.757 -27.44607,-10.0653 -10.79735,-5.3192 -18.59564,-10.71 -27.89645,-19.2846 -3.23397,-2.9814 -9.9603,-10.1246 -9.9603,-10.5775 0,-0.1498 2.44886,-2.0408 5.44193,-4.2059 l 5.4419,-3.9372 4.49549,4.5291 c 6.12479,6.1707 10.30624,9.6089 17.17387,14.1211 4.62486,3.0385 7.86681,4.8825 12.63825,7.1887 4.85428,2.3463 8.2453,3.7012 14.19629,5.6729 4.09999,1.3577 12.67386,3.6534 13.64786,3.6534 0.22107,0 0.47372,0.1071 0.56065,0.2569 0.0879,0.1498 -0.4084,3.3352 -1.10092,7.098 -1.1652,6.33 -1.29538,6.841 -1.74148,6.8307 -0.26548,-0.01 -2.71815,-0.5825 -5.4509,-1.2806 z"
     id="path5237" />
  <path
     style="fill:#5f6073;fill-opacity:1;stroke-width:0.236603"
     d="m 794.54424,1979.6803 v -7.2164 h 39.51289 39.51294 v 7.2164 7.2164 h -39.51294 -39.51289 z"
     id="path5239" />
  <path
     style="fill:#5f6073;fill-opacity:1;stroke-width:0.236603"
     d="m 922.07403,1979.6803 v -7.2164 h 39.51289 39.51298 v 7.2164 7.2164 h -39.51298 -39.51289 z"
     id="path5241" />
  <path
     style="fill:#5f6073;fill-opacity:1;stroke-width:0.236603"
     d="m 1049.6038,1979.6803 v -7.2164 h 39.5129 39.513 v 7.2164 7.2164 h -39.513 -39.5129 z"
     id="path5243" />
  <path
     style="fill:#5f6073;fill-opacity:1;stroke-width:0.236603"
     d="m 1177.1336,1979.6803 v -7.2164 h 39.5129 39.513 v 7.2164 7.2164 h -39.513 -39.5129 z"
     id="path5245" />
  <path
     style="fill:#5f6073;fill-opacity:1;stroke-width:0.236603"
     d="m 1304.4268,1979.6803 v -7.2164 h 39.5129 39.513 v 7.2164 7.2164 h -39.513 -39.5129 z"
     id="path5247" />
  <path
     style="fill:#5f6073;fill-opacity:1;stroke-width:0.236603"
     d="m 1559.4864,1979.6803 v -7.2164 h 39.513 39.513 v 7.2164 7.2164 h -39.513 -39.513 z"
     id="path5249" />
  <path
     style="fill:#5f6073;fill-opacity:1;stroke-width:0.236603"
     d="m 1431.9566,1979.6803 v -7.2164 h 39.513 39.5129 v 7.2164 7.2164 h -39.5129 -39.513 z"
     id="path5251" />
  <path
     style="fill:#5f6073;fill-opacity:1;stroke-width:0.236603"
     d="m 1687.0163,1979.6803 v -7.2164 h 39.5128 39.513 v 7.2164 7.2164 h -39.513 -39.5128 z"
     id="path5253" />
  <path
     style="fill:#5f6073;fill-opacity:1;stroke-width:0.236603"
     d="m 1814.546,1979.6803 v -7.2164 h 39.513 39.513 v 7.2164 7.2164 h -39.513 -39.513 z"
     id="path5255" />
  <path
     style="fill:#5f6073;fill-opacity:1;stroke:none;stroke-width:0.236603;stroke-opacity:1"
     d="m 1941.8392,1979.6803 v -7.2164 h 39.513 39.5128 v 7.2164 7.2164 h -39.5128 -39.513 z"
     id="path5257" />
  <path
     style="fill:#5f6073;fill-opacity:1;stroke-width:0.236603"
     d="m 2069.3689,1979.6803 v -7.2164 h 39.513 39.513 v 7.2164 7.2164 h -39.513 -39.513 z"
     id="path5259" />
  <g
     aria-label="Coin is created"
     transform="matrix(3.125,0,0,3.125,325.15606,121.66728)"
     id="text8832"
     style="font-size:29.3333px;white-space:pre;shape-inside:url(#rect8834);display:inline;fill:#5f6073">
    <path
       d="m 70.316629,-25.762882 q 0,-3.050663 1.319998,-5.42666 1.319998,-2.405331 3.666662,-3.725329 2.375998,-1.349332 5.367994,-1.349332 3.666663,0 6.277326,1.935998 2.610664,1.935998 3.490663,5.279994 h -5.51466 q -0.616,-1.290665 -1.759998,-1.965331 -1.114666,-0.674666 -2.551997,-0.674666 -2.317331,0 -3.754663,1.613331 -1.437331,1.613332 -1.437331,4.311995 0,2.698664 1.437331,4.311995 1.437332,1.613332 3.754663,1.613332 1.437331,0 2.551997,-0.674666 1.143998,-0.674666 1.759998,-1.965331 h 5.51466 q -0.879999,3.343996 -3.490663,5.279994 -2.610663,1.906664 -6.277326,1.906664 -2.991996,0 -5.367994,-1.319998 -2.346664,-1.349332 -3.666662,-3.725329 -1.319998,-2.375998 -1.319998,-5.426661 z"
       style="font-weight:bold;font-family:Poppins;-inkscape-font-specification:'Poppins Bold';text-align:center;text-anchor:middle;fill:#000000"
       id="path692" />
    <path
       d="m 100.9699,-15.202894 q -2.405329,0 -4.341326,-1.026665 -1.906665,-1.026666 -3.02133,-2.93333 -1.085332,-1.906665 -1.085332,-4.458662 0,-2.522664 1.114665,-4.429328 1.114665,-1.935998 3.050663,-2.962663 1.935998,-1.026666 4.34133,-1.026666 2.40533,0 4.34133,1.026666 1.93599,1.026665 3.05066,2.962663 1.11467,1.906664 1.11467,4.429328 0,2.522664 -1.144,4.458662 -1.11467,1.906664 -3.08,2.93333 -1.936,1.026665 -4.34133,1.026665 z m 0,-4.341328 q 1.43733,0 2.43467,-1.055999 1.02666,-1.055999 1.02666,-3.02133 0,-1.965331 -0.99733,-3.02133 -0.968,-1.055998 -2.40533,-1.055998 -1.466666,0 -2.434665,1.055998 -0.967999,1.026666 -0.967999,3.02133 0,1.965331 0.938665,3.02133 0.967999,1.055999 2.405329,1.055999 z"
       style="font-weight:bold;font-family:Poppins;-inkscape-font-specification:'Poppins Bold';text-align:center;text-anchor:middle;fill:#000000"
       id="path694" />
    <path
       d="m 114.72719,-33.506873 q -1.32,0 -2.17066,-0.762666 -0.82133,-0.791999 -0.82133,-1.935997 0,-1.173332 0.82133,-1.935998 0.85066,-0.791999 2.17066,-0.791999 1.29067,0 2.112,0.791999 0.85067,0.762666 0.85067,1.935998 0,1.143998 -0.85067,1.935997 -0.82133,0.762666 -2.112,0.762666 z m 2.49333,1.701332 v 16.367981 h -5.01599 v -16.367981 z"
       style="font-weight:bold;font-family:Poppins;-inkscape-font-specification:'Poppins Bold';text-align:center;text-anchor:middle;fill:#000000"
       id="path696" />
    <path
       d="m 130.83118,-31.981541 q 2.87466,0 4.57599,1.877331 1.73066,1.847998 1.73066,5.103994 v 9.562656 h -4.98666 v -8.88799 q 0,-1.642665 -0.85066,-2.551997 -0.85067,-0.909332 -2.288,-0.909332 -1.43733,0 -2.288,0.909332 -0.85066,0.909332 -0.85066,2.551997 v 8.88799 h -5.016 v -16.367981 h 5.016 v 2.170664 q 0.76266,-1.085332 2.05333,-1.701332 1.29066,-0.645332 2.904,-0.645332 z"
       style="font-weight:bold;font-family:Poppins;-inkscape-font-specification:'Poppins Bold';text-align:center;text-anchor:middle;fill:#000000"
       id="path698" />
    <path
       d="m 149.36981,-33.506873 q -1.32,0 -2.17066,-0.762666 -0.82133,-0.791999 -0.82133,-1.935997 0,-1.173332 0.82133,-1.935998 0.85066,-0.791999 2.17066,-0.791999 1.29067,0 2.112,0.791999 0.85067,0.762666 0.85067,1.935998 0,1.143998 -0.85067,1.935997 -0.82133,0.762666 -2.112,0.762666 z m 2.49333,1.701332 v 16.367981 h -5.01599 v -16.367981 z"
       style="font-weight:bold;font-family:Poppins;-inkscape-font-specification:'Poppins Bold';text-align:center;text-anchor:middle;fill:#000000"
       id="path700" />
    <path
       d="m 162.15914,-15.202894 q -2.14133,0 -3.81333,-0.733332 -1.672,-0.733333 -2.64,-1.994665 -0.968,-1.290665 -1.08533,-2.874663 h 4.95733 q 0.088,0.850666 0.792,1.378665 0.70399,0.527999 1.73066,0.527999 0.93867,0 1.43733,-0.351999 0.528,-0.381333 0.528,-0.967999 0,-0.703999 -0.73333,-1.026666 -0.73333,-0.351999 -2.376,-0.762665 -1.76,-0.410667 -2.93333,-0.850666 -1.17333,-0.469333 -2.024,-1.437332 -0.85066,-0.997332 -0.85066,-2.66933 0,-1.407998 0.76266,-2.551997 0.792,-1.173332 2.288,-1.847998 1.52533,-0.674666 3.608,-0.674666 3.07999,0 4.83999,1.525332 1.78933,1.525331 2.05333,4.047995 h -4.63466 q -0.11733,-0.850666 -0.76266,-1.349332 -0.616,-0.498666 -1.64267,-0.498666 -0.88,0 -1.34933,0.352 -0.46933,0.322666 -0.46933,0.909332 0,0.703999 0.73333,1.055999 0.76266,0.352 2.34666,0.703999 1.81867,0.469333 2.96267,0.938666 1.14399,0.439999 1.99466,1.466665 0.88,0.997332 0.90933,2.698663 0,1.437332 -0.82133,2.581331 -0.792,1.114665 -2.31733,1.759998 -1.496,0.645332 -3.49066,0.645332 z"
       style="font-weight:bold;font-family:Poppins;-inkscape-font-specification:'Poppins Bold';text-align:center;text-anchor:middle;fill:#000000"
       id="path702" />
    <path
       d="m 61.428629,14.140095 q 0,-2.551997 1.026665,-4.4586611 1.055999,-1.9066645 2.903997,-2.9333299 1.877331,-1.0266655 4.282662,-1.0266655 3.079996,0 5.133327,1.6133315 2.082664,1.6133314 2.727997,4.546661 h -5.33866 Q 71.489951,10.0041 69.553953,10.0041 q -1.378665,0 -2.199998,1.085332 -0.821332,1.055999 -0.821332,3.050663 0,1.994665 0.821332,3.079997 0.821333,1.055999 2.199998,1.055999 1.935998,0 2.610664,-1.877331 h 5.33866 q -0.645333,2.874663 -2.727997,4.517328 -2.082664,1.642664 -5.133327,1.642664 -2.405331,0 -4.282662,-1.026665 -1.847998,-1.026666 -2.903997,-2.93333 -1.026665,-1.906664 -1.026665,-4.458662 z"
       style="font-weight:bold;font-family:Poppins;-inkscape-font-specification:'Poppins Bold';text-align:center;text-anchor:middle;fill:#000000"
       id="path704" />
    <path
       d="M 85.188589,8.6841017 Q 86.068588,7.33477 87.388586,6.5721042 88.708585,5.7801051 90.321916,5.7801051 v 5.3093269 h -1.378665 q -1.877331,0 -2.815997,0.821333 -0.938665,0.791999 -0.938665,2.815996 v 7.597325 H 80.172595 V 5.9561049 h 5.015994 z"
       style="font-weight:bold;font-family:Poppins;-inkscape-font-specification:'Poppins Bold';text-align:center;text-anchor:middle;fill:#000000"
       id="path706" />
    <path
       d="m 108.15655,13.876096 q 0,0.703999 -0.088,1.466665 H 96.716561 q 0.117333,1.525331 0.967999,2.346664 0.879999,0.791999 2.141331,0.791999 1.877329,0 2.610659,-1.583998 h 5.33867 q -0.41067,1.613331 -1.496,2.903996 -1.056,1.290665 -2.66933,2.023998 -1.61333,0.733332 -3.608,0.733332 -2.40533,0 -4.282661,-1.026665 -1.877331,-1.026666 -2.93333,-2.93333 -1.055999,-1.906664 -1.055999,-4.458662 0,-2.551997 1.026666,-4.4586611 1.055999,-1.9066645 2.93333,-2.9333299 1.877331,-1.0266655 4.311994,-1.0266655 2.376,0 4.224,0.9973322 1.84799,0.9973322 2.87466,2.84533 1.056,1.8479983 1.056,4.3119953 z m -5.13333,-1.319999 q 0,-1.290665 -0.88,-2.053331 -0.88,-0.7626655 -2.199996,-0.7626655 -1.261332,0 -2.141331,0.7333325 -0.850665,0.733333 -1.055998,2.082664 z"
       style="font-weight:bold;font-family:Poppins;-inkscape-font-specification:'Poppins Bold';text-align:center;text-anchor:middle;fill:#000000"
       id="path708" />
    <path
       d="m 109.79919,14.110762 q 0,-2.522664 0.93866,-4.4293281 0.968,-1.9066645 2.61067,-2.9333299 1.64266,-1.0266655 3.66666,-1.0266655 1.73066,0 3.02133,0.7039992 1.32,0.7039992 2.024,1.8479978 V 5.9561049 h 5.01599 V 22.324086 h -5.01599 v -2.317331 q -0.73333,1.143999 -2.05333,1.847998 -1.29067,0.703999 -3.02133,0.703999 -1.99467,0 -3.63733,-1.026665 -1.64267,-1.055999 -2.61067,-2.962663 -0.93866,-1.935998 -0.93866,-4.458662 z m 12.26132,0.02933 q 0,-1.877331 -1.056,-2.962663 -1.02667,-1.085332 -2.52266,-1.085332 -1.496,0 -2.552,1.085332 -1.02667,1.055999 -1.02667,2.93333 0,1.877331 1.02667,2.991997 1.056,1.085332 2.552,1.085332 1.49599,0 2.52266,-1.085332 1.056,-1.085332 1.056,-2.962664 z"
       style="font-weight:bold;font-family:Poppins;-inkscape-font-specification:'Poppins Bold';text-align:center;text-anchor:middle;fill:#000000"
       id="path710" />
    <path
       d="m 139.83651,18.070758 v 4.253328 h -2.55199 q -2.728,0 -4.25333,-1.319998 -1.52533,-1.349332 -1.52533,-4.370662 v -6.511993 h -1.99467 V 5.9561049 h 1.99467 V 1.9667761 h 5.01599 v 3.9893288 h 3.28533 v 4.1653281 h -3.28533 v 6.57066 q 0,0.733332 0.352,1.055998 0.352,0.322667 1.17333,0.322667 z"
       style="font-weight:bold;font-family:Poppins;-inkscape-font-specification:'Poppins Bold';text-align:center;text-anchor:middle;fill:#000000"
       id="path712" />
    <path
       d="m 158.0525,13.876096 q 0,0.703999 -0.088,1.466665 h -11.35199 q 0.11733,1.525331 0.968,2.346664 0.88,0.791999 2.14133,0.791999 1.87733,0 2.61066,-1.583998 h 5.33866 q -0.41066,1.613331 -1.49599,2.903996 -1.056,1.290665 -2.66933,2.023998 -1.61334,0.733332 -3.608,0.733332 -2.40533,0 -4.28266,-1.026665 -1.87733,-1.026666 -2.93333,-2.93333 -1.056,-1.906664 -1.056,-4.458662 0,-2.551997 1.02666,-4.4586611 1.056,-1.9066645 2.93333,-2.9333299 1.87734,-1.0266655 4.312,-1.0266655 2.376,0 4.22399,0.9973322 1.848,0.9973322 2.87467,2.84533 1.056,1.8479983 1.056,4.3119953 z m -5.13333,-1.319999 q 0,-1.290665 -0.88,-2.053331 -0.88,-0.7626655 -2.2,-0.7626655 -1.26133,0 -2.14133,0.7333325 -0.85066,0.733333 -1.056,2.082664 z"
       style="font-weight:bold;font-family:Poppins;-inkscape-font-specification:'Poppins Bold';text-align:center;text-anchor:middle;fill:#000000"
       id="path714" />
    <path
       d="m 159.69514,14.110762 q 0,-2.522664 0.93866,-4.4293281 0.968,-1.9066645 2.61067,-2.9333299 1.64266,-1.0266655 3.66666,-1.0266655 1.61333,0 2.93333,0.6746659 1.34933,0.6746659 2.112,1.8186645 V 0.61744434 h 5.01599 V 22.324086 h -5.01599 v -2.346664 q -0.704,1.173332 -2.024,1.877331 -1.29066,0.703999 -3.02133,0.703999 -2.024,0 -3.66666,-1.026665 -1.64267,-1.055999 -2.61067,-2.962663 -0.93866,-1.935998 -0.93866,-4.458662 z m 12.26132,0.02933 q 0,-1.877331 -1.056,-2.962663 -1.02667,-1.085332 -2.52266,-1.085332 -1.496,0 -2.552,1.085332 -1.02667,1.055999 -1.02667,2.93333 0,1.877331 1.02667,2.991997 1.056,1.085332 2.552,1.085332 1.49599,0 2.52266,-1.085332 1.056,-1.085332 1.056,-2.962664 z"
       style="font-weight:bold;font-family:Poppins;-inkscape-font-specification:'Poppins Bold';text-align:center;text-anchor:middle;fill:#000000"
       id="path716" />
  </g>
  <g
     aria-label="Creation costs gas"
     transform="matrix(3.125,0,0,3.125,1887.6561,121.66728)"
     id="text8832-5"
     style="font-size:29.3333px;white-space:pre;shape-inside:url(#rect8834-2);display:inline;fill:#5f6073">
    <path
       d="m 54.711325,-25.762882 q 0,-3.050663 1.319999,-5.42666 1.319998,-2.405331 3.666662,-3.725329 2.375997,-1.349332 5.367994,-1.349332 3.666662,0 6.277326,1.935998 2.610664,1.935998 3.490663,5.279994 h -5.514661 q -0.615999,-1.290665 -1.759998,-1.965331 -1.114665,-0.674666 -2.551997,-0.674666 -2.31733,0 -3.754662,1.613331 -1.437332,1.613332 -1.437332,4.311995 0,2.698664 1.437332,4.311995 1.437332,1.613332 3.754662,1.613332 1.437332,0 2.551997,-0.674666 1.143999,-0.674666 1.759998,-1.965331 h 5.514661 q -0.879999,3.343996 -3.490663,5.279994 -2.610664,1.906664 -6.277326,1.906664 -2.991997,0 -5.367994,-1.319998 -2.346664,-1.349332 -3.666662,-3.725329 -1.319999,-2.375998 -1.319999,-5.426661 z"
       style="font-weight:bold;font-family:Poppins;-inkscape-font-specification:'Poppins Bold';text-align:center;text-anchor:middle;fill:#000000"
       id="path719" />
    <path
       d="m 82.929935,-29.077545 q 0.879999,-1.349331 2.199997,-2.111997 1.319999,-0.791999 2.93333,-0.791999 v 5.309327 h -1.378665 q -1.877331,0 -2.815997,0.821332 -0.938665,0.792 -0.938665,2.815997 v 7.597325 h -5.015994 v -16.367981 h 5.015994 z"
       style="font-weight:bold;font-family:Poppins;-inkscape-font-specification:'Poppins Bold';text-align:center;text-anchor:middle;fill:#000000"
       id="path721" />
    <path
       d="m 105.89789,-23.88555 q 0,0.703999 -0.088,1.466664 H 94.457905 q 0.117334,1.525332 0.967999,2.346664 0.879999,0.792 2.141331,0.792 1.877331,0 2.610665,-1.583999 h 5.33866 q -0.41067,1.613332 -1.496,2.903997 -1.056,1.290665 -2.66933,2.023998 -1.613331,0.733332 -3.607995,0.733332 -2.405331,0 -4.282662,-1.026665 -1.877331,-1.026666 -2.93333,-2.93333 -1.055999,-1.906665 -1.055999,-4.458662 0,-2.551997 1.026666,-4.458661 1.055999,-1.906665 2.93333,-2.93333 1.877331,-1.026666 4.311995,-1.026666 2.375995,0 4.223995,0.997332 1.848,0.997333 2.87466,2.84533 1.056,1.847998 1.056,4.311996 z m -5.13333,-1.319999 q 0,-1.290665 -0.879994,-2.053331 -0.879999,-0.762666 -2.199998,-0.762666 -1.261332,0 -2.141331,0.733333 -0.850665,0.733332 -1.055998,2.082664 z"
       style="font-weight:bold;font-family:Poppins;-inkscape-font-specification:'Poppins Bold';text-align:center;text-anchor:middle;fill:#000000"
       id="path723" />
    <path
       d="m 107.54053,-23.650884 q 0,-2.522664 0.93867,-4.429328 0.968,-1.906665 2.61066,-2.93333 1.64267,-1.026666 3.66667,-1.026666 1.73066,0 3.02133,0.703999 1.31999,0.704 2.02399,1.847998 v -2.31733 h 5.016 v 16.367981 h -5.016 v -2.317331 q -0.73333,1.143999 -2.05333,1.847998 -1.29066,0.703999 -3.02133,0.703999 -1.99466,0 -3.63733,-1.026665 -1.64266,-1.055999 -2.61066,-2.962664 -0.93867,-1.935997 -0.93867,-4.458661 z m 12.26132,0.02933 q 0,-1.877331 -1.05599,-2.962663 -1.02667,-1.085332 -2.52267,-1.085332 -1.496,0 -2.552,1.085332 -1.02666,1.055999 -1.02666,2.93333 0,1.877331 1.02666,2.991996 1.056,1.085333 2.552,1.085333 1.496,0 2.52267,-1.085333 1.05599,-1.085332 1.05599,-2.962663 z"
       style="font-weight:bold;font-family:Poppins;-inkscape-font-specification:'Poppins Bold';text-align:center;text-anchor:middle;fill:#000000"
       id="path725" />
    <path
       d="m 137.57786,-19.690889 v 4.253329 h -2.552 q -2.728,0 -4.25333,-1.319999 -1.52533,-1.349331 -1.52533,-4.370661 v -6.511993 h -1.99466 v -4.165328 h 1.99466 v -3.989329 h 5.016 v 3.989329 h 3.28533 v 4.165328 h -3.28533 v 6.570659 q 0,0.733333 0.352,1.055999 0.35199,0.322666 1.17333,0.322666 z"
       style="font-weight:bold;font-family:Poppins;-inkscape-font-specification:'Poppins Bold';text-align:center;text-anchor:middle;fill:#000000"
       id="path727" />
    <path
       d="m 142.88719,-33.506873 q -1.32,0 -2.17066,-0.762666 -0.82134,-0.791999 -0.82134,-1.935997 0,-1.173332 0.82134,-1.935998 0.85066,-0.791999 2.17066,-0.791999 1.29067,0 2.112,0.791999 0.85066,0.762666 0.85066,1.935998 0,1.143998 -0.85066,1.935997 -0.82133,0.762666 -2.112,0.762666 z m 2.49333,1.701332 v 16.367981 h -5.01599 v -16.367981 z"
       style="font-weight:bold;font-family:Poppins;-inkscape-font-specification:'Poppins Bold';text-align:center;text-anchor:middle;fill:#000000"
       id="path729" />
    <path
       d="m 156.46851,-15.202894 q -2.40533,0 -4.34133,-1.026665 -1.90666,-1.026666 -3.02133,-2.93333 -1.08533,-1.906665 -1.08533,-4.458662 0,-2.522664 1.11467,-4.429328 1.11466,-1.935998 3.05066,-2.962663 1.936,-1.026666 4.34133,-1.026666 2.40533,0 4.34133,1.026666 1.936,1.026665 3.05066,2.962663 1.11467,1.906664 1.11467,4.429328 0,2.522664 -1.144,4.458662 -1.11467,1.906664 -3.08,2.93333 -1.936,1.026665 -4.34133,1.026665 z m 0,-4.341328 q 1.43733,0 2.43467,-1.055999 1.02666,-1.055999 1.02666,-3.02133 0,-1.965331 -0.99733,-3.02133 -0.968,-1.055998 -2.40533,-1.055998 -1.46667,0 -2.43466,1.055998 -0.968,1.026666 -0.968,3.02133 0,1.965331 0.93866,3.02133 0.968,1.055999 2.40533,1.055999 z"
       style="font-weight:bold;font-family:Poppins;-inkscape-font-specification:'Poppins Bold';text-align:center;text-anchor:middle;fill:#000000"
       id="path731" />
    <path
       d="m 177.67646,-31.981541 q 2.87467,0 4.576,1.877331 1.73066,1.847998 1.73066,5.103994 v 9.562656 h -4.98666 v -8.88799 q 0,-1.642665 -0.85066,-2.551997 -0.85067,-0.909332 -2.288,-0.909332 -1.43733,0 -2.288,0.909332 -0.85066,0.909332 -0.85066,2.551997 v 8.88799 h -5.016 v -16.367981 h 5.016 v 2.170664 q 0.76266,-1.085332 2.05333,-1.701332 1.29066,-0.645332 2.90399,-0.645332 z"
       style="font-weight:bold;font-family:Poppins;-inkscape-font-specification:'Poppins Bold';text-align:center;text-anchor:middle;fill:#000000"
       id="path733" />
    <path
       d="m 48.771269,14.140095 q 0,-2.551997 1.026666,-4.4586611 1.055999,-1.9066645 2.903996,-2.9333299 1.877332,-1.0266655 4.282662,-1.0266655 3.079997,0 5.133328,1.6133315 2.082664,1.6133314 2.727997,4.546661 H 59.507257 Q 58.832591,10.0041 56.896593,10.0041 q -1.378665,0 -2.199997,1.085332 -0.821333,1.055999 -0.821333,3.050663 0,1.994665 0.821333,3.079997 0.821332,1.055999 2.199997,1.055999 1.935998,0 2.610664,-1.877331 h 5.338661 q -0.645333,2.874663 -2.727997,4.517328 -2.082665,1.642664 -5.133328,1.642664 -2.40533,0 -4.282662,-1.026665 -1.847997,-1.026666 -2.903996,-2.93333 -1.026666,-1.906664 -1.026666,-4.458662 z"
       style="font-weight:bold;font-family:Poppins;-inkscape-font-specification:'Poppins Bold';text-align:center;text-anchor:middle;fill:#000000"
       id="path735" />
    <path
       d="m 74.965893,22.558752 q -2.40533,0 -4.341328,-1.026665 -1.906665,-1.026666 -3.02133,-2.93333 -1.085332,-1.906664 -1.085332,-4.458662 0,-2.522663 1.114665,-4.4293278 1.114666,-1.9359978 3.050663,-2.9626632 1.935998,-1.0266655 4.341329,-1.0266655 2.40533,0 4.341328,1.0266655 1.935998,1.0266654 3.050663,2.9626632 1.114666,1.9066648 1.114666,4.4293278 0,2.522664 -1.143999,4.458662 -1.114665,1.906664 -3.079996,2.93333 -1.935998,1.026665 -4.341329,1.026665 z m 0,-4.341328 q 1.437332,0 2.434664,-1.055999 1.026666,-1.055998 1.026666,-3.02133 0,-1.965331 -0.997333,-3.021329 -0.967999,-1.055999 -2.40533,-1.055999 -1.466665,0 -2.434664,1.055999 -0.967999,1.026665 -0.967999,3.021329 0,1.965332 0.938666,3.02133 0.967998,1.055999 2.40533,1.055999 z"
       style="font-weight:bold;font-family:Poppins;-inkscape-font-specification:'Poppins Bold';text-align:center;text-anchor:middle;fill:#000000"
       id="path737" />
    <path
       d="m 92.85918,22.558752 q -2.141331,0 -3.813329,-0.733332 -1.671998,-0.733333 -2.639997,-1.994664 -0.967999,-1.290666 -1.085332,-2.874664 h 4.957327 q 0.088,0.850666 0.791999,1.378665 0.704,0.528 1.730665,0.528 0.938666,0 1.437332,-0.352 0.527999,-0.381333 0.527999,-0.967999 0,-0.703999 -0.733332,-1.026665 -0.733333,-0.352 -2.375998,-0.762666 -1.759998,-0.410666 -2.93333,-0.850666 -1.173332,-0.469333 -2.023997,-1.437331 -0.850666,-0.997333 -0.850666,-2.669331 0,-1.4079981 0.762666,-2.5519968 0.791999,-1.1733319 2.287997,-1.8479978 1.525332,-0.6746659 3.607996,-0.6746659 3.079997,0 4.839994,1.5253316 1.789332,1.5253315 2.053331,4.0479949 H 94.765844 Q 94.648511,10.4441 94.003178,9.9454336 93.387179,9.4467675 92.360514,9.4467675 q -0.879999,0 -1.349332,0.3519996 -0.469333,0.3226659 -0.469333,0.9093319 0,0.704 0.733332,1.055999 0.762666,0.352 2.346664,0.703999 1.818665,0.469333 2.962664,0.938666 1.143998,0.439999 1.994664,1.466665 0.879999,0.997332 0.909332,2.698664 0,1.437331 -0.821332,2.58133 -0.791999,1.114665 -2.317331,1.759998 -1.495998,0.645332 -3.490662,0.645332 z"
       style="font-weight:bold;font-family:Poppins;-inkscape-font-specification:'Poppins Bold';text-align:center;text-anchor:middle;fill:#000000"
       id="path739" />
    <path
       d="m 111.69118,18.070758 v 4.253328 h -2.552 q -2.728,0 -4.25333,-1.319998 -1.52533,-1.349332 -1.52533,-4.370662 v -6.511993 h -1.99466 V 5.9561049 h 1.99466 V 1.9667761 h 5.01599 v 3.9893288 h 3.28533 v 4.1653281 h -3.28533 v 6.57066 q 0,0.733332 0.352,1.055998 0.352,0.322667 1.17334,0.322667 z"
       style="font-weight:bold;font-family:Poppins;-inkscape-font-specification:'Poppins Bold';text-align:center;text-anchor:middle;fill:#000000"
       id="path741" />
    <path
       d="m 121.1365,22.558752 q -2.14133,0 -3.81332,-0.733332 -1.672,-0.733333 -2.64,-1.994664 -0.968,-1.290666 -1.08533,-2.874664 h 4.95732 q 0.088,0.850666 0.792,1.378665 0.704,0.528 1.73067,0.528 0.93866,0 1.43733,-0.352 0.528,-0.381333 0.528,-0.967999 0,-0.703999 -0.73333,-1.026665 -0.73334,-0.352 -2.376,-0.762666 -1.76,-0.410666 -2.93333,-0.850666 -1.17333,-0.469333 -2.024,-1.437331 -0.85066,-0.997333 -0.85066,-2.669331 0,-1.4079981 0.76266,-2.5519968 0.792,-1.1733319 2.288,-1.8479978 1.52533,-0.6746659 3.60799,-0.6746659 3.08,0 4.84,1.5253316 1.78933,1.5253315 2.05333,4.0479949 h -4.63466 q -0.11733,-0.850665 -0.76267,-1.3493314 -0.616,-0.4986661 -1.64266,-0.4986661 -0.88,0 -1.34933,0.3519996 -0.46934,0.3226659 -0.46934,0.9093319 0,0.704 0.73334,1.055999 0.76266,0.352 2.34666,0.703999 1.81866,0.469333 2.96266,0.938666 1.144,0.439999 1.99467,1.466665 0.88,0.997332 0.90933,2.698664 0,1.437331 -0.82133,2.58133 -0.792,1.114665 -2.31733,1.759998 -1.496,0.645332 -3.49067,0.645332 z"
       style="font-weight:bold;font-family:Poppins;-inkscape-font-specification:'Poppins Bold';text-align:center;text-anchor:middle;fill:#000000"
       id="path743" />
    <path
       d="m 143.28316,5.7214385 q 1.73066,0 3.02133,0.7039992 1.32,0.7039992 2.024,1.8479978 V 5.9561049 h 5.01599 V 22.294753 q 0,2.258664 -0.90933,4.077328 -0.88,1.847998 -2.728,2.93333 -1.81866,1.085332 -4.54666,1.085332 -3.63733,0 -5.89599,-1.730664 -2.25867,-1.701332 -2.58133,-4.634662 h 4.95732 q 0.23467,0.938666 1.11467,1.466665 0.88,0.557333 2.17066,0.557333 1.55467,0 2.464,-0.909332 0.93867,-0.879999 0.93867,-2.84533 v -2.317331 q -0.73334,1.143999 -2.024,1.877331 -1.29067,0.703999 -3.02133,0.703999 -2.024,0 -3.66666,-1.026665 -1.64267,-1.055999 -2.61067,-2.962663 -0.93866,-1.935998 -0.93866,-4.458662 0,-2.522664 0.93866,-4.4293281 0.968,-1.9066645 2.61067,-2.9333299 1.64266,-1.0266655 3.66666,-1.0266655 z m 5.04533,8.4186565 q 0,-1.877331 -1.056,-2.962663 -1.02667,-1.085332 -2.52267,-1.085332 -1.49599,0 -2.55199,1.085332 -1.02667,1.055999 -1.02667,2.93333 0,1.877331 1.02667,2.991997 1.056,1.085332 2.55199,1.085332 1.496,0 2.52267,-1.085332 1.056,-1.085332 1.056,-2.962664 z"
       style="font-weight:bold;font-family:Poppins;-inkscape-font-specification:'Poppins Bold';text-align:center;text-anchor:middle;fill:#000000"
       id="path745" />
    <path
       d="m 155.9845,14.110762 q 0,-2.522664 0.93867,-4.4293281 0.968,-1.9066645 2.61066,-2.9333299 1.64267,-1.0266655 3.66667,-1.0266655 1.73066,0 3.02132,0.7039992 1.32,0.7039992 2.024,1.8479978 V 5.9561049 h 5.016 V 22.324086 h -5.016 v -2.317331 q -0.73333,1.143999 -2.05333,1.847998 -1.29066,0.703999 -3.02133,0.703999 -1.99466,0 -3.63733,-1.026665 -1.64266,-1.055999 -2.61066,-2.962663 -0.93867,-1.935998 -0.93867,-4.458662 z m 12.26132,0.02933 q 0,-1.877331 -1.056,-2.962663 -1.02666,-1.085332 -2.52266,-1.085332 -1.496,0 -2.552,1.085332 -1.02666,1.055999 -1.02666,2.93333 0,1.877331 1.02666,2.991997 1.056,1.085332 2.552,1.085332 1.496,0 2.52266,-1.085332 1.056,-1.085332 1.056,-2.962664 z"
       style="font-weight:bold;font-family:Poppins;-inkscape-font-specification:'Poppins Bold';text-align:center;text-anchor:middle;fill:#000000"
       id="path747" />
    <path
       d="m 183.55783,22.558752 q -2.14133,0 -3.81333,-0.733332 -1.672,-0.733333 -2.64,-1.994664 -0.96799,-1.290666 -1.08533,-2.874664 h 4.95733 q 0.088,0.850666 0.792,1.378665 0.704,0.528 1.73066,0.528 0.93867,0 1.43734,-0.352 0.52799,-0.381333 0.52799,-0.967999 0,-0.703999 -0.73333,-1.026665 -0.73333,-0.352 -2.376,-0.762666 -1.75999,-0.410666 -2.93333,-0.850666 -1.17333,-0.469333 -2.02399,-1.437331 -0.85067,-0.997333 -0.85067,-2.669331 0,-1.4079981 0.76267,-2.5519968 0.792,-1.1733319 2.28799,-1.8479978 1.52534,-0.6746659 3.608,-0.6746659 3.08,0 4.83999,1.5253316 1.78934,1.5253315 2.05334,4.0479949 h -4.63467 q -0.11733,-0.850665 -0.76266,-1.3493314 -0.616,-0.4986661 -1.64267,-0.4986661 -0.88,0 -1.34933,0.3519996 -0.46933,0.3226659 -0.46933,0.9093319 0,0.704 0.73333,1.055999 0.76267,0.352 2.34667,0.703999 1.81866,0.469333 2.96266,0.938666 1.144,0.439999 1.99466,1.466665 0.88,0.997332 0.90934,2.698664 0,1.437331 -0.82134,2.58133 -0.792,1.114665 -2.31733,1.759998 -1.496,0.645332 -3.49066,0.645332 z"
       style="font-weight:bold;font-family:Poppins;-inkscape-font-specification:'Poppins Bold';text-align:center;text-anchor:middle;fill:#000000"
       id="path749" />
  </g>
  <g
     aria-label="Coins transferred to you"
     transform="matrix(3.125,0,0,3.125,2113.7487,1184.1673)"
     id="text8832-5-9"
     style="font-size:29.3333px;white-space:pre;shape-inside:url(#rect8834-2-4);display:inline;fill:#5f6073">
    <path
       d="m 92.827815,-25.762882 q 0,-3.050663 1.319998,-5.42666 1.319999,-2.405331 3.666663,-3.725329 2.375994,-1.349332 5.367994,-1.349332 3.66666,0 6.27733,1.935998 2.61066,1.935998 3.49066,5.279994 h -5.51466 q -0.616,-1.290665 -1.76,-1.965331 -1.11467,-0.674666 -2.552,-0.674666 -2.31733,0 -3.754659,1.613331 -1.437332,1.613332 -1.437332,4.311995 0,2.698664 1.437332,4.311995 1.437329,1.613332 3.754659,1.613332 1.43733,0 2.552,-0.674666 1.144,-0.674666 1.76,-1.965331 h 5.51466 q -0.88,3.343996 -3.49066,5.279994 -2.61067,1.906664 -6.27733,1.906664 -2.992,0 -5.367994,-1.319998 -2.346664,-1.349332 -3.666663,-3.725329 -1.319998,-2.375998 -1.319998,-5.426661 z"
       style="font-weight:bold;font-family:Poppins;-inkscape-font-specification:'Poppins Bold';text-align:center;text-anchor:middle;fill:#000000"
       id="path752" />
    <path
       d="m 123.48109,-15.202894 q -2.40533,0 -4.34133,-1.026665 -1.90666,-1.026666 -3.02133,-2.93333 -1.08533,-1.906665 -1.08533,-4.458662 0,-2.522664 1.11466,-4.429328 1.11467,-1.935998 3.05067,-2.962663 1.93599,-1.026666 4.34132,-1.026666 2.40534,0 4.34133,1.026666 1.936,1.026665 3.05067,2.962663 1.11466,1.906664 1.11466,4.429328 0,2.522664 -1.144,4.458662 -1.11466,1.906664 -3.07999,2.93333 -1.936,1.026665 -4.34133,1.026665 z m 0,-4.341328 q 1.43733,0 2.43466,-1.055999 1.02667,-1.055999 1.02667,-3.02133 0,-1.965331 -0.99733,-3.02133 -0.968,-1.055998 -2.40534,-1.055998 -1.46666,0 -2.43466,1.055998 -0.968,1.026666 -0.968,3.02133 0,1.965331 0.93867,3.02133 0.968,1.055999 2.40533,1.055999 z"
       style="font-weight:bold;font-family:Poppins;-inkscape-font-specification:'Poppins Bold';text-align:center;text-anchor:middle;fill:#000000"
       id="path754" />
    <path
       d="m 137.23838,-33.506873 q -1.32,0 -2.17066,-0.762666 -0.82134,-0.791999 -0.82134,-1.935997 0,-1.173332 0.82134,-1.935998 0.85066,-0.791999 2.17066,-0.791999 1.29066,0 2.112,0.791999 0.85066,0.762666 0.85066,1.935998 0,1.143998 -0.85066,1.935997 -0.82134,0.762666 -2.112,0.762666 z m 2.49333,1.701332 v 16.367981 h -5.01599 v -16.367981 z"
       style="font-weight:bold;font-family:Poppins;-inkscape-font-specification:'Poppins Bold';text-align:center;text-anchor:middle;fill:#000000"
       id="path756" />
    <path
       d="m 153.34236,-31.981541 q 2.87467,0 4.576,1.877331 1.73066,1.847998 1.73066,5.103994 v 9.562656 h -4.98666 v -8.88799 q 0,-1.642665 -0.85067,-2.551997 -0.85066,-0.909332 -2.28799,-0.909332 -1.43733,0 -2.288,0.909332 -0.85067,0.909332 -0.85067,2.551997 v 8.88799 h -5.01599 v -16.367981 h 5.01599 v 2.170664 q 0.76267,-1.085332 2.05334,-1.701332 1.29066,-0.645332 2.90399,-0.645332 z"
       style="font-weight:bold;font-family:Poppins;-inkscape-font-specification:'Poppins Bold';text-align:center;text-anchor:middle;fill:#000000"
       id="path758" />
    <path
       d="m 169.79834,-15.202894 q -2.14133,0 -3.81333,-0.733332 -1.672,-0.733333 -2.64,-1.994665 -0.968,-1.290665 -1.08533,-2.874663 h 4.95733 q 0.088,0.850666 0.792,1.378665 0.70399,0.527999 1.73066,0.527999 0.93867,0 1.43733,-0.351999 0.528,-0.381333 0.528,-0.967999 0,-0.703999 -0.73333,-1.026666 -0.73333,-0.351999 -2.376,-0.762665 -1.76,-0.410667 -2.93333,-0.850666 -1.17333,-0.469333 -2.024,-1.437332 -0.85066,-0.997332 -0.85066,-2.66933 0,-1.407998 0.76266,-2.551997 0.792,-1.173332 2.288,-1.847998 1.52533,-0.674666 3.608,-0.674666 3.07999,0 4.83999,1.525332 1.78933,1.525331 2.05333,4.047995 H 171.705 q -0.11733,-0.850666 -0.76266,-1.349332 -0.616,-0.498666 -1.64267,-0.498666 -0.88,0 -1.34933,0.352 -0.46933,0.322666 -0.46933,0.909332 0,0.703999 0.73333,1.055999 0.76266,0.352 2.34666,0.703999 1.81867,0.469333 2.96267,0.938666 1.14399,0.439999 1.99466,1.466665 0.88,0.997332 0.90933,2.698663 0,1.437332 -0.82133,2.581331 -0.792,1.114665 -2.31733,1.759998 -1.496,0.645332 -3.49066,0.645332 z"
       style="font-weight:bold;font-family:Poppins;-inkscape-font-specification:'Poppins Bold';text-align:center;text-anchor:middle;fill:#000000"
       id="path760" />
    <path
       d="m 59.593171,18.070758 v 4.253328 h -2.551997 q -2.727997,0 -4.253329,-1.319998 -1.525331,-1.349332 -1.525331,-4.370662 V 10.121433 H 49.267849 V 5.9561049 h 1.994665 V 1.9667761 h 5.015994 v 3.9893288 h 3.28533 v 4.1653281 h -3.28533 v 6.57066 q 0,0.733332 0.352,1.055998 0.351999,0.322667 1.173332,0.322667 z"
       style="font-weight:bold;font-family:Poppins;-inkscape-font-specification:'Poppins Bold';text-align:center;text-anchor:middle;fill:#000000"
       id="path762" />
    <path
       d="M 67.395833,8.6841017 Q 68.275832,7.33477 69.59583,6.5721042 70.915829,5.7801051 72.52916,5.7801051 v 5.3093269 h -1.378665 q -1.877331,0 -2.815997,0.821333 -0.938665,0.791999 -0.938665,2.815996 v 7.597325 H 62.379838 V 5.9561049 h 5.015995 z"
       style="font-weight:bold;font-family:Poppins;-inkscape-font-specification:'Poppins Bold';text-align:center;text-anchor:middle;fill:#000000"
       id="path764" />
    <path
       d="m 73.937145,14.110762 q 0,-2.522664 0.938666,-4.4293281 0.967999,-1.9066645 2.610663,-2.9333299 1.642665,-1.0266655 3.666663,-1.0266655 1.730664,0 3.02133,0.7039992 1.319998,0.7039992 2.023997,1.8479978 V 5.9561049 h 5.015995 V 22.324086 h -5.015995 v -2.317331 q -0.733332,1.143999 -2.053331,1.847998 -1.290665,0.703999 -3.02133,0.703999 -1.994664,0 -3.637329,-1.026665 -1.642664,-1.055999 -2.610663,-2.962663 -0.938666,-1.935998 -0.938666,-4.458662 z m 12.261319,0.02933 q 0,-1.877331 -1.055998,-2.962663 Q 84.1158,10.0921 82.619802,10.0921 q -1.495999,0 -2.551997,1.085332 -1.026666,1.055999 -1.026666,2.93333 0,1.877331 1.026666,2.991997 1.055998,1.085332 2.551997,1.085332 1.495998,0 2.522664,-1.085332 1.055998,-1.085332 1.055998,-2.962664 z"
       style="font-weight:bold;font-family:Poppins;-inkscape-font-specification:'Poppins Bold';text-align:center;text-anchor:middle;fill:#000000"
       id="path766" />
    <path
       d="m 104.82513,5.7801051 q 2.87467,0 4.576,1.8773312 1.73066,1.8479978 1.73066,5.1039937 v 9.562656 h -4.98666 v -8.88799 q 0,-1.642665 -0.85066,-2.551997 -0.85067,-0.9093321 -2.288,-0.9093321 -1.43733,0 -2.288,0.9093321 -0.850663,0.909332 -0.850663,2.551997 v 8.88799 H 94.851813 V 5.9561049 h 5.015994 V 8.126769 q 0.762663,-1.085332 2.053333,-1.7013313 1.29066,-0.6453326 2.90399,-0.6453326 z"
       style="font-weight:bold;font-family:Poppins;-inkscape-font-specification:'Poppins Bold';text-align:center;text-anchor:middle;fill:#000000"
       id="path768" />
    <path
       d="m 121.28111,22.558752 q -2.14134,0 -3.81333,-0.733332 -1.672,-0.733333 -2.64,-1.994664 -0.968,-1.290666 -1.08533,-2.874664 h 4.95733 q 0.088,0.850666 0.79199,1.378665 0.704,0.528 1.73067,0.528 0.93866,0 1.43733,-0.352 0.528,-0.381333 0.528,-0.967999 0,-0.703999 -0.73333,-1.026665 -0.73334,-0.352 -2.376,-0.762666 -1.76,-0.410666 -2.93333,-0.850666 -1.17333,-0.469333 -2.024,-1.437331 -0.85066,-0.997333 -0.85066,-2.669331 0,-1.4079981 0.76266,-2.5519968 0.792,-1.1733319 2.288,-1.8479978 1.52533,-0.6746659 3.608,-0.6746659 3.07999,0 4.83999,1.5253316 1.78933,1.5253315 2.05333,4.0479949 h -4.63466 q -0.11733,-0.850665 -0.76267,-1.3493314 -0.616,-0.4986661 -1.64266,-0.4986661 -0.88,0 -1.34933,0.3519996 -0.46934,0.3226659 -0.46934,0.9093319 0,0.704 0.73334,1.055999 0.76266,0.352 2.34666,0.703999 1.81867,0.469333 2.96266,0.938666 1.144,0.439999 1.99467,1.466665 0.88,0.997332 0.90933,2.698664 0,1.437331 -0.82133,2.58133 -0.792,1.114665 -2.31733,1.759998 -1.496,0.645332 -3.49066,0.645332 z"
       style="font-weight:bold;font-family:Poppins;-inkscape-font-specification:'Poppins Bold';text-align:center;text-anchor:middle;fill:#000000"
       id="path770" />
    <path
       d="m 139.20377,10.121433 h -2.69866 v 12.202653 h -5.01599 V 10.121433 h -1.81867 V 5.9561049 h 1.81867 V 5.4867721 q 0,-3.0213299 1.73066,-4.57599477 1.73067,-1.58399818 5.07466,-1.58399818 0.55733,0 0.82133,0.0293333 V 3.6094409 q -1.43733,-0.088 -2.02399,0.4106662 -0.58667,0.4986661 -0.58667,1.7893313 v 0.1466665 h 2.69866 z"
       style="font-weight:bold;font-family:Poppins;-inkscape-font-specification:'Poppins Bold';text-align:center;text-anchor:middle;fill:#000000"
       id="path772" />
    <path
       d="m 156.97977,13.876096 q 0,0.703999 -0.088,1.466665 h -11.35199 q 0.11734,1.525331 0.968,2.346664 0.88,0.791999 2.14133,0.791999 1.87734,0 2.61067,-1.583998 h 5.33866 q -0.41067,1.613331 -1.496,2.903996 -1.056,1.290665 -2.66933,2.023998 -1.61333,0.733332 -3.608,0.733332 -2.40533,0 -4.28266,-1.026665 -1.87733,-1.026666 -2.93333,-2.93333 -1.056,-1.906664 -1.056,-4.458662 0,-2.551997 1.02667,-4.4586611 1.056,-1.9066645 2.93333,-2.9333299 1.87733,-1.0266655 4.31199,-1.0266655 2.376,0 4.224,0.9973322 1.848,0.9973322 2.87466,2.84533 1.056,1.8479983 1.056,4.3119953 z m -5.13333,-1.319999 q 0,-1.290665 -0.88,-2.053331 -0.87999,-0.7626655 -2.19999,-0.7626655 -1.26133,0 -2.14133,0.7333325 -0.85067,0.733333 -1.056,2.082664 z"
       style="font-weight:bold;font-family:Poppins;-inkscape-font-specification:'Poppins Bold';text-align:center;text-anchor:middle;fill:#000000"
       id="path774" />
    <path
       d="m 164.63574,8.6841017 q 0.88,-1.3493317 2.2,-2.1119975 1.32,-0.7919991 2.93333,-0.7919991 v 5.3093269 h -1.37867 q -1.87733,0 -2.81599,0.821333 -0.93867,0.791999 -0.93867,2.815996 v 7.597325 h -5.01599 V 5.9561049 h 5.01599 z"
       style="font-weight:bold;font-family:Poppins;-inkscape-font-specification:'Poppins Bold';text-align:center;text-anchor:middle;fill:#000000"
       id="path776" />
    <path
       d="m 177.19037,8.6841017 q 0.88,-1.3493317 2.2,-2.1119975 1.32,-0.7919991 2.93333,-0.7919991 v 5.3093269 h -1.37866 q -1.87733,0 -2.816,0.821333 -0.93867,0.791999 -0.93867,2.815996 v 7.597325 h -5.01599 V 5.9561049 h 5.01599 z"
       style="font-weight:bold;font-family:Poppins;-inkscape-font-specification:'Poppins Bold';text-align:center;text-anchor:middle;fill:#000000"
       id="path778" />
    <path
       d="m 200.15833,13.876096 q 0,0.703999 -0.088,1.466665 h -11.35199 q 0.11734,1.525331 0.968,2.346664 0.88,0.791999 2.14133,0.791999 1.87733,0 2.61067,-1.583998 h 5.33866 q -0.41067,1.613331 -1.496,2.903996 -1.056,1.290665 -2.66933,2.023998 -1.61333,0.733332 -3.608,0.733332 -2.40533,0 -4.28266,-1.026665 -1.87733,-1.026666 -2.93333,-2.93333 -1.056,-1.906664 -1.056,-4.458662 0,-2.551997 1.02667,-4.4586611 1.056,-1.9066645 2.93333,-2.9333299 1.87733,-1.0266655 4.31199,-1.0266655 2.376,0 4.224,0.9973322 1.848,0.9973322 2.87466,2.84533 1.056,1.8479983 1.056,4.3119953 z M 195.025,12.556097 q 0,-1.290665 -0.88,-2.053331 -0.88,-0.7626655 -2.19999,-0.7626655 -1.26134,0 -2.14134,0.7333325 -0.85066,0.733333 -1.05599,2.082664 z"
       style="font-weight:bold;font-family:Poppins;-inkscape-font-specification:'Poppins Bold';text-align:center;text-anchor:middle;fill:#000000"
       id="path780" />
    <path
       d="m 201.80097,14.110762 q 0,-2.522664 0.93867,-4.4293281 0.968,-1.9066645 2.61066,-2.9333299 1.64267,-1.0266655 3.66666,-1.0266655 1.61334,0 2.93333,0.6746659 1.34934,0.6746659 2.112,1.8186645 V 0.61744434 h 5.016 V 22.324086 h -5.016 v -2.346664 q -0.704,1.173332 -2.024,1.877331 -1.29066,0.703999 -3.02133,0.703999 -2.02399,0 -3.66666,-1.026665 -1.64266,-1.055999 -2.61066,-2.962663 -0.93867,-1.935998 -0.93867,-4.458662 z m 12.26132,0.02933 q 0,-1.877331 -1.056,-2.962663 -1.02666,-1.085332 -2.52266,-1.085332 -1.496,0 -2.552,1.085332 -1.02666,1.055999 -1.02666,2.93333 0,1.877331 1.02666,2.991997 1.056,1.085332 2.552,1.085332 1.496,0 2.52266,-1.085332 1.056,-1.085332 1.056,-2.962664 z"
       style="font-weight:bold;font-family:Poppins;-inkscape-font-specification:'Poppins Bold';text-align:center;text-anchor:middle;fill:#000000"
       id="path782" />
    <path
       d="m 98.811817,55.832404 v 4.253328 H 96.25982 q -2.727997,0 -4.253328,-1.319998 Q 90.48116,57.416402 90.48116,54.395072 V 47.88308 h -1.994664 v -4.165329 h 1.994664 v -3.989329 h 5.015994 v 3.989329 h 3.28533 v 4.165329 h -3.28533 v 6.570659 q 0,0.733332 0.352,1.055999 0.352,0.322666 1.173332,0.322666 z"
       style="font-weight:bold;font-family:Poppins;-inkscape-font-specification:'Poppins Bold';text-align:center;text-anchor:middle;fill:#000000"
       id="path784" />
    <path
       d="m 109.04914,60.320399 q -2.40533,0 -4.34133,-1.026666 -1.90666,-1.026665 -3.02133,-2.93333 -1.08533,-1.906664 -1.08533,-4.458661 0,-2.522664 1.11467,-4.429329 1.11466,-1.935997 3.05066,-2.962663 1.936,-1.026665 4.34133,-1.026665 2.40533,0 4.34133,1.026665 1.936,1.026666 3.05066,2.962663 1.11467,1.906665 1.11467,4.429329 0,2.522664 -1.144,4.458661 -1.11467,1.906665 -3.08,2.93333 -1.936,1.026666 -4.34133,1.026666 z m 0,-4.341329 q 1.43733,0 2.43467,-1.055998 1.02666,-1.055999 1.02666,-3.02133 0,-1.965331 -0.99733,-3.02133 -0.968,-1.055999 -2.40533,-1.055999 -1.46667,0 -2.43466,1.055999 -0.968,1.026665 -0.968,3.02133 0,1.965331 0.93866,3.02133 0.968,1.055998 2.40533,1.055998 z"
       style="font-weight:bold;font-family:Poppins;-inkscape-font-specification:'Poppins Bold';text-align:center;text-anchor:middle;fill:#000000"
       id="path786" />
    <path
       d="m 143.22241,43.717751 -10.26666,24.141306 h -5.39732 l 3.75466,-8.330657 -6.65866,-15.810649 h 5.60266 l 3.784,10.237322 3.75466,-10.237322 z"
       style="font-weight:bold;font-family:Poppins;-inkscape-font-specification:'Poppins Bold';text-align:center;text-anchor:middle;fill:#000000"
       id="path788" />
    <path
       d="m 152.49173,60.320399 q -2.40533,0 -4.34133,-1.026666 -1.90666,-1.026665 -3.02133,-2.93333 -1.08533,-1.906664 -1.08533,-4.458661 0,-2.522664 1.11466,-4.429329 1.11467,-1.935997 3.05067,-2.962663 1.93599,-1.026665 4.34133,-1.026665 2.40533,0 4.34132,1.026665 1.936,1.026666 3.05067,2.962663 1.11466,1.906665 1.11466,4.429329 0,2.522664 -1.144,4.458661 -1.11466,1.906665 -3.07999,2.93333 -1.936,1.026666 -4.34133,1.026666 z m 0,-4.341329 q 1.43733,0 2.43466,-1.055998 1.02667,-1.055999 1.02667,-3.02133 0,-1.965331 -0.99733,-3.02133 -0.968,-1.055999 -2.40533,-1.055999 -1.46667,0 -2.43467,1.055999 -0.968,1.026665 -0.968,3.02133 0,1.965331 0.93867,3.02133 0.968,1.055998 2.40533,1.055998 z"
       style="font-weight:bold;font-family:Poppins;-inkscape-font-specification:'Poppins Bold';text-align:center;text-anchor:middle;fill:#000000"
       id="path790" />
    <path
       d="m 179.889,43.717751 v 16.367981 h -5.01599 v -2.22933 q -0.76267,1.085332 -2.08267,1.759998 -1.29066,0.645332 -2.87466,0.645332 -1.87733,0 -3.31466,-0.821332 -1.43733,-0.850666 -2.22933,-2.434664 -0.792,-1.583998 -0.792,-3.725329 v -9.562656 h 4.98666 v 8.88799 q 0,1.642665 0.85066,2.551997 0.85067,0.909332 2.288,0.909332 1.46667,0 2.31733,-0.909332 0.85067,-0.909332 0.85067,-2.551997 v -8.88799 z"
       style="font-weight:bold;font-family:Poppins;-inkscape-font-specification:'Poppins Bold';text-align:center;text-anchor:middle;fill:#000000"
       id="path792" />
  </g>
  <g
     aria-label="You become the owner"
     transform="matrix(3.125,0,0,3.125,-175.07892,1215.4173)"
     id="text8832-5-9-5"
     style="font-size:29.3333px;white-space:pre;shape-inside:url(#rect8834-2-4-9);display:inline;fill:#5f6073">
    <path
       d="m 75.29722,-36.029537 -7.127992,13.786651 v 6.805326 h -5.015994 v -6.805326 l -7.127992,-13.786651 h 5.69066 l 3.989329,8.623991 3.959996,-8.623991 z"
       style="font-weight:bold;font-family:Poppins;-inkscape-font-specification:'Poppins Bold';text-align:center;text-anchor:middle;fill:#000000"
       id="path795" />
    <path
       d="m 84.771862,-15.202894 q -2.40533,0 -4.341328,-1.026665 -1.906664,-1.026666 -3.02133,-2.93333 -1.085332,-1.906665 -1.085332,-4.458662 0,-2.522664 1.114666,-4.429328 1.114665,-1.935998 3.050663,-2.962663 1.935998,-1.026666 4.341328,-1.026666 2.405331,0 4.341328,1.026666 1.935998,1.026665 3.050664,2.962663 1.114665,1.906664 1.114665,4.429328 0,2.522664 -1.143999,4.458662 -1.114665,1.906664 -3.079996,2.93333 -1.935998,1.026665 -4.341329,1.026665 z m 0,-4.341328 q 1.437332,0 2.434664,-1.055999 1.026666,-1.055999 1.026666,-3.02133 0,-1.965331 -0.997332,-3.02133 -0.967999,-1.055998 -2.405331,-1.055998 -1.466665,0 -2.434664,1.055998 -0.967999,1.026666 -0.967999,3.02133 0,1.965331 0.938666,3.02133 0.967999,1.055999 2.40533,1.055999 z"
       style="font-weight:bold;font-family:Poppins;-inkscape-font-specification:'Poppins Bold';text-align:center;text-anchor:middle;fill:#000000"
       id="path797" />
    <path
       d="m 112.16914,-31.805541 v 16.367981 h -5.016 v -2.229331 q -0.76266,1.085332 -2.08266,1.759998 -1.29067,0.645333 -2.87466,0.645333 -1.87734,0 -3.314667,-0.821333 -1.437331,-0.850665 -2.22933,-2.434664 -0.792,-1.583998 -0.792,-3.725329 v -9.562655 h 4.986657 v 8.887989 q 0,1.642665 0.85067,2.551997 0.85067,0.909333 2.288,0.909333 1.46666,0 2.31733,-0.909333 0.85066,-0.909332 0.85066,-2.551997 v -8.887989 z"
       style="font-weight:bold;font-family:Poppins;-inkscape-font-specification:'Poppins Bold';text-align:center;text-anchor:middle;fill:#000000"
       id="path799" />
    <path
       d="m 127.01178,-29.488211 q 0.704,-1.143998 2.02399,-1.847998 1.32,-0.703999 3.02133,-0.703999 2.024,0 3.66667,1.026666 1.64266,1.026665 2.58133,2.93333 0.968,1.906664 0.968,4.429328 0,2.522664 -0.968,4.458661 -0.93867,1.906665 -2.58133,2.962664 -1.64267,1.026665 -3.66667,1.026665 -1.73066,0 -3.02133,-0.674666 -1.29066,-0.703999 -2.02399,-1.847998 v 2.287998 h -5.016 v -21.706642 h 5.016 z m 7.15732,5.837327 q 0,-1.877331 -1.056,-2.93333 -1.02666,-1.085332 -2.55199,-1.085332 -1.496,0 -2.552,1.085332 -1.02667,1.085332 -1.02667,2.962663 0,1.877331 1.02667,2.962663 1.056,1.085333 2.552,1.085333 1.49599,0 2.55199,-1.085333 1.056,-1.114665 1.056,-2.991996 z"
       style="font-weight:bold;font-family:Poppins;-inkscape-font-specification:'Poppins Bold';text-align:center;text-anchor:middle;fill:#000000"
       id="path801" />
    <path
       d="m 157.34243,-23.88555 q 0,0.703999 -0.088,1.466664 h -11.35198 q 0.11733,1.525332 0.968,2.346664 0.87999,0.792 2.14133,0.792 1.87733,0 2.61066,-1.583999 h 5.33866 q -0.41067,1.613332 -1.496,2.903997 -1.056,1.290665 -2.66933,2.023998 -1.61333,0.733332 -3.60799,0.733332 -2.40533,0 -4.28267,-1.026665 -1.87733,-1.026666 -2.93333,-2.93333 -1.05599,-1.906665 -1.05599,-4.458662 0,-2.551997 1.02666,-4.458661 1.056,-1.906665 2.93333,-2.93333 1.87733,-1.026666 4.312,-1.026666 2.37599,0 4.22399,0.997332 1.848,0.997333 2.87466,2.84533 1.056,1.847998 1.056,4.311996 z m -5.13332,-1.319999 q 0,-1.290665 -0.88,-2.053331 -0.88,-0.762666 -2.2,-0.762666 -1.26133,0 -2.14133,0.733333 -0.85067,0.733332 -1.056,2.082664 z"
       style="font-weight:bold;font-family:Poppins;-inkscape-font-specification:'Poppins Bold';text-align:center;text-anchor:middle;fill:#000000"
       id="path803" />
    <path
       d="m 158.98508,-23.621551 q 0,-2.551997 1.02666,-4.458661 1.056,-1.906665 2.904,-2.93333 1.87733,-1.026666 4.28266,-1.026666 3.08,0 5.13333,1.613332 2.08266,1.613331 2.72799,4.546661 h -5.33866 q -0.67466,-1.877331 -2.61066,-1.877331 -1.37867,0 -2.2,1.085332 -0.82133,1.055999 -0.82133,3.050663 0,1.994665 0.82133,3.079997 0.82133,1.055998 2.2,1.055998 1.936,0 2.61066,-1.877331 h 5.33866 q -0.64533,2.874664 -2.72799,4.517328 -2.08267,1.642665 -5.13333,1.642665 -2.40533,0 -4.28266,-1.026665 -1.848,-1.026666 -2.904,-2.93333 -1.02666,-1.906665 -1.02666,-4.458662 z"
       style="font-weight:bold;font-family:Poppins;-inkscape-font-specification:'Poppins Bold';text-align:center;text-anchor:middle;fill:#000000"
       id="path805" />
    <path
       d="m 185.1797,-15.202894 q -2.40533,0 -4.34133,-1.026665 -1.90666,-1.026666 -3.02133,-2.93333 -1.08533,-1.906665 -1.08533,-4.458662 0,-2.522664 1.11467,-4.429328 1.11466,-1.935998 3.05066,-2.962663 1.936,-1.026666 4.34133,-1.026666 2.40533,0 4.34133,1.026666 1.93599,1.026665 3.05066,2.962663 1.11466,1.906664 1.11466,4.429328 0,2.522664 -1.14399,4.458662 -1.11467,1.906664 -3.08,2.93333 -1.936,1.026665 -4.34133,1.026665 z m 0,-4.341328 q 1.43733,0 2.43467,-1.055999 1.02666,-1.055999 1.02666,-3.02133 0,-1.965331 -0.99733,-3.02133 -0.968,-1.055998 -2.40533,-1.055998 -1.46667,0 -2.43467,1.055998 -0.96799,1.026666 -0.96799,3.02133 0,1.965331 0.93866,3.02133 0.968,1.055999 2.40533,1.055999 z"
       style="font-weight:bold;font-family:Poppins;-inkscape-font-specification:'Poppins Bold';text-align:center;text-anchor:middle;fill:#000000"
       id="path807" />
    <path
       d="m 217.29964,-31.981541 q 3.05066,0 4.83999,1.847998 1.81867,1.847998 1.81867,5.133327 v 9.562656 h -4.98666 v -8.88799 q 0,-1.583998 -0.85067,-2.434664 -0.82133,-0.879999 -2.28799,-0.879999 -1.46667,0 -2.31734,0.879999 -0.82133,0.850666 -0.82133,2.434664 v 8.88799 h -4.98666 v -8.88799 q 0,-1.583998 -0.85066,-2.434664 -0.82134,-0.879999 -2.288,-0.879999 -1.46667,0 -2.31733,0.879999 -0.82134,0.850666 -0.82134,2.434664 v 8.88799 h -5.01599 v -16.367981 h 5.01599 v 2.053331 q 0.76267,-1.026666 1.99467,-1.613332 1.232,-0.615999 2.78666,-0.615999 1.848,0 3.28533,0.791999 1.46667,0.791999 2.288,2.258664 0.85067,-1.349332 2.31733,-2.199998 1.46667,-0.850665 3.19733,-0.850665 z"
       style="font-weight:bold;font-family:Poppins;-inkscape-font-specification:'Poppins Bold';text-align:center;text-anchor:middle;fill:#000000"
       id="path809" />
    <path
       d="m 242.90761,-23.88555 q 0,0.703999 -0.088,1.466664 h -11.35199 q 0.11734,1.525332 0.968,2.346664 0.88,0.792 2.14133,0.792 1.87734,0 2.61067,-1.583999 h 5.33866 q -0.41067,1.613332 -1.496,2.903997 -1.056,1.290665 -2.66933,2.023998 -1.61333,0.733332 -3.608,0.733332 -2.40533,0 -4.28266,-1.026665 -1.87733,-1.026666 -2.93333,-2.93333 -1.056,-1.906665 -1.056,-4.458662 0,-2.551997 1.02667,-4.458661 1.056,-1.906665 2.93333,-2.93333 1.87733,-1.026666 4.31199,-1.026666 2.376,0 4.224,0.997332 1.848,0.997333 2.87466,2.84533 1.056,1.847998 1.056,4.311996 z m -5.13333,-1.319999 q 0,-1.290665 -0.88,-2.053331 -0.87999,-0.762666 -2.19999,-0.762666 -1.26133,0 -2.14133,0.733333 -0.85067,0.733332 -1.056,2.082664 z"
       style="font-weight:bold;font-family:Poppins;-inkscape-font-specification:'Poppins Bold';text-align:center;text-anchor:middle;fill:#000000"
       id="path811" />
    <path
       d="m 85.490548,18.070758 v 4.253328 h -2.551997 q -2.727997,0 -4.253328,-1.319998 -1.525332,-1.349332 -1.525332,-4.370662 V 10.121433 H 75.165227 V 5.9561049 h 1.994664 V 1.9667761 h 5.015994 v 3.9893288 h 3.28533 v 4.1653281 h -3.28533 v 6.57066 q 0,0.733332 0.352,1.055998 0.351999,0.322667 1.173332,0.322667 z"
       style="font-weight:bold;font-family:Poppins;-inkscape-font-specification:'Poppins Bold';text-align:center;text-anchor:middle;fill:#000000"
       id="path813" />
    <path
       d="m 98.338537,5.7801051 q 2.815993,0 4.517333,1.8773312 1.70133,1.8479978 1.70133,5.1039937 v 9.562656 h -4.986664 v -8.88799 q 0,-1.642665 -0.850666,-2.551997 -0.850665,-0.9093321 -2.287997,-0.9093321 -1.437332,0 -2.287997,0.9093321 -0.850666,0.909332 -0.850666,2.551997 v 8.88799 H 88.277216 V 0.61744434 H 93.29321 V 8.1561023 q 0.762666,-1.085332 2.082664,-1.7306646 1.319999,-0.6453326 2.962663,-0.6453326 z"
       style="font-weight:bold;font-family:Poppins;-inkscape-font-specification:'Poppins Bold';text-align:center;text-anchor:middle;fill:#000000"
       id="path815" />
    <path
       d="m 123.47717,13.876096 q 0,0.703999 -0.088,1.466665 h -11.35199 q 0.11734,1.525331 0.968,2.346664 0.88,0.791999 2.14133,0.791999 1.87733,0 2.61067,-1.583998 h 5.33866 q -0.41067,1.613331 -1.496,2.903996 -1.056,1.290665 -2.66933,2.023998 -1.61333,0.733332 -3.608,0.733332 -2.40533,0 -4.28266,-1.026665 -1.87733,-1.026666 -2.93333,-2.93333 -1.056,-1.906664 -1.056,-4.458662 0,-2.551997 1.02667,-4.4586611 1.056,-1.9066645 2.93333,-2.9333299 1.87733,-1.0266655 4.31199,-1.0266655 2.376,0 4.224,0.9973322 1.848,0.9973322 2.87466,2.84533 1.056,1.8479983 1.056,4.3119953 z m -5.13333,-1.319999 q 0,-1.290665 -0.88,-2.053331 -0.88,-0.7626655 -2.19999,-0.7626655 -1.26134,0 -2.14134,0.7333325 -0.85066,0.733333 -1.05599,2.082664 z"
       style="font-weight:bold;font-family:Poppins;-inkscape-font-specification:'Poppins Bold';text-align:center;text-anchor:middle;fill:#000000"
       id="path817" />
    <path
       d="m 139.78646,22.558752 q -2.40533,0 -4.34133,-1.026665 -1.90667,-1.026666 -3.02133,-2.93333 -1.08533,-1.906664 -1.08533,-4.458662 0,-2.522663 1.11466,-4.4293278 1.11467,-1.9359978 3.05067,-2.9626632 1.93599,-1.0266655 4.34132,-1.0266655 2.40533,0 4.34133,1.0266655 1.936,1.0266654 3.05067,2.9626632 1.11466,1.9066648 1.11466,4.4293278 0,2.522664 -1.144,4.458662 -1.11466,1.906664 -3.07999,2.93333 -1.936,1.026665 -4.34133,1.026665 z m 0,-4.341328 q 1.43733,0 2.43466,-1.055999 1.02667,-1.055998 1.02667,-3.02133 0,-1.965331 -0.99734,-3.021329 -0.96799,-1.055999 -2.40533,-1.055999 -1.46666,0 -2.43466,1.055999 -0.968,1.026665 -0.968,3.021329 0,1.965332 0.93867,3.02133 0.968,1.055999 2.40533,1.055999 z"
       style="font-weight:bold;font-family:Poppins;-inkscape-font-specification:'Poppins Bold';text-align:center;text-anchor:middle;fill:#000000"
       id="path819" />
    <path
       d="m 174.51706,5.9561049 -4.42933,16.3679811 h -5.544 l -2.58133,-10.618654 -2.66933,10.618654 h -5.51466 L 149.31975,5.9561049 h 5.016 l 2.31733,11.7039861 2.75733,-11.7039861 h 5.30932 l 2.78667,11.6453201 2.28799,-11.6453201 z"
       style="font-weight:bold;font-family:Poppins;-inkscape-font-specification:'Poppins Bold';text-align:center;text-anchor:middle;fill:#000000"
       id="path821" />
    <path
       d="m 186.39702,5.7801051 q 2.87467,0 4.576,1.8773312 1.73066,1.8479978 1.73066,5.1039937 v 9.562656 h -4.98666 v -8.88799 q 0,-1.642665 -0.85066,-2.551997 -0.85067,-0.9093321 -2.288,-0.9093321 -1.43733,0 -2.288,0.9093321 -0.85066,0.909332 -0.85066,2.551997 v 8.88799 h -5.016 V 5.9561049 h 5.016 V 8.126769 q 0.76266,-1.085332 2.05333,-1.7013313 1.29066,-0.6453326 2.90399,-0.6453326 z"
       style="font-weight:bold;font-family:Poppins;-inkscape-font-specification:'Poppins Bold';text-align:center;text-anchor:middle;fill:#000000"
       id="path823" />
    <path
       d="m 211.62365,13.876096 q 0,0.703999 -0.088,1.466665 h -11.35198 q 0.11733,1.525331 0.968,2.346664 0.88,0.791999 2.14133,0.791999 1.87733,0 2.61066,-1.583998 h 5.33866 q -0.41067,1.613331 -1.496,2.903996 -1.056,1.290665 -2.66933,2.023998 -1.61333,0.733332 -3.60799,0.733332 -2.40533,0 -4.28266,-1.026665 -1.87734,-1.026666 -2.93333,-2.93333 -1.056,-1.906664 -1.056,-4.458662 0,-2.551997 1.02666,-4.4586611 1.056,-1.9066645 2.93333,-2.9333299 1.87733,-1.0266655 4.312,-1.0266655 2.37599,0 4.22399,0.9973322 1.848,0.9973322 2.87467,2.84533 1.05599,1.8479983 1.05599,4.3119953 z m -5.13332,-1.319999 q 0,-1.290665 -0.88,-2.053331 -0.88,-0.7626655 -2.2,-0.7626655 -1.26133,0 -2.14133,0.7333325 -0.85067,0.733333 -1.056,2.082664 z"
       style="font-weight:bold;font-family:Poppins;-inkscape-font-specification:'Poppins Bold';text-align:center;text-anchor:middle;fill:#000000"
       id="path825" />
    <path
       d="m 219.27962,8.6841017 q 0.88,-1.3493317 2.2,-2.1119975 1.32,-0.7919991 2.93333,-0.7919991 v 5.3093269 h -1.37866 q -1.87734,0 -2.816,0.821333 -0.93867,0.791999 -0.93867,2.815996 v 7.597325 h -5.01599 V 5.9561049 h 5.01599 z"
       style="font-weight:bold;font-family:Poppins;-inkscape-font-specification:'Poppins Bold';text-align:center;text-anchor:middle;fill:#000000"
       id="path827" />
  </g>
  <g
     aria-label="BEP20 compatible"
     transform="matrix(3.125,0,0,3.125,231.17108,2152.9173)"
     id="text8832-5-9-5-3"
     style="font-size:29.3333px;white-space:pre;shape-inside:url(#rect8834-2-4-9-4);display:inline;fill:#5f6073">
    <path
       d="m 119.37044,-25.997548 q 1.78933,0.381333 2.87466,1.789331 1.08533,1.378665 1.08533,3.167997 0,2.58133 -1.81866,4.106662 -1.78933,1.495998 -5.016,1.495998 h -9.59199 v -20.591977 h 9.26933 q 3.13866,0 4.89866,1.437332 1.78933,1.437332 1.78933,3.901329 0,1.818665 -0.968,3.02133 -0.93867,1.202665 -2.52266,1.671998 z m -7.45066,-1.701331 h 3.28533 q 1.232,0 1.87733,-0.528 0.67466,-0.557333 0.67466,-1.613331 0,-1.055999 -0.67466,-1.613332 -0.64533,-0.557332 -1.87733,-0.557332 h -3.28533 z m 3.69599,8.213323 q 1.26134,0 1.936,-0.557332 0.704,-0.586666 0.704,-1.671998 0,-1.085332 -0.73333,-1.701332 -0.704,-0.615999 -1.96533,-0.615999 h -3.63733 v 4.546661 z"
       style="font-weight:bold;font-family:Poppins;-inkscape-font-specification:'Poppins Bold';text-align:center;text-anchor:middle;fill:#000000"
       id="path830" />
    <path
       d="m 131.25043,-32.010874 v 4.165328 h 6.71733 v 3.871996 h -6.71733 v 4.517328 h 7.59733 v 4.018662 h -12.61332 v -20.591977 h 12.61332 v 4.018663 z"
       style="font-weight:bold;font-family:Poppins;-inkscape-font-specification:'Poppins Bold';text-align:center;text-anchor:middle;fill:#000000"
       id="path832" />
    <path
       d="m 157.79708,-29.400211 q 0,1.789331 -0.82133,3.28533 -0.82133,1.466665 -2.52267,2.375997 -1.70133,0.909332 -4.22399,0.909332 h -3.10933 v 7.391992 h -5.01599 v -20.591977 h 8.12532 q 2.464,0 4.16533,0.850666 1.70133,0.850666 2.55199,2.346664 0.85067,1.495998 0.85067,3.431996 z m -7.94932,2.581331 q 1.43733,0 2.14133,-0.674666 0.704,-0.674666 0.704,-1.906665 0,-1.231998 -0.704,-1.906664 -0.704,-0.674666 -2.14133,-0.674666 h -2.728 v 5.162661 z"
       style="font-weight:bold;font-family:Poppins;-inkscape-font-specification:'Poppins Bold';text-align:center;text-anchor:middle;fill:#000000"
       id="path834" />
    <path
       d="m 159.73309,-19.456222 q 0.99733,-0.791999 0.90933,-0.733333 2.87467,-2.375997 4.51733,-3.901329 1.672,-1.525331 2.816,-3.197329 1.144,-1.671998 1.144,-3.255997 0,-1.202665 -0.55733,-1.877331 -0.55734,-0.674666 -1.672,-0.674666 -1.11467,0 -1.76,0.850666 -0.616,0.821332 -0.616,2.346664 h -4.83999 q 0.0587,-2.49333 1.05599,-4.165328 1.02667,-1.671999 2.66934,-2.463998 1.67199,-0.791999 3.69599,-0.791999 3.49066,0 5.25066,1.789332 1.78933,1.789331 1.78933,4.663994 0,3.138663 -2.14133,5.837327 -2.14133,2.66933 -5.45599,5.221327 h 7.91999 v 4.077329 h -14.72532 z"
       style="font-weight:bold;font-family:Poppins;-inkscape-font-specification:'Poppins Bold';text-align:center;text-anchor:middle;fill:#000000"
       id="path836" />
    <path
       d="m 176.65838,-26.437548 q 0,-5.045327 1.936,-7.949324 1.96533,-2.903996 6.30666,-2.903996 4.34133,0 6.27733,2.903996 1.96533,2.903997 1.96533,7.949324 0,5.103995 -1.96533,8.007991 -1.936,2.903997 -6.27733,2.903997 -4.34133,0 -6.30666,-2.903997 -1.936,-2.903996 -1.936,-8.007991 z m 11.55732,0 q 0,-2.962663 -0.64533,-4.546661 -0.64533,-1.613331 -2.66933,-1.613331 -2.024,0 -2.66933,1.613331 -0.64533,1.583998 -0.64533,4.546661 0,1.994665 0.23466,3.314663 0.23467,1.290665 0.93867,2.111998 0.73333,0.791999 2.14133,0.791999 1.408,0 2.112,-0.791999 0.73333,-0.821333 0.968,-2.111998 0.23466,-1.319998 0.23466,-3.314663 z"
       style="font-weight:bold;font-family:Poppins;-inkscape-font-specification:'Poppins Bold';text-align:center;text-anchor:middle;fill:#000000"
       id="path838" />
    <path
       d="m 63.329169,14.140095 q 0,-2.551997 1.026665,-4.4586611 1.055999,-1.9066645 2.903997,-2.9333299 1.877331,-1.0266655 4.282662,-1.0266655 3.079996,0 5.133327,1.6133315 2.082664,1.6133314 2.727997,4.546661 h -5.33866 Q 73.390491,10.0041 71.454493,10.0041 q -1.378665,0 -2.199998,1.085332 -0.821332,1.055999 -0.821332,3.050663 0,1.994665 0.821332,3.079997 0.821333,1.055999 2.199998,1.055999 1.935998,0 2.610664,-1.877331 h 5.33866 q -0.645333,2.874663 -2.727997,4.517328 -2.082664,1.642664 -5.133327,1.642664 -2.405331,0 -4.282662,-1.026665 -1.847998,-1.026666 -2.903997,-2.93333 -1.026665,-1.906664 -1.026665,-4.458662 z"
       style="font-weight:bold;font-family:Poppins;-inkscape-font-specification:'Poppins Bold';text-align:center;text-anchor:middle;fill:#000000"
       id="path840" />
    <path
       d="m 89.523793,22.558752 q -2.405331,0 -4.341329,-1.026665 -1.906664,-1.026666 -3.02133,-2.93333 -1.085332,-1.906664 -1.085332,-4.458662 0,-2.522663 1.114666,-4.4293278 1.114665,-1.9359978 3.050663,-2.9626632 1.935998,-1.0266655 4.341328,-1.0266655 2.405331,0 4.341329,1.0266655 1.935997,1.0266654 3.050663,2.9626632 1.114665,1.9066648 1.114665,4.4293278 0,2.522664 -1.143999,4.458662 -1.114665,1.906664 -3.079996,2.93333 -1.935998,1.026665 -4.341328,1.026665 z m 0,-4.341328 q 1.437331,0 2.434664,-1.055999 1.026665,-1.055998 1.026665,-3.02133 0,-1.965331 -0.997332,-3.021329 -0.967999,-1.055999 -2.405331,-1.055999 -1.466665,0 -2.434664,1.055999 -0.967998,1.026665 -0.967998,3.021329 0,1.965332 0.938665,3.02133 0.967999,1.055999 2.405331,1.055999 z"
       style="font-weight:bold;font-family:Poppins;-inkscape-font-specification:'Poppins Bold';text-align:center;text-anchor:middle;fill:#000000"
       id="path842" />
    <path
       d="m 121.64373,5.7801051 q 3.05066,0 4.83999,1.8479979 1.81867,1.8479978 1.81867,5.133327 v 9.562656 h -4.98666 v -8.88799 q 0,-1.583998 -0.85067,-2.434664 -0.82133,-0.879999 -2.288,-0.879999 -1.46666,0 -2.31733,0.879999 -0.82133,0.850666 -0.82133,2.434664 v 8.88799 h -4.98666 v -8.88799 q 0,-1.583998 -0.85067,-2.434664 -0.82133,-0.879999 -2.28799,-0.879999 -1.46667,0 -2.31733,0.879999 -0.82134,0.850666 -0.82134,2.434664 v 8.88799 h -5.01599 V 5.9561049 h 5.01599 v 2.0533309 q 0.76267,-1.0266654 1.99467,-1.6133314 1.232,-0.6159993 2.78666,-0.6159993 1.848,0 3.28533,0.7919991 1.46667,0.7919991 2.288,2.258664 0.85066,-1.3493317 2.31733,-2.1999974 1.46666,-0.8506657 3.19733,-0.8506657 z"
       style="font-weight:bold;font-family:Poppins;-inkscape-font-specification:'Poppins Bold';text-align:center;text-anchor:middle;fill:#000000"
       id="path844" />
    <path
       d="m 136.83838,8.2734355 q 0.73333,-1.1439986 2.02399,-1.8479978 1.29067,-0.7039992 3.02133,-0.7039992 2.024,0 3.66667,1.0266655 1.64266,1.0266654 2.58133,2.9333299 0.96799,1.9066641 0.96799,4.4293281 0,2.522664 -0.96799,4.458662 -0.93867,1.906664 -2.58133,2.962663 -1.64267,1.026665 -3.66667,1.026665 -1.70133,0 -3.02133,-0.703999 -1.29066,-0.703999 -2.02399,-1.818664 v 10.090655 h -5.016 V 5.9561049 h 5.016 z m 7.15732,5.8373265 q 0,-1.877331 -1.056,-2.93333 -1.02666,-1.085332 -2.552,-1.085332 -1.49599,0 -2.55199,1.085332 -1.02667,1.085332 -1.02667,2.962663 0,1.877332 1.02667,2.962664 1.056,1.085332 2.55199,1.085332 1.496,0 2.552,-1.085332 1.056,-1.114666 1.056,-2.991997 z"
       style="font-weight:bold;font-family:Poppins;-inkscape-font-specification:'Poppins Bold';text-align:center;text-anchor:middle;fill:#000000"
       id="path846" />
    <path
       d="m 150.74239,14.110762 q 0,-2.522664 0.93867,-4.4293281 0.968,-1.9066645 2.61066,-2.9333299 1.64267,-1.0266655 3.66666,-1.0266655 1.73067,0 3.02133,0.7039992 1.32,0.7039992 2.024,1.8479978 V 5.9561049 h 5.016 V 22.324086 h -5.016 v -2.317331 q -0.73333,1.143999 -2.05333,1.847998 -1.29066,0.703999 -3.02133,0.703999 -1.99466,0 -3.63733,-1.026665 -1.64266,-1.055999 -2.61066,-2.962663 -0.93867,-1.935998 -0.93867,-4.458662 z m 12.26132,0.02933 q 0,-1.877331 -1.056,-2.962663 -1.02666,-1.085332 -2.52266,-1.085332 -1.496,0 -2.552,1.085332 -1.02666,1.055999 -1.02666,2.93333 0,1.877331 1.02666,2.991997 1.056,1.085332 2.552,1.085332 1.496,0 2.52266,-1.085332 1.056,-1.085332 1.056,-2.962664 z"
       style="font-weight:bold;font-family:Poppins;-inkscape-font-specification:'Poppins Bold';text-align:center;text-anchor:middle;fill:#000000"
       id="path848" />
    <path
       d="m 180.77971,18.070758 v 4.253328 h -2.552 q -2.728,0 -4.25333,-1.319998 -1.52533,-1.349332 -1.52533,-4.370662 v -6.511993 h -1.99466 V 5.9561049 h 1.99466 V 1.9667761 h 5.016 v 3.9893288 h 3.28533 v 4.1653281 h -3.28533 v 6.57066 q 0,0.733332 0.352,1.055998 0.35199,0.322667 1.17333,0.322667 z"
       style="font-weight:bold;font-family:Poppins;-inkscape-font-specification:'Poppins Bold';text-align:center;text-anchor:middle;fill:#000000"
       id="path850" />
    <path
       d="m 186.08904,4.2547735 q -1.32,0 -2.17066,-0.7626658 -0.82134,-0.7919991 -0.82134,-1.9359978 0,-1.17333196 0.82134,-1.93599775 0.85066,-0.79199905 2.17066,-0.79199905 1.29067,0 2.112,0.79199905 0.85066,0.76266579 0.85066,1.93599775 0,1.1439987 -0.85066,1.9359978 -0.82133,0.7626658 -2.112,0.7626658 z m 2.49333,1.7013314 V 22.324086 h -5.01599 V 5.9561049 Z"
       style="font-weight:bold;font-family:Poppins;-inkscape-font-specification:'Poppins Bold';text-align:center;text-anchor:middle;fill:#000000"
       id="path852" />
    <path
       d="m 197.2357,8.2734355 q 0.704,-1.1439986 2.024,-1.8479978 1.32,-0.7039992 3.02133,-0.7039992 2.02399,0 3.66666,1.0266655 1.64266,1.0266654 2.58133,2.9333299 0.968,1.9066641 0.968,4.4293281 0,2.522664 -0.968,4.458662 -0.93867,1.906664 -2.58133,2.962663 -1.64267,1.026665 -3.66666,1.026665 -1.73067,0 -3.02133,-0.674665 -1.29067,-0.704 -2.024,-1.847998 v 2.287997 h -5.016 V 0.61744434 h 5.016 z m 7.15732,5.8373265 q 0,-1.877331 -1.05599,-2.93333 -1.02667,-1.085332 -2.552,-1.085332 -1.496,0 -2.552,1.085332 -1.02666,1.085332 -1.02666,2.962663 0,1.877332 1.02666,2.962664 1.056,1.085332 2.552,1.085332 1.496,0 2.552,-1.085332 1.05599,-1.114666 1.05599,-2.991997 z"
       style="font-weight:bold;font-family:Poppins;-inkscape-font-specification:'Poppins Bold';text-align:center;text-anchor:middle;fill:#000000"
       id="path854" />
    <path
       d="M 217.15304,0.61744434 V 22.324086 h -5.01599 V 0.61744434 Z"
       style="font-weight:bold;font-family:Poppins;-inkscape-font-specification:'Poppins Bold';text-align:center;text-anchor:middle;fill:#000000"
       id="path856" />
    <path
       d="m 236.21968,13.876096 q 0,0.703999 -0.088,1.466665 H 224.7797 q 0.11733,1.525331 0.968,2.346664 0.87999,0.791999 2.14133,0.791999 1.87733,0 2.61066,-1.583998 h 5.33866 q -0.41067,1.613331 -1.496,2.903996 -1.056,1.290665 -2.66933,2.023998 -1.61333,0.733332 -3.60799,0.733332 -2.40533,0 -4.28267,-1.026665 -1.87733,-1.026666 -2.93333,-2.93333 -1.05599,-1.906664 -1.05599,-4.458662 0,-2.551997 1.02666,-4.4586611 1.056,-1.9066645 2.93333,-2.9333299 1.87733,-1.0266655 4.312,-1.0266655 2.37599,0 4.22399,0.9973322 1.848,0.9973322 2.87467,2.84533 1.05599,1.8479983 1.05599,4.3119953 z m -5.13332,-1.319999 q 0,-1.290665 -0.88,-2.053331 -0.88,-0.7626655 -2.2,-0.7626655 -1.26133,0 -2.14133,0.7333325 -0.85067,0.733333 -1.056,2.082664 z"
       style="font-weight:bold;font-family:Poppins;-inkscape-font-specification:'Poppins Bold';text-align:center;text-anchor:middle;fill:#000000"
       id="path858" />
  </g>
  <g
     aria-label="Zero profit"
     transform="matrix(3.125,0,0,3.125,1762.4211,2215.4173)"
     id="text8832-5-9-5-3-7"
     style="font-size:29.3333px;white-space:pre;shape-inside:url(#rect8834-2-4-9-4-3);display:inline;fill:#5f6073">
    <path
       d="m 79.286514,-19.544222 h 8.858656 v 4.106662 H 73.595854 v -3.813329 l 8.79999,-12.671986 h -8.79999 v -4.106662 H 88.14517 v 3.813329 z"
       style="font-weight:bold;font-family:Poppins;-inkscape-font-specification:'Poppins Bold';text-align:center;text-anchor:middle;fill:#fd3259"
       id="path861" />
    <path
       d="m 106.85983,-23.88555 q 0,0.703999 -0.088,1.466664 H 95.419848 q 0.117333,1.525332 0.967999,2.346664 0.879999,0.792 2.141331,0.792 1.877332,0 2.610662,-1.583999 h 5.33866 q -0.41066,1.613332 -1.496,2.903997 -1.056,1.290665 -2.66933,2.023998 -1.61333,0.733332 -3.607992,0.733332 -2.405331,0 -4.282662,-1.026665 -1.877331,-1.026666 -2.93333,-2.93333 -1.055999,-1.906665 -1.055999,-4.458662 0,-2.551997 1.026666,-4.458661 1.055998,-1.906665 2.93333,-2.93333 1.877331,-1.026666 4.311995,-1.026666 2.375992,0 4.223992,0.997332 1.848,0.997333 2.87467,2.84533 1.05599,1.847998 1.05599,4.311996 z m -5.13332,-1.319999 q 0,-1.290665 -0.88,-2.053331 -0.88,-0.762666 -2.199999,-0.762666 -1.261332,0 -2.141331,0.733333 -0.850666,0.733332 -1.055999,2.082664 z"
       style="font-weight:bold;font-family:Poppins;-inkscape-font-specification:'Poppins Bold';text-align:center;text-anchor:middle;fill:#fd3259"
       id="path863" />
    <path
       d="m 114.5158,-29.077545 q 0.88,-1.349331 2.2,-2.111997 1.32,-0.791999 2.93333,-0.791999 v 5.309327 h -1.37866 q -1.87734,0 -2.816,0.821332 -0.93867,0.792 -0.93867,2.815997 v 7.597325 h -5.01599 v -16.367981 h 5.01599 z"
       style="font-weight:bold;font-family:Poppins;-inkscape-font-specification:'Poppins Bold';text-align:center;text-anchor:middle;fill:#fd3259"
       id="path865" />
    <path
       d="m 129.50511,-15.202894 q -2.40534,0 -4.34133,-1.026665 -1.90667,-1.026666 -3.02133,-2.93333 -1.08533,-1.906665 -1.08533,-4.458662 0,-2.522664 1.11466,-4.429328 1.11467,-1.935998 3.05066,-2.962663 1.936,-1.026666 4.34133,-1.026666 2.40533,0 4.34133,1.026666 1.936,1.026665 3.05066,2.962663 1.11467,1.906664 1.11467,4.429328 0,2.522664 -1.144,4.458662 -1.11467,1.906664 -3.08,2.93333 -1.93599,1.026665 -4.34132,1.026665 z m 0,-4.341328 q 1.43733,0 2.43466,-1.055999 1.02666,-1.055999 1.02666,-3.02133 0,-1.965331 -0.99733,-3.02133 -0.968,-1.055998 -2.40533,-1.055998 -1.46666,0 -2.43466,1.055998 -0.968,1.026666 -0.968,3.02133 0,1.965331 0.93866,3.02133 0.968,1.055999 2.40534,1.055999 z"
       style="font-weight:bold;font-family:Poppins;-inkscape-font-specification:'Poppins Bold';text-align:center;text-anchor:middle;fill:#fd3259"
       id="path867" />
    <path
       d="m 151.97438,-29.488211 q 0.73334,-1.143998 2.024,-1.847998 1.29067,-0.703999 3.02133,-0.703999 2.024,0 3.66666,1.026666 1.64267,1.026665 2.58133,2.93333 0.968,1.906664 0.968,4.429328 0,2.522664 -0.968,4.458661 -0.93866,1.906665 -2.58133,2.962664 -1.64266,1.026665 -3.66666,1.026665 -1.70133,0 -3.02133,-0.703999 -1.29066,-0.703999 -2.024,-1.818665 v 10.0906555 h -5.01599 V -31.805541 h 5.01599 z m 7.15733,5.837327 q 0,-1.877331 -1.056,-2.93333 -1.02667,-1.085332 -2.552,-1.085332 -1.496,0 -2.55199,1.085332 -1.02667,1.085332 -1.02667,2.962663 0,1.877331 1.02667,2.962663 1.05599,1.085333 2.55199,1.085333 1.496,0 2.552,-1.085333 1.056,-1.114665 1.056,-2.991996 z"
       style="font-weight:bold;font-family:Poppins;-inkscape-font-specification:'Poppins Bold';text-align:center;text-anchor:middle;fill:#fd3259"
       id="path869" />
    <path
       d="m 171.89172,-29.077545 q 0.88,-1.349331 2.2,-2.111997 1.32,-0.791999 2.93333,-0.791999 v 5.309327 h -1.37867 q -1.87733,0 -2.816,0.821332 -0.93866,0.792 -0.93866,2.815997 v 7.597325 h -5.01599 v -16.367981 h 5.01599 z"
       style="font-weight:bold;font-family:Poppins;-inkscape-font-specification:'Poppins Bold';text-align:center;text-anchor:middle;fill:#fd3259"
       id="path871" />
    <path
       d="m 186.88102,-15.202894 q -2.40533,0 -4.34132,-1.026665 -1.90667,-1.026666 -3.02133,-2.93333 -1.08534,-1.906665 -1.08534,-4.458662 0,-2.522664 1.11467,-4.429328 1.11467,-1.935998 3.05066,-2.962663 1.936,-1.026666 4.34133,-1.026666 2.40533,0 4.34133,1.026666 1.936,1.026665 3.05066,2.962663 1.11467,1.906664 1.11467,4.429328 0,2.522664 -1.144,4.458662 -1.11467,1.906664 -3.08,2.93333 -1.93599,1.026665 -4.34133,1.026665 z m 0,-4.341328 q 1.43734,0 2.43467,-1.055999 1.02666,-1.055999 1.02666,-3.02133 0,-1.965331 -0.99733,-3.02133 -0.968,-1.055998 -2.40533,-1.055998 -1.46666,0 -2.43466,1.055998 -0.968,1.026666 -0.968,3.02133 0,1.965331 0.93866,3.02133 0.968,1.055999 2.40533,1.055999 z"
       style="font-weight:bold;font-family:Poppins;-inkscape-font-specification:'Poppins Bold';text-align:center;text-anchor:middle;fill:#fd3259"
       id="path873" />
    <path
       d="m 206.32897,-27.640213 h -2.69866 v 12.202653 h -5.016 v -12.202653 h -1.81866 v -4.165328 h 1.81866 v -0.469333 q 0,-3.02133 1.73067,-4.575995 1.73066,-1.583998 5.07466,-1.583998 0.55733,0 0.82133,0.02933 v 4.253329 q -1.43733,-0.088 -2.024,0.410666 -0.58666,0.498666 -0.58666,1.789331 v 0.146667 h 2.69866 z"
       style="font-weight:bold;font-family:Poppins;-inkscape-font-specification:'Poppins Bold';text-align:center;text-anchor:middle;fill:#fd3259"
       id="path875" />
    <path
       d="m 211.19832,-33.506873 q -1.32,0 -2.17067,-0.762666 -0.82133,-0.791999 -0.82133,-1.935997 0,-1.173332 0.82133,-1.935998 0.85067,-0.791999 2.17067,-0.791999 1.29066,0 2.11199,0.791999 0.85067,0.762666 0.85067,1.935998 0,1.143998 -0.85067,1.935997 -0.82133,0.762666 -2.11199,0.762666 z m 2.49333,1.701332 v 16.367981 h -5.016 v -16.367981 z"
       style="font-weight:bold;font-family:Poppins;-inkscape-font-specification:'Poppins Bold';text-align:center;text-anchor:middle;fill:#fd3259"
       id="path877" />
    <path
       d="m 226.45164,-19.690889 v 4.253329 h -2.55199 q -2.728,0 -4.25333,-1.319999 -1.52533,-1.349331 -1.52533,-4.370661 v -6.511993 h -1.99467 v -4.165328 h 1.99467 v -3.989329 h 5.01599 v 3.989329 h 3.28533 v 4.165328 h -3.28533 v 6.570659 q 0,0.733333 0.352,1.055999 0.352,0.322666 1.17333,0.322666 z"
       style="font-weight:bold;font-family:Poppins;-inkscape-font-specification:'Poppins Bold';text-align:center;text-anchor:middle;fill:#fd3259"
       id="path879" />
  </g>
</svg>
