<?xml version="1.0" encoding="UTF-8" standalone="no"?>
<!-- Created with Inkscape (http://www.inkscape.org/) -->

<svg
   width="236.92854mm"
   height="194.98622mm"
   viewBox="0 0 236.92854 194.98622"
   version="1.1"
   id="svg5"
   xml:space="preserve"
   inkscape:export-filename="path.ink2.svg"
   inkscape:export-xdpi="96"
   inkscape:export-ydpi="96"
   sodipodi:docname="path.ink2.svg"
   xmlns:inkscape="http://www.inkscape.org/namespaces/inkscape"
   xmlns:sodipodi="http://sodipodi.sourceforge.net/DTD/sodipodi-0.dtd"
   xmlns="http://www.w3.org/2000/svg"
   xmlns:svg="http://www.w3.org/2000/svg"><sodipodi:namedview
     id="namedview7"
     pagecolor="#ffffff"
     bordercolor="#000000"
     borderopacity="0.25"
     inkscape:showpageshadow="2"
     inkscape:pageopacity="0.0"
     inkscape:pagecheckerboard="0"
     inkscape:deskcolor="#d1d1d1"
     inkscape:document-units="mm"
     showgrid="false"
     inkscape:zoom="0.75544332"
     inkscape:cx="205.17754"
     inkscape:cy="763.78993"
     inkscape:window-width="1920"
     inkscape:window-height="1046"
     inkscape:window-x="-11"
     inkscape:window-y="-11"
     inkscape:window-maximized="1"
     inkscape:current-layer="g1234" /><defs
     id="defs2"><rect
       x="42.199989"
       y="-42.199997"
       width="155"
       height="95"
       id="rect8834" /><rect
       x="42.199989"
       y="-42.199997"
       width="159.21207"
       height="118.30744"
       id="rect8834-2" /><rect
       x="42.199989"
       y="-42.199997"
       width="185.14961"
       height="116.76244"
       id="rect8834-2-4" /><rect
       x="42.199989"
       y="-42.199997"
       width="215.14961"
       height="106.76244"
       id="rect8834-2-4-9" /><rect
       x="42.199989"
       y="-42.199997"
       width="215.14961"
       height="106.76244"
       id="rect8834-2-4-9-4" /><rect
       x="42.199989"
       y="-42.199997"
       width="215.14961"
       height="106.76244"
       id="rect8834-2-4-9-4-3" /></defs><g
     inkscape:label="Réteg 1"
     inkscape:groupmode="layer"
     id="layer1"
     transform="translate(-38.551036,-78.759752)"><g
       id="g1234"
       transform="matrix(0.08466667,0,0,0.08466667,-70.474022,108.698)"><path
         style="fill:#5f6073;fill-opacity:1;stroke-width:0.803642"
         d="m 1986.9475,100.9364 c -6.082,-1.011221 -15.8466,-4.415281 -21.0264,-7.329901 -2.431,-1.36799 -7.3592,-5.43968 -10.9515,-9.04839 -5.4826,-5.50762 -7.1909,-7.90569 -10.6378,-14.93297 -6.066,-12.36692 -7.7488,-19.574826 -7.6769,-32.88274 0.054,-9.387928 0.3527,-11.823323 2.2421,-18.08194 7.9977,-26.4918201 24.224,-41.197151 49.7743,-45.108772 25.5067,-3.904957 49.9809,4.690652 62.7034,22.0221279 6.4718,8.816334 11.589,22.3580611 13.3733,35.3896001 0.705,5.149102 0.639,8.056317 -0.3303,14.538848 -4.4708,29.900896 -21.3689,49.435176 -47.4136,54.810537 -7.832,1.6164 -22.2824,1.91621 -30.0565,0.6236 z"
         id="path1096"
         inkscape:export-filename="path.ink2.svg"
         inkscape:export-xdpi="967.87714"
         inkscape:export-ydpi="967.87714" /><path
         style="fill:#5f6073;fill-opacity:1;stroke-width:0.803642"
         d="m 3443.8174,1681.795 v -61.8814 l 62.0792,31.0417 62.0791,31.0416 -61.4765,30.7954 c -33.812,16.9376 -61.7476,30.8156 -62.0791,30.8398 -0.3319,0.021 -0.6018,-27.8025 -0.6018,-61.8371 z"
         id="path2964" /><path
         style="fill:#5f6073;fill-opacity:1;stroke-width:0.125"
         d=""
         id="path5135"
         transform="scale(3.125)" /><path
         style="fill:#5f6073;fill-opacity:1;stroke-width:0.473208"
         d="m 2072.7775,37.246549 v -7.098124 h 39.5129 39.513 l -0.01,6.033393 c 0,3.318382 -0.1349,6.512555 -0.2917,7.098148 l -0.2853,1.064754 h -39.2211 -39.2212 z"
         id="path5149" /><path
         style="fill:#5f6073;fill-opacity:1;stroke-width:0.473208"
         d="m 2200.0707,40.86701 c 0,-1.912785 0.137,-5.106876 0.3062,-7.098127 l 0.3061,-3.620458 h 39.2069 39.2069 v 7.098124 7.098127 h -39.5129 -39.513 z"
         id="path5151" /><path
         style="fill:#5f6073;fill-opacity:1;stroke-width:0.236603"
         d="m 2327.6015,40.263259 c 5e-4,-2.244783 0.071,-5.43896 0.1542,-7.098148 l 0.1542,-3.016686 h 39.4977 39.4978 l -0.1477,6.092564 c -0.081,3.350907 -0.2034,6.545063 -0.2725,7.098124 l -0.1242,1.005649 h -39.3802 -39.3801 z"
         id="path5163" /><path
         style="fill:#5f6073;fill-opacity:1;stroke-width:0.236603"
         d="m 2454.9852,40.795612 0.2901,-7.098123 0.1456,-3.549064 h 39.5218 39.5218 l -0.1563,3.963118 c -0.086,2.179707 -0.2237,5.373878 -0.3067,7.098129 l -0.1498,3.135004 h -39.5053 -39.5053 z"
         id="path5165" /><path
         style="fill:#5f6073;fill-opacity:1;stroke-width:0.236603"
         d="m 2582.5817,38.488856 c 0.1521,-3.22086 0.2853,-6.415073 0.296,-7.098278 l 0.021,-1.242067 h 39.5129 39.513 l 7e-4,1.123856 c 0,1.638034 -0.4711,10.888155 -0.6159,12.066831 l -0.1243,1.005649 -39.4393,1.28e-4 -39.4392,1.3e-4 z"
         id="path5167" /><path
         style="fill:#5f6073;fill-opacity:1;stroke-width:0.236603"
         d="m 2709.796,42.3927 c 0.079,-1.073536 0.2708,-4.26775 0.4261,-7.098149 l 0.2821,-5.146126 h 39.5634 39.5634 l -0.094,1.005643 c -0.1412,1.516827 -0.7949,11.864975 -0.7949,12.572765 v 0.618035 h -39.5455 -39.5455 z"
         id="path5169" /><path
         style="fill:#5f6073;fill-opacity:1;stroke-width:0.236603"
         d="m 2837.5902,37.209696 0.4652,-7.135004 39.5191,0.171343 c 21.7354,0.09421 39.5293,0.190606 39.5417,0.214371 0.021,0.03854 -1.0322,13.680048 -1.0665,13.825264 -0.01,0.03211 -17.7688,0.05994 -39.4691,0.05994 h -39.4552 z"
         id="path5171" /><path
         style="fill:#5f6073;fill-opacity:1;stroke-width:0.236603"
         d="m 2964.554,43.812325 c 0.01,-0.292735 0.2484,-3.407109 0.5354,-6.920686 l 0.5203,-6.388327 39.5807,-0.05994 39.5809,-0.05994 -0.1284,0.769654 c -0.064,0.423389 -0.3555,3.564549 -0.6425,6.980517 l -0.5181,6.210861 h -39.4732 -39.4732 z"
         id="path5173" /><path
         style="fill:#5f6073;fill-opacity:1;stroke-width:0.236603"
         d="m 3092.5763,37.423998 c 0.3532,-3.806369 0.651,-6.947304 0.6596,-6.979833 0.011,-0.03212 17.8063,-0.05994 39.55,-0.05994 h 39.5336 l -0.1284,0.887224 c -0.064,0.488048 -0.349,3.176422 -0.6103,5.974268 -0.2612,2.797849 -0.5354,5.539503 -0.6104,6.092564 l -0.1285,1.005649 h -39.4487 -39.4488 z"
         id="path5175" /><path
         style="fill:#5f6073;fill-opacity:1;stroke-width:0.236603"
         d="m 3219.3626,44.138623 c 0,-0.353164 1.165,-11.687275 1.3107,-12.748045 l 0.1284,-1.005649 h 39.5287 39.5287 l -0.1285,0.887223 c -0.064,0.488049 -0.4304,3.62892 -0.7923,6.97983 l -0.6575,6.092566 h -39.4616 c -22.2515,0 -39.4616,-0.08992 -39.4616,-0.205594 z"
         id="path5177" /><path
         style="fill:#5f6073;fill-opacity:1;stroke-width:0.236603"
         d="m 3346.7842,43.694026 c 0.1071,-0.546295 1.529,-12.910052 1.529,-13.209539 0,-0.05567 17.7809,-0.09848 39.5128,-0.09848 21.7322,0 39.5126,0.07921 39.512,0.177765 -6e-4,0.0985 -0.3725,3.189618 -0.8288,6.871109 -0.4539,3.681514 -0.8266,6.742574 -0.8266,6.802388 0,0.05994 -17.7781,0.10919 -39.507,0.10919 h -39.507 z"
         id="path5179" /><path
         style="fill:#5f6073;fill-opacity:1;stroke-width:0.236603"
         d="m 3534.7397,81.403589 c -7.3588,-7.11962 -16.3254,-13.6244 -25.7731,-18.69686 l -2.9578,-1.58793 -16.6804,-4.16125 c -9.1744,-2.28868 -16.7787,-4.249741 -16.8986,-4.357885 -0.2441,-0.220151 2.7071,-13.457568 3.0004,-13.459259 0.1072,-5.77e-4 8.0844,1.974676 17.7453,4.389325 l 17.5656,4.390393 3.1901,1.666517 c 7.0111,3.662582 15.2287,9.032889 21.4525,14.019639 3.4463,2.76117 8.9315,7.62706 11.1632,9.90281 l 1.499,1.52774 -0.8222,0.68378 c -0.4519,0.37602 -2.7232,2.50755 -5.0477,4.73649 l -4.2258,4.05261 z"
         id="path5181" /><path
         style="fill:#5f6073;fill-opacity:1;stroke-width:0.236603"
         d="m 3569.535,183.88215 c 0,-14.87466 -0.1506,-19.65874 -0.8352,-26.67715 -1.0343,-10.61031 -3.2702,-21.72087 -6.1361,-30.4827 -0.6105,-1.86525 -1.0687,-3.43231 -1.0195,-3.48219 0.1277,-0.12204 12.7958,-5.07483 12.9866,-5.07483 0.3659,0 2.845,7.8318 4.3417,13.71271 2.7249,10.7081 4.3066,21.6675 4.8504,33.60815 0.1277,2.928 0.2441,11.63208 0.2441,19.34244 v 14.01881 h -7.2164 -7.2164 v -14.96524 z"
         id="path5185" /><path
         style="fill:#5f6073;fill-opacity:1;stroke-width:0.236603"
         d="m 3576.7539,326.25889 -7.0983,-0.23663 -0.065,-39.49182 -0.065,-39.49182 7.1421,0.16067 c 3.9281,0.0879 7.1762,0.1949 7.2179,0.23601 0.042,0.0406 0.042,17.84733 0.019,39.56823 l -0.065,39.49252 z"
         id="path5187" /><path
         style="fill:#5f6073;fill-opacity:1;stroke-width:0.236603"
         d="m 3575.689,453.69253 -5.7969,-0.37735 -0.065,-39.4886 -0.065,-39.48854 2.6626,0.15 c 1.4647,0.0814 4.6055,0.2208 6.9805,0.30729 l 4.318,0.15857 v 39.59522 39.59521 l -1.1243,-0.0375 c -0.6188,-0.0213 -3.7323,-0.20767 -6.9206,-0.41375 z"
         id="path5189" /><path
         style="fill:#5f6073;fill-opacity:1;stroke-width:0.236603"
         d="m 3576.6353,581.19406 c -3.7085,-0.36129 -6.7696,-0.66731 -6.8022,-0.68015 -0.042,-0.0114 -0.065,-17.75105 -0.065,-39.4181 0,-37.36244 0.021,-39.39444 0.4132,-39.3908 0.227,0.002 3.1823,0.21411 6.5659,0.47156 3.3834,0.25745 6.3379,0.46834 6.5655,0.46943 0.3919,10e-4 0.4132,2.04704 0.4132,39.63278 0,21.79723 -0.086,39.61797 -0.1715,39.60169 -0.1068,-0.0152 -3.2119,-0.3249 -6.9208,-0.68636 z"
         id="path5191" /><path
         style="fill:#5f6073;fill-opacity:1;stroke-width:0.236603"
         d="m 3576.0439,708.59941 c -3.3834,-0.42981 -6.1782,-0.78869 -6.2108,-0.79834 -0.1506,-0.0429 -0.042,-78.8067 0.1277,-78.80644 0.4261,7.5e-4 12.0951,1.19711 12.8951,1.32214 l 0.8866,0.13913 v 39.49213 39.49214 l -0.7689,-0.0322 c -0.424,-0.0152 -3.5372,-0.38111 -6.9207,-0.81076 z"
         id="path5193" /><path
         style="fill:#5f6073;fill-opacity:1;stroke-width:0.236603"
         d="m 3534.7866,825.21251 -4.7412,-4.89558 2.7762,-2.85326 c 7.0252,-7.22026 13.4207,-16.05679 18.5903,-25.68555 l 1.5869,-2.95758 4.282,-17.1538 c 2.3554,-9.43457 4.3093,-17.18779 4.3417,-17.22934 0.086,-0.0962 13.0476,2.8427 13.3405,3.02378 0.1277,0.077 -1.741,7.98216 -4.2723,18.11407 l -4.4934,17.97741 -1.649,3.15802 c -5.6562,10.82706 -13.6473,21.96221 -21.9884,30.63864 -1.4584,1.51724 -2.7377,2.75872 -2.8423,2.75872 -0.1068,0 -2.3239,-2.20301 -4.9314,-4.89553 z"
         id="path5195" /><path
         style="fill:#5f6073;fill-opacity:1;stroke-width:0.236603"
         d="m 3415.9809,859.68359 v -7.09812 l 11.1798,-0.004 c 12.4481,-0.004 22.1549,-0.29172 28.2121,-0.8386 12.0414,-1.08684 23.6423,-3.43898 33.6562,-6.82395 1.332,-0.45016 2.4756,-0.73132 2.5415,-0.62471 0.5224,0.84442 5.0806,12.88931 4.9306,13.02777 -0.2998,0.27672 -6.4151,2.27731 -10.4959,3.43346 -11.1234,3.15145 -22.5879,5.02613 -35.3617,5.78252 -2.2122,0.13055 -10.9163,0.23925 -19.3424,0.24034 l -15.3202,0.002 z"
         id="path5197" /><path
         style="fill:#5f6073;fill-opacity:1;stroke-width:0.236603"
         d="m 3288.6078,861.63556 c -0.086,-2.83033 -0.1498,-6.02449 -0.1498,-7.09811 l -4e-4,-1.95198 h 39.4768 39.4766 l 0.1498,2.66178 c 0.086,1.46394 0.1498,4.65815 0.1498,7.09813 v 4.43633 h -39.4753 -39.4753 z"
         id="path5199" /><path
         style="fill:#5f6073;fill-opacity:1;stroke-width:0.236603"
         d="m 3161.158,863.62535 c 0,-1.73613 -0.064,-4.93017 -0.1498,-7.09812 l -0.1498,-3.94176 h 39.5145 39.5143 l 0.1498,2.30692 c 0.086,1.26883 0.1498,4.46292 0.1498,7.09811 v 4.79121 h -39.5128 -39.5131 z"
         id="path5201" /><path
         style="fill:#5f6073;fill-opacity:1;stroke-width:0.236603"
         d="m 3033.7814,864.00163 c -0.085,-1.52903 -0.2141,-4.72324 -0.2976,-7.09811 l -0.1498,-4.31805 h 39.5188 39.519 l 0.1285,3.135 c 0.064,1.72435 0.1927,4.91839 0.2655,7.09814 l 0.1285,3.9631 h -39.4878 -39.4875 z"
         id="path5203" /><path
         style="fill:#5f6073;fill-opacity:1;stroke-width:0.236603"
         d="m 2779.0353,866.24938 c 0,-0.29277 -0.1605,-2.92801 -0.3485,-5.85599 -0.1885,-2.92797 -0.3447,-5.88253 -0.3484,-6.56575 l -0.01,-1.24207 h 39.5129 39.5129 l 2e-4,0.65057 c 2e-4,0.84228 0.4175,8.79461 0.6017,11.4753 l 0.1498,2.07042 h -39.5301 -39.5306 z"
         id="path5205" /><path
         style="fill:#5f6073;fill-opacity:1;stroke-width:0.236603"
         d="m 2906.4683,866.48598 c -0.086,-0.27994 -0.6168,-11.86696 -0.6103,-13.24984 v -0.65061 h 39.4794 39.4791 l 0.1498,2.54349 c 0.086,1.39907 0.2184,4.59311 0.3041,7.09818 l 0.1498,4.55462 h -39.4366 c -31.3442,0 -39.4548,-0.06 -39.525,-0.29601 z"
         id="path5207" /><path
         style="fill:#5f6073;fill-opacity:1;stroke-width:0.236603"
         d="m 2651.7226,866.72257 c -0.015,-0.0322 -0.2543,-3.22666 -0.5337,-7.09812 l -0.5074,-7.03898 h 39.5731 39.5731 l 0.01,0.88725 c 0,0.48815 0.1607,3.17637 0.3501,5.97423 0.1906,2.79786 0.3469,5.59276 0.3501,6.21087 l 0.01,1.12389 h -39.3946 c -21.6671,0 -39.4064,-0.0267 -39.4207,-0.06 z"
         id="path5209" /><path
         style="fill:#5f6073;fill-opacity:1;stroke-width:0.236603"
         d="m 2524.2188,866.34605 c 0,-0.40198 -0.8116,-10.45873 -1.0294,-12.75499 l -0.096,-1.00564 h 39.5565 39.5566 l 0.4138,5.97423 c 0.2274,3.28585 0.4747,6.48 0.5492,7.09811 l 0.135,1.12389 h -39.5434 c -38.2494,0 -39.5435,-0.0152 -39.5435,-0.43569 z"
         id="path5211" /><path
         style="fill:#5f6073;fill-opacity:1;stroke-width:0.236603"
         d="m 2293.9435,866.60427 c -21.0829,-0.0536 -24.5477,-0.10921 -24.5477,-0.39931 0,-0.41428 -1.1245,-11.21724 -1.3129,-12.61405 l -0.135,-1.00564 h 39.5167 39.5167 l 0.1243,0.769 c 0.068,0.42285 0.3404,3.11134 0.6043,5.97429 0.2639,2.86288 0.5418,5.71098 0.618,6.32915 l 0.1392,1.12384 -14.9874,-0.0577 c -8.2431,-0.0322 -26.0339,-0.0856 -39.5352,-0.11988 z"
         id="path5213" /><path
         style="fill:#5f6073;fill-opacity:1;stroke-width:0.236603"
         d="m 2396.8229,866.01276 c -0.069,-0.42287 -0.3388,-3.21783 -0.6017,-6.21089 -0.2628,-2.993 -0.5326,-5.84116 -0.5992,-6.32915 l -0.1219,-0.88719 h 39.5112 39.5112 l 0.1113,0.53257 c 0.135,0.64354 1.0888,12.09305 1.0836,13.01327 v 0.65055 h -39.3836 -39.384 z"
         id="path5215" /><path
         style="fill:#5f6073;fill-opacity:1;stroke-width:0.236603"
         d="m 2141.9923,865.77616 c -0.122,-0.70691 -1.546,-12.73587 -1.546,-13.05201 0,-0.12846 79.0239,-0.20982 79.0275,-0.0793 9e-4,0.0322 0.3206,2.92937 0.71,6.43739 0.3896,3.50805 0.7081,6.62232 0.7081,6.92068 v 0.54244 h -39.3839 -39.384 z"
         id="path5219" /><path
         style="fill:#5f6073;fill-opacity:1;stroke-width:0.236603"
         d="m 2017.7934,879.02601 c -0.079,-0.29279 -1.0337,-3.26443 -2.122,-6.60359 l -1.9787,-6.07128 27.5305,-6.88284 27.5307,-6.88283 h 11.5944 c 6.3768,0 11.5948,0.0793 11.5953,0.17764 0,0.3067 1.4085,11.96275 1.5562,12.8949 l 0.1412,0.88725 h -11.7326 -11.7326 l -25.8677,6.50661 c -14.2273,3.57868 -25.9809,6.50659 -26.1193,6.50659 -0.1391,0 -0.3158,-0.2398 -0.3944,-0.53257 z"
         id="path5221" /><path
         style="fill:#5f6073;fill-opacity:1;stroke-width:0.236603"
         d="m 1935.3279,962.28072 c -4.0271,-0.7337 -6.7636,-1.3389 -6.8201,-1.5083 -0.1755,-0.5283 2.5585,-10.98426 4.1234,-15.76695 5.359,-16.37855 12.8121,-30.04879 22.6387,-41.52376 4.4539,-5.20088 13.3911,-14.06815 14.0384,-13.92839 0.3318,0.0707 8.4211,11.06293 8.1419,11.06293 -0.3474,0 -7.6986,7.41215 -9.868,9.94951 -5.9045,6.90573 -11.4855,15.44461 -15.3854,23.53975 -3.8327,7.95561 -6.9671,17.10483 -9.0288,26.35431 -0.3603,1.6171 -0.7588,2.9641 -0.8849,2.9932 -0.1264,0.032 -3.2561,-0.4983 -6.9552,-1.1722 z"
         id="path5223" /><path
         style="fill:#5f6073;fill-opacity:1;stroke-width:0.236603"
         d="m 1924.8997,1050.2197 v -39.5824 h 7.2165 7.2164 l -9e-4,36.3778 c -6e-4,20.0079 -0.071,37.7273 -0.1542,39.3764 l -0.1519,2.9984 -1.9165,0.1327 c -1.054,0.073 -4.2321,0.1649 -7.0625,0.2055 l -5.1461,0.073 z"
         id="path5225" /><path
         style="fill:#5f6073;fill-opacity:1;stroke-width:0.236603"
         d="m 1924.8997,1177.9211 v -39.5085 l 0.5326,-0.1092 c 0.2928,-0.06 3.487,-0.1776 7.0982,-0.2601 l 6.5657,-0.1498 v 39.3968 39.3968 l -1.242,0.1305 c -1.364,0.1435 -10.6493,0.6157 -12.0668,0.6147 l -0.8873,-8e-4 z"
         id="path5227" /><path
         style="fill:#5f6073;fill-opacity:1;stroke-width:0.236603"
         d="m 1925.0924,1305.6289 c -0.048,-21.7674 -0.086,-39.5913 -0.081,-39.6085 0.011,-0.043 12.8928,-0.8032 13.5533,-0.7996 h 0.5326 v 39.3801 39.3802 l -1.0057,0.1327 c -0.5531,0.073 -3.1882,0.2917 -5.8559,0.4849 -2.6677,0.1927 -5.3459,0.4084 -5.9514,0.478 l -1.1009,0.1264 z"
         id="path5229" /><path
         style="fill:#5f6073;fill-opacity:1;stroke-width:0.236603"
         d="m 1925.1363,1433.2273 v -39.4985 l 1.0057,-0.1284 c 1.232,-0.1563 11.9645,-1.0851 12.54,-1.0845 0.3929,6e-4 0.4138,2.0338 0.4138,39.3808 v 39.3801 l -1.0057,0.1391 c -1.7599,0.2452 -11.8493,1.3087 -12.4127,1.3087 h -0.5413 z"
         id="path5231" /><path
         style="fill:#5f6073;fill-opacity:1;stroke-width:0.236603"
         d="m 1938.5037,1599.2499 c -0.058,-0.1714 -3.0894,-12.2503 -6.7379,-26.8615 l -6.6337,-26.5657 0.062,-12.2297 0.062,-12.2297 6.3883,-0.7624 c 3.5135,-0.4196 6.6278,-0.7687 6.9207,-0.7773 l 0.5325,-0.015 v 12.2557 12.256 l 6.3804,25.4194 c 3.5092,13.9808 6.3041,25.4909 6.2109,25.5783 -0.1669,0.1498 -12.6069,4.226 -12.9188,4.226 -0.088,0 -0.2077,-0.1284 -0.2644,-0.2954 z"
         id="path5235" /><path
         style="fill:#5f6073;fill-opacity:1;stroke-width:0.236603"
         d="m 2026.7579,1684.1421 c -9.892,-2.5265 -18.7013,-5.757 -27.446,-10.0653 -10.7974,-5.3192 -18.5957,-10.71 -27.8965,-19.2846 -3.234,-2.9814 -9.9603,-10.1246 -9.9603,-10.5775 0,-0.1498 2.4489,-2.0408 5.4419,-4.2059 l 5.4419,-3.9372 4.4955,4.5291 c 6.1248,6.1707 10.3063,9.6089 17.1739,14.1211 4.6249,3.0385 7.8668,4.8825 12.6383,7.1887 4.8542,2.3463 8.2453,3.7012 14.1962,5.6729 4.1,1.3577 12.6739,3.6534 13.6479,3.6534 0.2211,0 0.4737,0.1071 0.5607,0.2569 0.088,0.1498 -0.4084,3.3352 -1.101,7.098 -1.1652,6.33 -1.2953,6.841 -1.7414,6.8307 -0.2655,-0.01 -2.7182,-0.5825 -5.4509,-1.2806 z"
         id="path5237" /><path
         style="fill:#5f6073;fill-opacity:1;stroke-width:0.236603"
         d="m 2082.2417,1682.0023 v -7.2164 h 39.5129 39.513 v 7.2164 7.2164 h -39.513 -39.5129 z"
         id="path5239" /><path
         style="fill:#5f6073;fill-opacity:1;stroke-width:0.236603"
         d="m 2209.7715,1682.0023 v -7.2164 h 39.5129 39.513 v 7.2164 7.2164 h -39.513 -39.5129 z"
         id="path5241" /><path
         style="fill:#5f6073;fill-opacity:1;stroke-width:0.236603"
         d="m 2337.3013,1682.0023 v -7.2164 h 39.5129 39.513 v 7.2164 7.2164 h -39.513 -39.5129 z"
         id="path5243" /><path
         style="fill:#5f6073;fill-opacity:1;stroke-width:0.236603"
         d="m 2464.8311,1682.0023 v -7.2164 h 39.5129 39.513 v 7.2164 7.2164 h -39.513 -39.5129 z"
         id="path5245" /><path
         style="fill:#5f6073;fill-opacity:1;stroke-width:0.236603"
         d="m 2592.1243,1682.0023 v -7.2164 h 39.5129 39.513 v 7.2164 7.2164 h -39.513 -39.5129 z"
         id="path5247" /><path
         style="fill:#5f6073;fill-opacity:1;stroke-width:0.236603"
         d="m 2847.1839,1682.0023 v -7.2164 h 39.513 39.513 v 7.2164 7.2164 h -39.513 -39.513 z"
         id="path5249" /><path
         style="fill:#5f6073;fill-opacity:1;stroke-width:0.236603"
         d="m 2719.6541,1682.0023 v -7.2164 h 39.513 39.5129 v 7.2164 7.2164 h -39.5129 -39.513 z"
         id="path5251" /><path
         style="fill:#5f6073;fill-opacity:1;stroke-width:0.236603"
         d="m 2974.7138,1682.0023 v -7.2164 h 39.5128 39.513 v 7.2164 7.2164 h -39.513 -39.5128 z"
         id="path5253" /><path
         style="fill:#5f6073;fill-opacity:1;stroke-width:0.236603"
         d="m 3102.2435,1682.0023 v -7.2164 h 39.513 39.513 v 7.2164 7.2164 h -39.513 -39.513 z"
         id="path5255" /><path
         style="fill:#5f6073;fill-opacity:1;stroke:none;stroke-width:0.236603;stroke-opacity:1"
         d="m 3229.5367,1682.0023 v -7.2164 h 39.513 39.5128 v 7.2164 7.2164 h -39.5128 -39.513 z"
         id="path5257" /><path
         style="fill:#5f6073;fill-opacity:1;stroke-width:0.236603"
         d="m 3357.0664,1682.0023 v -7.2164 h 39.513 39.513 v 7.2164 7.2164 h -39.513 -39.513 z"
         id="path5259" /><g
         aria-label="Coin is created"
         transform="matrix(3.125,0,0,3.125,1612.8536,-176.0107)"
         id="text8832"
         style="font-size:29.3333px;white-space:pre;shape-inside:url(#rect8834);display:inline;fill:#5f6073"><path
           d="m 70.316629,-25.762882 q 0,-3.050663 1.319998,-5.42666 1.319998,-2.405331 3.666662,-3.725329 2.375998,-1.349332 5.367994,-1.349332 3.666663,0 6.277326,1.935998 2.610664,1.935998 3.490663,5.279994 h -5.51466 q -0.616,-1.290665 -1.759998,-1.965331 -1.114666,-0.674666 -2.551997,-0.674666 -2.317331,0 -3.754663,1.613331 -1.437331,1.613332 -1.437331,4.311995 0,2.698664 1.437331,4.311995 1.437332,1.613332 3.754663,1.613332 1.437331,0 2.551997,-0.674666 1.143998,-0.674666 1.759998,-1.965331 h 5.51466 q -0.879999,3.343996 -3.490663,5.279994 -2.610663,1.906664 -6.277326,1.906664 -2.991996,0 -5.367994,-1.319998 -2.346664,-1.349332 -3.666662,-3.725329 -1.319998,-2.375998 -1.319998,-5.426661 z"
           style="font-weight:bold;font-family:Poppins;-inkscape-font-specification:'Poppins Bold';text-align:center;text-anchor:middle;fill:#000000"
           id="path5810" /><path
           d="m 100.9699,-15.202894 q -2.405329,0 -4.341326,-1.026665 -1.906665,-1.026666 -3.02133,-2.93333 -1.085332,-1.906665 -1.085332,-4.458662 0,-2.522664 1.114665,-4.429328 1.114665,-1.935998 3.050663,-2.962663 1.935998,-1.026666 4.34133,-1.026666 2.40533,0 4.34133,1.026666 1.93599,1.026665 3.05066,2.962663 1.11467,1.906664 1.11467,4.429328 0,2.522664 -1.144,4.458662 -1.11467,1.906664 -3.08,2.93333 -1.936,1.026665 -4.34133,1.026665 z m 0,-4.341328 q 1.43733,0 2.43467,-1.055999 1.02666,-1.055999 1.02666,-3.02133 0,-1.965331 -0.99733,-3.02133 -0.968,-1.055998 -2.40533,-1.055998 -1.466666,0 -2.434665,1.055998 -0.967999,1.026666 -0.967999,3.02133 0,1.965331 0.938665,3.02133 0.967999,1.055999 2.405329,1.055999 z"
           style="font-weight:bold;font-family:Poppins;-inkscape-font-specification:'Poppins Bold';text-align:center;text-anchor:middle;fill:#000000"
           id="path5812" /><path
           d="m 114.72719,-33.506873 q -1.32,0 -2.17066,-0.762666 -0.82133,-0.791999 -0.82133,-1.935997 0,-1.173332 0.82133,-1.935998 0.85066,-0.791999 2.17066,-0.791999 1.29067,0 2.112,0.791999 0.85067,0.762666 0.85067,1.935998 0,1.143998 -0.85067,1.935997 -0.82133,0.762666 -2.112,0.762666 z m 2.49333,1.701332 v 16.367981 h -5.01599 v -16.367981 z"
           style="font-weight:bold;font-family:Poppins;-inkscape-font-specification:'Poppins Bold';text-align:center;text-anchor:middle;fill:#000000"
           id="path5814" /><path
           d="m 130.83118,-31.981541 q 2.87466,0 4.57599,1.877331 1.73066,1.847998 1.73066,5.103994 v 9.562656 h -4.98666 v -8.88799 q 0,-1.642665 -0.85066,-2.551997 -0.85067,-0.909332 -2.288,-0.909332 -1.43733,0 -2.288,0.909332 -0.85066,0.909332 -0.85066,2.551997 v 8.88799 h -5.016 v -16.367981 h 5.016 v 2.170664 q 0.76266,-1.085332 2.05333,-1.701332 1.29066,-0.645332 2.904,-0.645332 z"
           style="font-weight:bold;font-family:Poppins;-inkscape-font-specification:'Poppins Bold';text-align:center;text-anchor:middle;fill:#000000"
           id="path5816" /><path
           d="m 149.36981,-33.506873 q -1.32,0 -2.17066,-0.762666 -0.82133,-0.791999 -0.82133,-1.935997 0,-1.173332 0.82133,-1.935998 0.85066,-0.791999 2.17066,-0.791999 1.29067,0 2.112,0.791999 0.85067,0.762666 0.85067,1.935998 0,1.143998 -0.85067,1.935997 -0.82133,0.762666 -2.112,0.762666 z m 2.49333,1.701332 v 16.367981 h -5.01599 v -16.367981 z"
           style="font-weight:bold;font-family:Poppins;-inkscape-font-specification:'Poppins Bold';text-align:center;text-anchor:middle;fill:#000000"
           id="path5818" /><path
           d="m 162.15914,-15.202894 q -2.14133,0 -3.81333,-0.733332 -1.672,-0.733333 -2.64,-1.994665 -0.968,-1.290665 -1.08533,-2.874663 h 4.95733 q 0.088,0.850666 0.792,1.378665 0.70399,0.527999 1.73066,0.527999 0.93867,0 1.43733,-0.351999 0.528,-0.381333 0.528,-0.967999 0,-0.703999 -0.73333,-1.026666 -0.73333,-0.351999 -2.376,-0.762665 -1.76,-0.410667 -2.93333,-0.850666 -1.17333,-0.469333 -2.024,-1.437332 -0.85066,-0.997332 -0.85066,-2.66933 0,-1.407998 0.76266,-2.551997 0.792,-1.173332 2.288,-1.847998 1.52533,-0.674666 3.608,-0.674666 3.07999,0 4.83999,1.525332 1.78933,1.525331 2.05333,4.047995 h -4.63466 q -0.11733,-0.850666 -0.76266,-1.349332 -0.616,-0.498666 -1.64267,-0.498666 -0.88,0 -1.34933,0.352 -0.46933,0.322666 -0.46933,0.909332 0,0.703999 0.73333,1.055999 0.76266,0.352 2.34666,0.703999 1.81867,0.469333 2.96267,0.938666 1.14399,0.439999 1.99466,1.466665 0.88,0.997332 0.90933,2.698663 0,1.437332 -0.82133,2.581331 -0.792,1.114665 -2.31733,1.759998 -1.496,0.645332 -3.49066,0.645332 z"
           style="font-weight:bold;font-family:Poppins;-inkscape-font-specification:'Poppins Bold';text-align:center;text-anchor:middle;fill:#000000"
           id="path5820" /><path
           d="m 61.428629,14.140095 q 0,-2.551997 1.026665,-4.4586611 1.055999,-1.9066645 2.903997,-2.9333299 1.877331,-1.0266655 4.282662,-1.0266655 3.079996,0 5.133327,1.6133315 2.082664,1.6133314 2.727997,4.546661 h -5.33866 Q 71.489951,10.0041 69.553953,10.0041 q -1.378665,0 -2.199998,1.085332 -0.821332,1.055999 -0.821332,3.050663 0,1.994665 0.821332,3.079997 0.821333,1.055999 2.199998,1.055999 1.935998,0 2.610664,-1.877331 h 5.33866 q -0.645333,2.874663 -2.727997,4.517328 -2.082664,1.642664 -5.133327,1.642664 -2.405331,0 -4.282662,-1.026665 -1.847998,-1.026666 -2.903997,-2.93333 -1.026665,-1.906664 -1.026665,-4.458662 z"
           style="font-weight:bold;font-family:Poppins;-inkscape-font-specification:'Poppins Bold';text-align:center;text-anchor:middle;fill:#000000"
           id="path5822" /><path
           d="M 85.188589,8.6841017 Q 86.068588,7.33477 87.388586,6.5721042 88.708585,5.7801051 90.321916,5.7801051 v 5.3093269 h -1.378665 q -1.877331,0 -2.815997,0.821333 -0.938665,0.791999 -0.938665,2.815996 v 7.597325 H 80.172595 V 5.9561049 h 5.015994 z"
           style="font-weight:bold;font-family:Poppins;-inkscape-font-specification:'Poppins Bold';text-align:center;text-anchor:middle;fill:#000000"
           id="path5824" /><path
           d="m 108.15655,13.876096 q 0,0.703999 -0.088,1.466665 H 96.716561 q 0.117333,1.525331 0.967999,2.346664 0.879999,0.791999 2.141331,0.791999 1.877329,0 2.610659,-1.583998 h 5.33867 q -0.41067,1.613331 -1.496,2.903996 -1.056,1.290665 -2.66933,2.023998 -1.61333,0.733332 -3.608,0.733332 -2.40533,0 -4.282661,-1.026665 -1.877331,-1.026666 -2.93333,-2.93333 -1.055999,-1.906664 -1.055999,-4.458662 0,-2.551997 1.026666,-4.4586611 1.055999,-1.9066645 2.93333,-2.9333299 1.877331,-1.0266655 4.311994,-1.0266655 2.376,0 4.224,0.9973322 1.84799,0.9973322 2.87466,2.84533 1.056,1.8479983 1.056,4.3119953 z m -5.13333,-1.319999 q 0,-1.290665 -0.88,-2.053331 -0.88,-0.7626655 -2.199996,-0.7626655 -1.261332,0 -2.141331,0.7333325 -0.850665,0.733333 -1.055998,2.082664 z"
           style="font-weight:bold;font-family:Poppins;-inkscape-font-specification:'Poppins Bold';text-align:center;text-anchor:middle;fill:#000000"
           id="path5826" /><path
           d="m 109.79919,14.110762 q 0,-2.522664 0.93866,-4.4293281 0.968,-1.9066645 2.61067,-2.9333299 1.64266,-1.0266655 3.66666,-1.0266655 1.73066,0 3.02133,0.7039992 1.32,0.7039992 2.024,1.8479978 V 5.9561049 h 5.01599 V 22.324086 h -5.01599 v -2.317331 q -0.73333,1.143999 -2.05333,1.847998 -1.29067,0.703999 -3.02133,0.703999 -1.99467,0 -3.63733,-1.026665 -1.64267,-1.055999 -2.61067,-2.962663 -0.93866,-1.935998 -0.93866,-4.458662 z m 12.26132,0.02933 q 0,-1.877331 -1.056,-2.962663 -1.02667,-1.085332 -2.52266,-1.085332 -1.496,0 -2.552,1.085332 -1.02667,1.055999 -1.02667,2.93333 0,1.877331 1.02667,2.991997 1.056,1.085332 2.552,1.085332 1.49599,0 2.52266,-1.085332 1.056,-1.085332 1.056,-2.962664 z"
           style="font-weight:bold;font-family:Poppins;-inkscape-font-specification:'Poppins Bold';text-align:center;text-anchor:middle;fill:#000000"
           id="path5828" /><path
           d="m 139.83651,18.070758 v 4.253328 h -2.55199 q -2.728,0 -4.25333,-1.319998 -1.52533,-1.349332 -1.52533,-4.370662 v -6.511993 h -1.99467 V 5.9561049 h 1.99467 V 1.9667761 h 5.01599 v 3.9893288 h 3.28533 v 4.1653281 h -3.28533 v 6.57066 q 0,0.733332 0.352,1.055998 0.352,0.322667 1.17333,0.322667 z"
           style="font-weight:bold;font-family:Poppins;-inkscape-font-specification:'Poppins Bold';text-align:center;text-anchor:middle;fill:#000000"
           id="path5830" /><path
           d="m 158.0525,13.876096 q 0,0.703999 -0.088,1.466665 h -11.35199 q 0.11733,1.525331 0.968,2.346664 0.88,0.791999 2.14133,0.791999 1.87733,0 2.61066,-1.583998 h 5.33866 q -0.41066,1.613331 -1.49599,2.903996 -1.056,1.290665 -2.66933,2.023998 -1.61334,0.733332 -3.608,0.733332 -2.40533,0 -4.28266,-1.026665 -1.87733,-1.026666 -2.93333,-2.93333 -1.056,-1.906664 -1.056,-4.458662 0,-2.551997 1.02666,-4.4586611 1.056,-1.9066645 2.93333,-2.9333299 1.87734,-1.0266655 4.312,-1.0266655 2.376,0 4.22399,0.9973322 1.848,0.9973322 2.87467,2.84533 1.056,1.8479983 1.056,4.3119953 z m -5.13333,-1.319999 q 0,-1.290665 -0.88,-2.053331 -0.88,-0.7626655 -2.2,-0.7626655 -1.26133,0 -2.14133,0.7333325 -0.85066,0.733333 -1.056,2.082664 z"
           style="font-weight:bold;font-family:Poppins;-inkscape-font-specification:'Poppins Bold';text-align:center;text-anchor:middle;fill:#000000"
           id="path5832" /><path
           d="m 159.69514,14.110762 q 0,-2.522664 0.93866,-4.4293281 0.968,-1.9066645 2.61067,-2.9333299 1.64266,-1.0266655 3.66666,-1.0266655 1.61333,0 2.93333,0.6746659 1.34933,0.6746659 2.112,1.8186645 V 0.61744434 h 5.01599 V 22.324086 h -5.01599 v -2.346664 q -0.704,1.173332 -2.024,1.877331 -1.29066,0.703999 -3.02133,0.703999 -2.024,0 -3.66666,-1.026665 -1.64267,-1.055999 -2.61067,-2.962663 -0.93866,-1.935998 -0.93866,-4.458662 z m 12.26132,0.02933 q 0,-1.877331 -1.056,-2.962663 -1.02667,-1.085332 -2.52266,-1.085332 -1.496,0 -2.552,1.085332 -1.02667,1.055999 -1.02667,2.93333 0,1.877331 1.02667,2.991997 1.056,1.085332 2.552,1.085332 1.49599,0 2.52266,-1.085332 1.056,-1.085332 1.056,-2.962664 z"
           style="font-weight:bold;font-family:Poppins;-inkscape-font-specification:'Poppins Bold';text-align:center;text-anchor:middle;fill:#000000"
           id="path5834" /></g><g
         aria-label="Creation costs
a little"
         transform="matrix(3.125,0,0,3.125,3165.8876,-234.85764)"
         id="text8832-5"
         style="font-size:29.3333px;white-space:pre;shape-inside:url(#rect8834-2);shape-padding:0.936016;display:inline;fill:#5f6073"><path
           d="m 56.818747,-24.827335 q 0,-3.050663 1.319999,-5.42666 1.319998,-2.405331 3.666662,-3.725329 2.375997,-1.349332 5.367994,-1.349332 3.666662,0 6.277326,1.935998 2.610664,1.935997 3.490663,5.279994 H 71.42673 q -0.615999,-1.290666 -1.759998,-1.965331 -1.114665,-0.674666 -2.551997,-0.674666 -2.31733,0 -3.754662,1.613331 -1.437332,1.613332 -1.437332,4.311995 0,2.698664 1.437332,4.311995 1.437332,1.613332 3.754662,1.613332 1.437332,0 2.551997,-0.674666 1.143999,-0.674666 1.759998,-1.965331 h 5.514661 q -0.879999,3.343996 -3.490663,5.279994 -2.610664,1.906664 -6.277326,1.906664 -2.991997,0 -5.367994,-1.319998 -2.346664,-1.349332 -3.666662,-3.725329 -1.319999,-2.375998 -1.319999,-5.426661 z"
           style="font-weight:bold;font-family:Poppins;-inkscape-font-specification:'Poppins Bold';text-align:center;text-anchor:middle;fill:#000000"
           id="path5837" /><path
           d="m 85.037357,-28.141998 q 0.879999,-1.349331 2.199997,-2.111997 1.319999,-0.791999 2.93333,-0.791999 v 5.309327 h -1.378665 q -1.877331,0 -2.815997,0.821332 -0.938665,0.791999 -0.938665,2.815997 v 7.597325 h -5.015995 v -16.367982 h 5.015995 z"
           style="font-weight:bold;font-family:Poppins;-inkscape-font-specification:'Poppins Bold';text-align:center;text-anchor:middle;fill:#000000"
           id="path5839" /><path
           d="m 108.00531,-22.950004 q 0,0.704 -0.088,1.466665 H 96.565327 q 0.117333,1.525332 0.967999,2.346664 0.879999,0.791999 2.141331,0.791999 1.877333,0 2.610663,-1.583998 h 5.33866 q -0.41067,1.613332 -1.496,2.903997 -1.056,1.290665 -2.66933,2.023998 -1.61333,0.733332 -3.607993,0.733332 -2.405331,0 -4.282662,-1.026665 -1.877331,-1.026666 -2.93333,-2.93333 -1.055999,-1.906665 -1.055999,-4.458662 0,-2.551997 1.026666,-4.458661 1.055999,-1.906665 2.93333,-2.93333 1.877331,-1.026666 4.311995,-1.026666 2.375993,0 4.223993,0.997332 1.848,0.997332 2.87467,2.84533 1.05599,1.847998 1.05599,4.311995 z m -5.13332,-1.319998 q 0,-1.290665 -0.88,-2.053331 -0.88,-0.762666 -2.2,-0.762666 -1.261332,0 -2.141331,0.733333 -0.850665,0.733332 -1.055999,2.082664 z"
           style="font-weight:bold;font-family:Poppins;-inkscape-font-specification:'Poppins Bold';text-align:center;text-anchor:middle;fill:#000000"
           id="path5841" /><path
           d="m 109.64796,-22.715337 q 0,-2.522664 0.93866,-4.429328 0.968,-1.906665 2.61067,-2.93333 1.64266,-1.026666 3.66666,-1.026666 1.73066,0 3.02133,0.703999 1.32,0.703999 2.024,1.847998 v -2.317331 h 5.01599 v 16.367982 h -5.01599 v -2.317331 q -0.73334,1.143999 -2.05334,1.847998 -1.29066,0.703999 -3.02133,0.703999 -1.99466,0 -3.63732,-1.026665 -1.64267,-1.055999 -2.61067,-2.962664 -0.93866,-1.935997 -0.93866,-4.458661 z m 12.26132,0.02933 q 0,-1.877331 -1.056,-2.962663 -1.02667,-1.085332 -2.52267,-1.085332 -1.496,0 -2.55199,1.085332 -1.02667,1.055999 -1.02667,2.93333 0,1.877331 1.02667,2.991996 1.05599,1.085332 2.55199,1.085332 1.496,0 2.52267,-1.085332 1.056,-1.085332 1.056,-2.962663 z"
           style="font-weight:bold;font-family:Poppins;-inkscape-font-specification:'Poppins Bold';text-align:center;text-anchor:middle;fill:#000000"
           id="path5843" /><path
           d="m 139.68528,-18.755342 v 4.253329 h -2.552 q -2.72799,0 -4.25333,-1.319999 -1.52533,-1.349332 -1.52533,-4.370661 v -6.511993 h -1.99466 v -4.165329 h 1.99466 v -3.989328 h 5.016 v 3.989328 h 3.28533 v 4.165329 h -3.28533 v 6.570659 q 0,0.733333 0.352,1.055999 0.352,0.322666 1.17333,0.322666 z"
           style="font-weight:bold;font-family:Poppins;-inkscape-font-specification:'Poppins Bold';text-align:center;text-anchor:middle;fill:#000000"
           id="path5845" /><path
           d="m 144.99461,-32.571326 q -1.32,0 -2.17066,-0.762666 -0.82133,-0.791999 -0.82133,-1.935997 0,-1.173332 0.82133,-1.935998 0.85066,-0.791999 2.17066,-0.791999 1.29067,0 2.112,0.791999 0.85067,0.762666 0.85067,1.935998 0,1.143998 -0.85067,1.935997 -0.82133,0.762666 -2.112,0.762666 z m 2.49333,1.701331 v 16.367982 h -5.01599 v -16.367982 z"
           style="font-weight:bold;font-family:Poppins;-inkscape-font-specification:'Poppins Bold';text-align:center;text-anchor:middle;fill:#000000"
           id="path5847" /><path
           d="m 158.57593,-14.267347 q -2.40533,0 -4.34132,-1.026665 -1.90667,-1.026666 -3.02133,-2.93333 -1.08534,-1.906665 -1.08534,-4.458662 0,-2.522664 1.11467,-4.429328 1.11467,-1.935998 3.05066,-2.962663 1.936,-1.026666 4.34133,-1.026666 2.40533,0 4.34133,1.026666 1.936,1.026665 3.05066,2.962663 1.11467,1.906664 1.11467,4.429328 0,2.522664 -1.144,4.458662 -1.11467,1.906664 -3.08,2.93333 -1.93599,1.026665 -4.34133,1.026665 z m 0,-4.341328 q 1.43734,0 2.43467,-1.055999 1.02666,-1.055999 1.02666,-3.02133 0,-1.965331 -0.99733,-3.02133 -0.968,-1.055999 -2.40533,-1.055999 -1.46666,0 -2.43466,1.055999 -0.968,1.026666 -0.968,3.02133 0,1.965331 0.93866,3.02133 0.968,1.055999 2.40533,1.055999 z"
           style="font-weight:bold;font-family:Poppins;-inkscape-font-specification:'Poppins Bold';text-align:center;text-anchor:middle;fill:#000000"
           id="path5849" /><path
           d="m 179.78389,-31.045994 q 2.87466,0 4.57599,1.877331 1.73067,1.847998 1.73067,5.103994 v 9.562656 h -4.98667 v -8.88799 q 0,-1.642665 -0.85066,-2.551997 -0.85067,-0.909332 -2.288,-0.909332 -1.43733,0 -2.288,0.909332 -0.85066,0.909332 -0.85066,2.551997 v 8.88799 h -5.016 v -16.367982 h 5.016 v 2.170665 q 0.76266,-1.085332 2.05333,-1.701332 1.29066,-0.645332 2.904,-0.645332 z"
           style="font-weight:bold;font-family:Poppins;-inkscape-font-specification:'Poppins Bold';text-align:center;text-anchor:middle;fill:#000000"
           id="path5851" /><path
           d="m 82.089354,15.075642 q 0,-2.551997 1.026665,-4.458661 1.055999,-1.9066647 2.903997,-2.9333302 1.877331,-1.0266654 4.282662,-1.0266654 3.079996,0 5.133327,1.6133314 2.082664,1.6133315 2.727997,4.5466612 h -5.338661 q -0.674665,-1.877331 -2.610663,-1.877331 -1.378665,0 -2.199998,1.085332 -0.821332,1.055999 -0.821332,3.050663 0,1.994665 0.821332,3.079997 0.821333,1.055999 2.199998,1.055999 1.935998,0 2.610663,-1.877332 h 5.338661 q -0.645333,2.874664 -2.727997,4.517329 -2.082664,1.642664 -5.133327,1.642664 -2.405331,0 -4.282662,-1.026665 -1.847998,-1.026666 -2.903997,-2.93333 -1.026665,-1.906665 -1.026665,-4.458662 z"
           style="font-weight:bold;font-family:Poppins;-inkscape-font-specification:'Poppins Bold';text-align:center;text-anchor:middle;fill:#000000"
           id="path5853" /><path
           d="m 108.28398,23.494299 q -2.40533,0 -4.34133,-1.026665 -1.90667,-1.026666 -3.02133,-2.93333 -1.085333,-1.906665 -1.085333,-4.458662 0,-2.522663 1.114663,-4.429328 1.11467,-1.9359977 3.05067,-2.9626632 1.93599,-1.0266654 4.34132,-1.0266654 2.40533,0 4.34133,1.0266654 1.936,1.0266655 3.05067,2.9626632 1.11466,1.906665 1.11466,4.429328 0,2.522664 -1.144,4.458662 -1.11466,1.906664 -3.07999,2.93333 -1.936,1.026665 -4.34133,1.026665 z m 0,-4.341328 q 1.43733,0 2.43466,-1.055999 1.02667,-1.055999 1.02667,-3.02133 0,-1.965331 -0.99734,-3.02133 -0.96799,-1.055998 -2.40533,-1.055998 -1.46666,0 -2.43466,1.055998 -0.968,1.026666 -0.968,3.02133 0,1.965331 0.93867,3.02133 0.968,1.055999 2.40533,1.055999 z"
           style="font-weight:bold;font-family:Poppins;-inkscape-font-specification:'Poppins Bold';text-align:center;text-anchor:middle;fill:#000000"
           id="path5855" /><path
           d="m 126.17726,23.494299 q -2.14133,0 -3.81332,-0.733332 -1.672,-0.733333 -2.64,-1.994665 -0.968,-1.290665 -1.08533,-2.874663 h 4.95732 q 0.088,0.850666 0.792,1.378665 0.704,0.528 1.73067,0.528 0.93866,0 1.43733,-0.352 0.528,-0.381333 0.528,-0.967999 0,-0.703999 -0.73333,-1.026665 -0.73334,-0.352 -2.376,-0.762666 -1.76,-0.410666 -2.93333,-0.850666 -1.17333,-0.469333 -2.024,-1.437332 -0.85066,-0.997332 -0.85066,-2.66933 0,-1.407998 0.76266,-2.5519969 0.792,-1.173332 2.288,-1.8479979 1.52533,-0.6746658 3.60799,-0.6746658 3.08,0 4.84,1.5253315 1.78933,1.5253316 2.05333,4.0479951 h -4.63466 q -0.11733,-0.850665 -0.76267,-1.349332 -0.616,-0.498666 -1.64266,-0.498666 -0.88,0 -1.34933,0.352 -0.46934,0.322666 -0.46934,0.909332 0,0.703999 0.73334,1.055999 0.76266,0.352 2.34666,0.703999 1.81866,0.469333 2.96266,0.938666 1.144,0.439999 1.99467,1.466665 0.88,0.997332 0.90933,2.698663 0,1.437332 -0.82133,2.581331 -0.792,1.114665 -2.31733,1.759998 -1.496,0.645332 -3.49067,0.645332 z"
           style="font-weight:bold;font-family:Poppins;-inkscape-font-specification:'Poppins Bold';text-align:center;text-anchor:middle;fill:#000000"
           id="path5857" /><path
           d="m 145.00926,19.006304 v 4.253329 h -2.552 q -2.72799,0 -4.25332,-1.319999 -1.52534,-1.349331 -1.52534,-4.370661 V 11.05698 h -1.99466 V 6.8916517 h 1.99466 V 2.902323 h 5.016 v 3.9893287 h 3.28533 V 11.05698 h -3.28533 v 6.570659 q 0,0.733333 0.352,1.055999 0.352,0.322666 1.17333,0.322666 z"
           style="font-weight:bold;font-family:Poppins;-inkscape-font-specification:'Poppins Bold';text-align:center;text-anchor:middle;fill:#000000"
           id="path5859" /><path
           d="m 154.45459,23.494299 q -2.14133,0 -3.81333,-0.733332 -1.672,-0.733333 -2.64,-1.994665 -0.968,-1.290665 -1.08533,-2.874663 h 4.95733 q 0.088,0.850666 0.792,1.378665 0.704,0.528 1.73066,0.528 0.93867,0 1.43733,-0.352 0.528,-0.381333 0.528,-0.967999 0,-0.703999 -0.73333,-1.026665 -0.73333,-0.352 -2.376,-0.762666 -1.75999,-0.410666 -2.93333,-0.850666 -1.17333,-0.469333 -2.02399,-1.437332 -0.85067,-0.997332 -0.85067,-2.66933 0,-1.407998 0.76267,-2.5519969 0.792,-1.173332 2.28799,-1.8479979 1.52533,-0.6746658 3.608,-0.6746658 3.08,0 4.83999,1.5253315 1.78933,1.5253316 2.05333,4.0479951 h -4.63466 q -0.11733,-0.850665 -0.76266,-1.349332 -0.616,-0.498666 -1.64267,-0.498666 -0.88,0 -1.34933,0.352 -0.46933,0.322666 -0.46933,0.909332 0,0.703999 0.73333,1.055999 0.76267,0.352 2.34666,0.703999 1.81867,0.469333 2.96267,0.938666 1.144,0.439999 1.99466,1.466665 0.88,0.997332 0.90933,2.698663 0,1.437332 -0.82133,2.581331 -0.792,1.114665 -2.31733,1.759998 -1.496,0.645332 -3.49066,0.645332 z"
           style="font-weight:bold;font-family:Poppins;-inkscape-font-specification:'Poppins Bold';text-align:center;text-anchor:middle;fill:#000000"
           id="path5861" /><path
           d="m 75.63602,52.807955 q 0,-2.522663 0.938666,-4.429328 0.967999,-1.906664 2.610663,-2.93333 1.642665,-1.026665 3.666663,-1.026665 1.730664,0 3.02133,0.703999 1.319998,0.703999 2.023997,1.847998 v -2.317331 h 5.015995 v 16.367981 h -5.015995 v -2.31733 q -0.733332,1.143998 -2.053331,1.847997 -1.290665,0.704 -3.02133,0.704 -1.994664,0 -3.637329,-1.026666 -1.642664,-1.055999 -2.610663,-2.962663 -0.938666,-1.935998 -0.938666,-4.458662 z m 12.261319,0.02933 q 0,-1.877332 -1.055998,-2.962664 -1.026666,-1.085332 -2.522664,-1.085332 -1.495999,0 -2.551997,1.085332 -1.026666,1.055999 -1.026666,2.93333 0,1.877331 1.026666,2.991997 1.055998,1.085332 2.551997,1.085332 1.495998,0 2.522664,-1.085332 1.055998,-1.085332 1.055998,-2.962663 z"
           style="font-weight:bold;font-family:Poppins;-inkscape-font-specification:'Poppins Bold';text-align:center;text-anchor:middle;fill:#000000"
           id="path5863" /><path
           d="m 107.78534,39.314637 v 21.706642 h -5.016 V 39.314637 Z"
           style="font-weight:bold;font-family:Poppins;-inkscape-font-specification:'Poppins Bold';text-align:center;text-anchor:middle;fill:#000000"
           id="path5865" /><path
           d="m 113.94533,42.951967 q -1.31999,0 -2.17066,-0.762666 -0.82133,-0.791999 -0.82133,-1.935998 0,-1.173332 0.82133,-1.935998 0.85067,-0.791999 2.17066,-0.791999 1.29067,0 2.112,0.791999 0.85067,0.762666 0.85067,1.935998 0,1.143999 -0.85067,1.935998 -0.82133,0.762666 -2.112,0.762666 z m 2.49333,1.701331 v 16.367981 h -5.01599 V 44.653298 Z"
           style="font-weight:bold;font-family:Poppins;-inkscape-font-specification:'Poppins Bold';text-align:center;text-anchor:middle;fill:#000000"
           id="path5867" /><path
           d="m 129.19865,56.767951 v 4.253328 h -2.552 q -2.72799,0 -4.25332,-1.319998 -1.52534,-1.349332 -1.52534,-4.370662 v -6.511992 h -1.99466 v -4.165329 h 1.99466 v -3.989329 h 5.016 v 3.989329 h 3.28533 v 4.165329 h -3.28533 v 6.570659 q 0,0.733332 0.352,1.055998 0.352,0.322667 1.17333,0.322667 z"
           style="font-weight:bold;font-family:Poppins;-inkscape-font-specification:'Poppins Bold';text-align:center;text-anchor:middle;fill:#000000"
           id="path5869" /><path
           d="m 141.10798,56.767951 v 4.253328 h -2.552 q -2.728,0 -4.25333,-1.319998 -1.52533,-1.349332 -1.52533,-4.370662 v -6.511992 h -1.99467 v -4.165329 h 1.99467 v -3.989329 h 5.01599 v 3.989329 h 3.28533 v 4.165329 h -3.28533 v 6.570659 q 0,0.733332 0.352,1.055998 0.352,0.322667 1.17333,0.322667 z"
           style="font-weight:bold;font-family:Poppins;-inkscape-font-specification:'Poppins Bold';text-align:center;text-anchor:middle;fill:#000000"
           id="path5871" /><path
           d="m 148.91064,39.314637 v 21.706642 h -5.016 V 39.314637 Z"
           style="font-weight:bold;font-family:Poppins;-inkscape-font-specification:'Poppins Bold';text-align:center;text-anchor:middle;fill:#000000"
           id="path5873" /><path
           d="m 167.97729,52.573289 q 0,0.703999 -0.088,1.466665 H 156.5373 q 0.11733,1.525331 0.968,2.346664 0.88,0.791999 2.14133,0.791999 1.87733,0 2.61066,-1.583998 h 5.33866 q -0.41066,1.613331 -1.49599,2.903996 -1.056,1.290666 -2.66933,2.023998 -1.61334,0.733333 -3.608,0.733333 -2.40533,0 -4.28266,-1.026666 -1.87733,-1.026665 -2.93333,-2.93333 -1.056,-1.906664 -1.056,-4.458661 0,-2.551997 1.02666,-4.458662 1.056,-1.906664 2.93333,-2.93333 1.87734,-1.026665 4.312,-1.026665 2.376,0 4.224,0.997332 1.84799,0.997332 2.87466,2.84533 1.056,1.847998 1.056,4.311995 z m -5.13333,-1.319999 q 0,-1.290665 -0.88,-2.053331 -0.88,-0.762665 -2.2,-0.762665 -1.26133,0 -2.14133,0.733332 -0.85066,0.733333 -1.056,2.082664 z"
           style="font-weight:bold;font-family:Poppins;-inkscape-font-specification:'Poppins Bold';text-align:center;text-anchor:middle;fill:#000000"
           id="path5875" /></g><g
         aria-label="Coins transferred to you"
         transform="matrix(3.125,0,0,3.125,3401.4462,886.48932)"
         id="text8832-5-9"
         style="font-size:29.3333px;white-space:pre;shape-inside:url(#rect8834-2-4);display:inline;fill:#5f6073"><path
           d="m 92.827815,-25.762882 q 0,-3.050663 1.319998,-5.42666 1.319999,-2.405331 3.666663,-3.725329 2.375994,-1.349332 5.367994,-1.349332 3.66666,0 6.27733,1.935998 2.61066,1.935998 3.49066,5.279994 h -5.51466 q -0.616,-1.290665 -1.76,-1.965331 -1.11467,-0.674666 -2.552,-0.674666 -2.31733,0 -3.754659,1.613331 -1.437332,1.613332 -1.437332,4.311995 0,2.698664 1.437332,4.311995 1.437329,1.613332 3.754659,1.613332 1.43733,0 2.552,-0.674666 1.144,-0.674666 1.76,-1.965331 h 5.51466 q -0.88,3.343996 -3.49066,5.279994 -2.61067,1.906664 -6.27733,1.906664 -2.992,0 -5.367994,-1.319998 -2.346664,-1.349332 -3.666663,-3.725329 -1.319998,-2.375998 -1.319998,-5.426661 z"
           style="font-weight:bold;font-family:Poppins;-inkscape-font-specification:'Poppins Bold';text-align:center;text-anchor:middle;fill:#000000"
           id="path5878" /><path
           d="m 123.48109,-15.202894 q -2.40533,0 -4.34133,-1.026665 -1.90666,-1.026666 -3.02133,-2.93333 -1.08533,-1.906665 -1.08533,-4.458662 0,-2.522664 1.11466,-4.429328 1.11467,-1.935998 3.05067,-2.962663 1.93599,-1.026666 4.34132,-1.026666 2.40534,0 4.34133,1.026666 1.936,1.026665 3.05067,2.962663 1.11466,1.906664 1.11466,4.429328 0,2.522664 -1.144,4.458662 -1.11466,1.906664 -3.07999,2.93333 -1.936,1.026665 -4.34133,1.026665 z m 0,-4.341328 q 1.43733,0 2.43466,-1.055999 1.02667,-1.055999 1.02667,-3.02133 0,-1.965331 -0.99733,-3.02133 -0.968,-1.055998 -2.40534,-1.055998 -1.46666,0 -2.43466,1.055998 -0.968,1.026666 -0.968,3.02133 0,1.965331 0.93867,3.02133 0.968,1.055999 2.40533,1.055999 z"
           style="font-weight:bold;font-family:Poppins;-inkscape-font-specification:'Poppins Bold';text-align:center;text-anchor:middle;fill:#000000"
           id="path5880" /><path
           d="m 137.23838,-33.506873 q -1.32,0 -2.17066,-0.762666 -0.82134,-0.791999 -0.82134,-1.935997 0,-1.173332 0.82134,-1.935998 0.85066,-0.791999 2.17066,-0.791999 1.29066,0 2.112,0.791999 0.85066,0.762666 0.85066,1.935998 0,1.143998 -0.85066,1.935997 -0.82134,0.762666 -2.112,0.762666 z m 2.49333,1.701332 v 16.367981 h -5.01599 v -16.367981 z"
           style="font-weight:bold;font-family:Poppins;-inkscape-font-specification:'Poppins Bold';text-align:center;text-anchor:middle;fill:#000000"
           id="path5882" /><path
           d="m 153.34236,-31.981541 q 2.87467,0 4.576,1.877331 1.73066,1.847998 1.73066,5.103994 v 9.562656 h -4.98666 v -8.88799 q 0,-1.642665 -0.85067,-2.551997 -0.85066,-0.909332 -2.28799,-0.909332 -1.43733,0 -2.288,0.909332 -0.85067,0.909332 -0.85067,2.551997 v 8.88799 h -5.01599 v -16.367981 h 5.01599 v 2.170664 q 0.76267,-1.085332 2.05334,-1.701332 1.29066,-0.645332 2.90399,-0.645332 z"
           style="font-weight:bold;font-family:Poppins;-inkscape-font-specification:'Poppins Bold';text-align:center;text-anchor:middle;fill:#000000"
           id="path5884" /><path
           d="m 169.79834,-15.202894 q -2.14133,0 -3.81333,-0.733332 -1.672,-0.733333 -2.64,-1.994665 -0.968,-1.290665 -1.08533,-2.874663 h 4.95733 q 0.088,0.850666 0.792,1.378665 0.70399,0.527999 1.73066,0.527999 0.93867,0 1.43733,-0.351999 0.528,-0.381333 0.528,-0.967999 0,-0.703999 -0.73333,-1.026666 -0.73333,-0.351999 -2.376,-0.762665 -1.76,-0.410667 -2.93333,-0.850666 -1.17333,-0.469333 -2.024,-1.437332 -0.85066,-0.997332 -0.85066,-2.66933 0,-1.407998 0.76266,-2.551997 0.792,-1.173332 2.288,-1.847998 1.52533,-0.674666 3.608,-0.674666 3.07999,0 4.83999,1.525332 1.78933,1.525331 2.05333,4.047995 H 171.705 q -0.11733,-0.850666 -0.76266,-1.349332 -0.616,-0.498666 -1.64267,-0.498666 -0.88,0 -1.34933,0.352 -0.46933,0.322666 -0.46933,0.909332 0,0.703999 0.73333,1.055999 0.76266,0.352 2.34666,0.703999 1.81867,0.469333 2.96267,0.938666 1.14399,0.439999 1.99466,1.466665 0.88,0.997332 0.90933,2.698663 0,1.437332 -0.82133,2.581331 -0.792,1.114665 -2.31733,1.759998 -1.496,0.645332 -3.49066,0.645332 z"
           style="font-weight:bold;font-family:Poppins;-inkscape-font-specification:'Poppins Bold';text-align:center;text-anchor:middle;fill:#000000"
           id="path5886" /><path
           d="m 59.593171,18.070758 v 4.253328 h -2.551997 q -2.727997,0 -4.253329,-1.319998 -1.525331,-1.349332 -1.525331,-4.370662 V 10.121433 H 49.267849 V 5.9561049 h 1.994665 V 1.9667761 h 5.015994 v 3.9893288 h 3.28533 v 4.1653281 h -3.28533 v 6.57066 q 0,0.733332 0.352,1.055998 0.351999,0.322667 1.173332,0.322667 z"
           style="font-weight:bold;font-family:Poppins;-inkscape-font-specification:'Poppins Bold';text-align:center;text-anchor:middle;fill:#000000"
           id="path5888" /><path
           d="M 67.395833,8.6841017 Q 68.275832,7.33477 69.59583,6.5721042 70.915829,5.7801051 72.52916,5.7801051 v 5.3093269 h -1.378665 q -1.877331,0 -2.815997,0.821333 -0.938665,0.791999 -0.938665,2.815996 v 7.597325 H 62.379838 V 5.9561049 h 5.015995 z"
           style="font-weight:bold;font-family:Poppins;-inkscape-font-specification:'Poppins Bold';text-align:center;text-anchor:middle;fill:#000000"
           id="path5890" /><path
           d="m 73.937145,14.110762 q 0,-2.522664 0.938666,-4.4293281 0.967999,-1.9066645 2.610663,-2.9333299 1.642665,-1.0266655 3.666663,-1.0266655 1.730664,0 3.02133,0.7039992 1.319998,0.7039992 2.023997,1.8479978 V 5.9561049 h 5.015995 V 22.324086 h -5.015995 v -2.317331 q -0.733332,1.143999 -2.053331,1.847998 -1.290665,0.703999 -3.02133,0.703999 -1.994664,0 -3.637329,-1.026665 -1.642664,-1.055999 -2.610663,-2.962663 -0.938666,-1.935998 -0.938666,-4.458662 z m 12.261319,0.02933 q 0,-1.877331 -1.055998,-2.962663 Q 84.1158,10.0921 82.619802,10.0921 q -1.495999,0 -2.551997,1.085332 -1.026666,1.055999 -1.026666,2.93333 0,1.877331 1.026666,2.991997 1.055998,1.085332 2.551997,1.085332 1.495998,0 2.522664,-1.085332 1.055998,-1.085332 1.055998,-2.962664 z"
           style="font-weight:bold;font-family:Poppins;-inkscape-font-specification:'Poppins Bold';text-align:center;text-anchor:middle;fill:#000000"
           id="path5892" /><path
           d="m 104.82513,5.7801051 q 2.87467,0 4.576,1.8773312 1.73066,1.8479978 1.73066,5.1039937 v 9.562656 h -4.98666 v -8.88799 q 0,-1.642665 -0.85066,-2.551997 -0.85067,-0.9093321 -2.288,-0.9093321 -1.43733,0 -2.288,0.9093321 -0.850663,0.909332 -0.850663,2.551997 v 8.88799 H 94.851813 V 5.9561049 h 5.015994 V 8.126769 q 0.762663,-1.085332 2.053333,-1.7013313 1.29066,-0.6453326 2.90399,-0.6453326 z"
           style="font-weight:bold;font-family:Poppins;-inkscape-font-specification:'Poppins Bold';text-align:center;text-anchor:middle;fill:#000000"
           id="path5894" /><path
           d="m 121.28111,22.558752 q -2.14134,0 -3.81333,-0.733332 -1.672,-0.733333 -2.64,-1.994664 -0.968,-1.290666 -1.08533,-2.874664 h 4.95733 q 0.088,0.850666 0.79199,1.378665 0.704,0.528 1.73067,0.528 0.93866,0 1.43733,-0.352 0.528,-0.381333 0.528,-0.967999 0,-0.703999 -0.73333,-1.026665 -0.73334,-0.352 -2.376,-0.762666 -1.76,-0.410666 -2.93333,-0.850666 -1.17333,-0.469333 -2.024,-1.437331 -0.85066,-0.997333 -0.85066,-2.669331 0,-1.4079981 0.76266,-2.5519968 0.792,-1.1733319 2.288,-1.8479978 1.52533,-0.6746659 3.608,-0.6746659 3.07999,0 4.83999,1.5253316 1.78933,1.5253315 2.05333,4.0479949 h -4.63466 q -0.11733,-0.850665 -0.76267,-1.3493314 -0.616,-0.4986661 -1.64266,-0.4986661 -0.88,0 -1.34933,0.3519996 -0.46934,0.3226659 -0.46934,0.9093319 0,0.704 0.73334,1.055999 0.76266,0.352 2.34666,0.703999 1.81867,0.469333 2.96266,0.938666 1.144,0.439999 1.99467,1.466665 0.88,0.997332 0.90933,2.698664 0,1.437331 -0.82133,2.58133 -0.792,1.114665 -2.31733,1.759998 -1.496,0.645332 -3.49066,0.645332 z"
           style="font-weight:bold;font-family:Poppins;-inkscape-font-specification:'Poppins Bold';text-align:center;text-anchor:middle;fill:#000000"
           id="path5896" /><path
           d="m 139.20377,10.121433 h -2.69866 v 12.202653 h -5.01599 V 10.121433 h -1.81867 V 5.9561049 h 1.81867 V 5.4867721 q 0,-3.0213299 1.73066,-4.57599477 1.73067,-1.58399818 5.07466,-1.58399818 0.55733,0 0.82133,0.0293333 V 3.6094409 q -1.43733,-0.088 -2.02399,0.4106662 -0.58667,0.4986661 -0.58667,1.7893313 v 0.1466665 h 2.69866 z"
           style="font-weight:bold;font-family:Poppins;-inkscape-font-specification:'Poppins Bold';text-align:center;text-anchor:middle;fill:#000000"
           id="path5898" /><path
           d="m 156.97977,13.876096 q 0,0.703999 -0.088,1.466665 h -11.35199 q 0.11734,1.525331 0.968,2.346664 0.88,0.791999 2.14133,0.791999 1.87734,0 2.61067,-1.583998 h 5.33866 q -0.41067,1.613331 -1.496,2.903996 -1.056,1.290665 -2.66933,2.023998 -1.61333,0.733332 -3.608,0.733332 -2.40533,0 -4.28266,-1.026665 -1.87733,-1.026666 -2.93333,-2.93333 -1.056,-1.906664 -1.056,-4.458662 0,-2.551997 1.02667,-4.4586611 1.056,-1.9066645 2.93333,-2.9333299 1.87733,-1.0266655 4.31199,-1.0266655 2.376,0 4.224,0.9973322 1.848,0.9973322 2.87466,2.84533 1.056,1.8479983 1.056,4.3119953 z m -5.13333,-1.319999 q 0,-1.290665 -0.88,-2.053331 -0.87999,-0.7626655 -2.19999,-0.7626655 -1.26133,0 -2.14133,0.7333325 -0.85067,0.733333 -1.056,2.082664 z"
           style="font-weight:bold;font-family:Poppins;-inkscape-font-specification:'Poppins Bold';text-align:center;text-anchor:middle;fill:#000000"
           id="path5900" /><path
           d="m 164.63574,8.6841017 q 0.88,-1.3493317 2.2,-2.1119975 1.32,-0.7919991 2.93333,-0.7919991 v 5.3093269 h -1.37867 q -1.87733,0 -2.81599,0.821333 -0.93867,0.791999 -0.93867,2.815996 v 7.597325 h -5.01599 V 5.9561049 h 5.01599 z"
           style="font-weight:bold;font-family:Poppins;-inkscape-font-specification:'Poppins Bold';text-align:center;text-anchor:middle;fill:#000000"
           id="path5902" /><path
           d="m 177.19037,8.6841017 q 0.88,-1.3493317 2.2,-2.1119975 1.32,-0.7919991 2.93333,-0.7919991 v 5.3093269 h -1.37866 q -1.87733,0 -2.816,0.821333 -0.93867,0.791999 -0.93867,2.815996 v 7.597325 h -5.01599 V 5.9561049 h 5.01599 z"
           style="font-weight:bold;font-family:Poppins;-inkscape-font-specification:'Poppins Bold';text-align:center;text-anchor:middle;fill:#000000"
           id="path5904" /><path
           d="m 200.15833,13.876096 q 0,0.703999 -0.088,1.466665 h -11.35199 q 0.11734,1.525331 0.968,2.346664 0.88,0.791999 2.14133,0.791999 1.87733,0 2.61067,-1.583998 h 5.33866 q -0.41067,1.613331 -1.496,2.903996 -1.056,1.290665 -2.66933,2.023998 -1.61333,0.733332 -3.608,0.733332 -2.40533,0 -4.28266,-1.026665 -1.87733,-1.026666 -2.93333,-2.93333 -1.056,-1.906664 -1.056,-4.458662 0,-2.551997 1.02667,-4.4586611 1.056,-1.9066645 2.93333,-2.9333299 1.87733,-1.0266655 4.31199,-1.0266655 2.376,0 4.224,0.9973322 1.848,0.9973322 2.87466,2.84533 1.056,1.8479983 1.056,4.3119953 z M 195.025,12.556097 q 0,-1.290665 -0.88,-2.053331 -0.88,-0.7626655 -2.19999,-0.7626655 -1.26134,0 -2.14134,0.7333325 -0.85066,0.733333 -1.05599,2.082664 z"
           style="font-weight:bold;font-family:Poppins;-inkscape-font-specification:'Poppins Bold';text-align:center;text-anchor:middle;fill:#000000"
           id="path5906" /><path
           d="m 201.80097,14.110762 q 0,-2.522664 0.93867,-4.4293281 0.968,-1.9066645 2.61066,-2.9333299 1.64267,-1.0266655 3.66666,-1.0266655 1.61334,0 2.93333,0.6746659 1.34934,0.6746659 2.112,1.8186645 V 0.61744434 h 5.016 V 22.324086 h -5.016 v -2.346664 q -0.704,1.173332 -2.024,1.877331 -1.29066,0.703999 -3.02133,0.703999 -2.02399,0 -3.66666,-1.026665 -1.64266,-1.055999 -2.61066,-2.962663 -0.93867,-1.935998 -0.93867,-4.458662 z m 12.26132,0.02933 q 0,-1.877331 -1.056,-2.962663 -1.02666,-1.085332 -2.52266,-1.085332 -1.496,0 -2.552,1.085332 -1.02666,1.055999 -1.02666,2.93333 0,1.877331 1.02666,2.991997 1.056,1.085332 2.552,1.085332 1.496,0 2.52266,-1.085332 1.056,-1.085332 1.056,-2.962664 z"
           style="font-weight:bold;font-family:Poppins;-inkscape-font-specification:'Poppins Bold';text-align:center;text-anchor:middle;fill:#000000"
           id="path5908" /><path
           d="m 98.811817,55.832404 v 4.253328 H 96.25982 q -2.727997,0 -4.253328,-1.319998 Q 90.48116,57.416402 90.48116,54.395072 V 47.88308 h -1.994664 v -4.165329 h 1.994664 v -3.989329 h 5.015994 v 3.989329 h 3.28533 v 4.165329 h -3.28533 v 6.570659 q 0,0.733332 0.352,1.055999 0.352,0.322666 1.173332,0.322666 z"
           style="font-weight:bold;font-family:Poppins;-inkscape-font-specification:'Poppins Bold';text-align:center;text-anchor:middle;fill:#000000"
           id="path5910" /><path
           d="m 109.04914,60.320399 q -2.40533,0 -4.34133,-1.026666 -1.90666,-1.026665 -3.02133,-2.93333 -1.08533,-1.906664 -1.08533,-4.458661 0,-2.522664 1.11467,-4.429329 1.11466,-1.935997 3.05066,-2.962663 1.936,-1.026665 4.34133,-1.026665 2.40533,0 4.34133,1.026665 1.936,1.026666 3.05066,2.962663 1.11467,1.906665 1.11467,4.429329 0,2.522664 -1.144,4.458661 -1.11467,1.906665 -3.08,2.93333 -1.936,1.026666 -4.34133,1.026666 z m 0,-4.341329 q 1.43733,0 2.43467,-1.055998 1.02666,-1.055999 1.02666,-3.02133 0,-1.965331 -0.99733,-3.02133 -0.968,-1.055999 -2.40533,-1.055999 -1.46667,0 -2.43466,1.055999 -0.968,1.026665 -0.968,3.02133 0,1.965331 0.93866,3.02133 0.968,1.055998 2.40533,1.055998 z"
           style="font-weight:bold;font-family:Poppins;-inkscape-font-specification:'Poppins Bold';text-align:center;text-anchor:middle;fill:#000000"
           id="path5912" /><path
           d="m 143.22241,43.717751 -10.26666,24.141306 h -5.39732 l 3.75466,-8.330657 -6.65866,-15.810649 h 5.60266 l 3.784,10.237322 3.75466,-10.237322 z"
           style="font-weight:bold;font-family:Poppins;-inkscape-font-specification:'Poppins Bold';text-align:center;text-anchor:middle;fill:#000000"
           id="path5914" /><path
           d="m 152.49173,60.320399 q -2.40533,0 -4.34133,-1.026666 -1.90666,-1.026665 -3.02133,-2.93333 -1.08533,-1.906664 -1.08533,-4.458661 0,-2.522664 1.11466,-4.429329 1.11467,-1.935997 3.05067,-2.962663 1.93599,-1.026665 4.34133,-1.026665 2.40533,0 4.34132,1.026665 1.936,1.026666 3.05067,2.962663 1.11466,1.906665 1.11466,4.429329 0,2.522664 -1.144,4.458661 -1.11466,1.906665 -3.07999,2.93333 -1.936,1.026666 -4.34133,1.026666 z m 0,-4.341329 q 1.43733,0 2.43466,-1.055998 1.02667,-1.055999 1.02667,-3.02133 0,-1.965331 -0.99733,-3.02133 -0.968,-1.055999 -2.40533,-1.055999 -1.46667,0 -2.43467,1.055999 -0.968,1.026665 -0.968,3.02133 0,1.965331 0.93867,3.02133 0.968,1.055998 2.40533,1.055998 z"
           style="font-weight:bold;font-family:Poppins;-inkscape-font-specification:'Poppins Bold';text-align:center;text-anchor:middle;fill:#000000"
           id="path5916" /><path
           d="m 179.889,43.717751 v 16.367981 h -5.01599 v -2.22933 q -0.76267,1.085332 -2.08267,1.759998 -1.29066,0.645332 -2.87466,0.645332 -1.87733,0 -3.31466,-0.821332 -1.43733,-0.850666 -2.22933,-2.434664 -0.792,-1.583998 -0.792,-3.725329 v -9.562656 h 4.98666 v 8.88799 q 0,1.642665 0.85066,2.551997 0.85067,0.909332 2.288,0.909332 1.46667,0 2.31733,-0.909332 0.85067,-0.909332 0.85067,-2.551997 v -8.88799 z"
           style="font-weight:bold;font-family:Poppins;-inkscape-font-specification:'Poppins Bold';text-align:center;text-anchor:middle;fill:#000000"
           id="path5918" /></g><g
         aria-label="You become the owner"
         transform="matrix(3.125,0,0,3.125,1112.6186,917.73932)"
         id="text8832-5-9-5"
         style="font-size:29.3333px;white-space:pre;shape-inside:url(#rect8834-2-4-9);display:inline;fill:#5f6073"><path
           d="m 75.29722,-36.029537 -7.127992,13.786651 v 6.805326 h -5.015994 v -6.805326 l -7.127992,-13.786651 h 5.69066 l 3.989329,8.623991 3.959996,-8.623991 z"
           style="font-weight:bold;font-family:Poppins;-inkscape-font-specification:'Poppins Bold';text-align:center;text-anchor:middle;fill:#000000"
           id="path5921" /><path
           d="m 84.771862,-15.202894 q -2.40533,0 -4.341328,-1.026665 -1.906664,-1.026666 -3.02133,-2.93333 -1.085332,-1.906665 -1.085332,-4.458662 0,-2.522664 1.114666,-4.429328 1.114665,-1.935998 3.050663,-2.962663 1.935998,-1.026666 4.341328,-1.026666 2.405331,0 4.341328,1.026666 1.935998,1.026665 3.050664,2.962663 1.114665,1.906664 1.114665,4.429328 0,2.522664 -1.143999,4.458662 -1.114665,1.906664 -3.079996,2.93333 -1.935998,1.026665 -4.341329,1.026665 z m 0,-4.341328 q 1.437332,0 2.434664,-1.055999 1.026666,-1.055999 1.026666,-3.02133 0,-1.965331 -0.997332,-3.02133 -0.967999,-1.055998 -2.405331,-1.055998 -1.466665,0 -2.434664,1.055998 -0.967999,1.026666 -0.967999,3.02133 0,1.965331 0.938666,3.02133 0.967999,1.055999 2.40533,1.055999 z"
           style="font-weight:bold;font-family:Poppins;-inkscape-font-specification:'Poppins Bold';text-align:center;text-anchor:middle;fill:#000000"
           id="path5923" /><path
           d="m 112.16914,-31.805541 v 16.367981 h -5.016 v -2.229331 q -0.76266,1.085332 -2.08266,1.759998 -1.29067,0.645333 -2.87466,0.645333 -1.87734,0 -3.314667,-0.821333 -1.437331,-0.850665 -2.22933,-2.434664 -0.792,-1.583998 -0.792,-3.725329 v -9.562655 h 4.986657 v 8.887989 q 0,1.642665 0.85067,2.551997 0.85067,0.909333 2.288,0.909333 1.46666,0 2.31733,-0.909333 0.85066,-0.909332 0.85066,-2.551997 v -8.887989 z"
           style="font-weight:bold;font-family:Poppins;-inkscape-font-specification:'Poppins Bold';text-align:center;text-anchor:middle;fill:#000000"
           id="path5925" /><path
           d="m 127.01178,-29.488211 q 0.704,-1.143998 2.02399,-1.847998 1.32,-0.703999 3.02133,-0.703999 2.024,0 3.66667,1.026666 1.64266,1.026665 2.58133,2.93333 0.968,1.906664 0.968,4.429328 0,2.522664 -0.968,4.458661 -0.93867,1.906665 -2.58133,2.962664 -1.64267,1.026665 -3.66667,1.026665 -1.73066,0 -3.02133,-0.674666 -1.29066,-0.703999 -2.02399,-1.847998 v 2.287998 h -5.016 v -21.706642 h 5.016 z m 7.15732,5.837327 q 0,-1.877331 -1.056,-2.93333 -1.02666,-1.085332 -2.55199,-1.085332 -1.496,0 -2.552,1.085332 -1.02667,1.085332 -1.02667,2.962663 0,1.877331 1.02667,2.962663 1.056,1.085333 2.552,1.085333 1.49599,0 2.55199,-1.085333 1.056,-1.114665 1.056,-2.991996 z"
           style="font-weight:bold;font-family:Poppins;-inkscape-font-specification:'Poppins Bold';text-align:center;text-anchor:middle;fill:#000000"
           id="path5927" /><path
           d="m 157.34243,-23.88555 q 0,0.703999 -0.088,1.466664 h -11.35198 q 0.11733,1.525332 0.968,2.346664 0.87999,0.792 2.14133,0.792 1.87733,0 2.61066,-1.583999 h 5.33866 q -0.41067,1.613332 -1.496,2.903997 -1.056,1.290665 -2.66933,2.023998 -1.61333,0.733332 -3.60799,0.733332 -2.40533,0 -4.28267,-1.026665 -1.87733,-1.026666 -2.93333,-2.93333 -1.05599,-1.906665 -1.05599,-4.458662 0,-2.551997 1.02666,-4.458661 1.056,-1.906665 2.93333,-2.93333 1.87733,-1.026666 4.312,-1.026666 2.37599,0 4.22399,0.997332 1.848,0.997333 2.87466,2.84533 1.056,1.847998 1.056,4.311996 z m -5.13332,-1.319999 q 0,-1.290665 -0.88,-2.053331 -0.88,-0.762666 -2.2,-0.762666 -1.26133,0 -2.14133,0.733333 -0.85067,0.733332 -1.056,2.082664 z"
           style="font-weight:bold;font-family:Poppins;-inkscape-font-specification:'Poppins Bold';text-align:center;text-anchor:middle;fill:#000000"
           id="path5929" /><path
           d="m 158.98508,-23.621551 q 0,-2.551997 1.02666,-4.458661 1.056,-1.906665 2.904,-2.93333 1.87733,-1.026666 4.28266,-1.026666 3.08,0 5.13333,1.613332 2.08266,1.613331 2.72799,4.546661 h -5.33866 q -0.67466,-1.877331 -2.61066,-1.877331 -1.37867,0 -2.2,1.085332 -0.82133,1.055999 -0.82133,3.050663 0,1.994665 0.82133,3.079997 0.82133,1.055998 2.2,1.055998 1.936,0 2.61066,-1.877331 h 5.33866 q -0.64533,2.874664 -2.72799,4.517328 -2.08267,1.642665 -5.13333,1.642665 -2.40533,0 -4.28266,-1.026665 -1.848,-1.026666 -2.904,-2.93333 -1.02666,-1.906665 -1.02666,-4.458662 z"
           style="font-weight:bold;font-family:Poppins;-inkscape-font-specification:'Poppins Bold';text-align:center;text-anchor:middle;fill:#000000"
           id="path5931" /><path
           d="m 185.1797,-15.202894 q -2.40533,0 -4.34133,-1.026665 -1.90666,-1.026666 -3.02133,-2.93333 -1.08533,-1.906665 -1.08533,-4.458662 0,-2.522664 1.11467,-4.429328 1.11466,-1.935998 3.05066,-2.962663 1.936,-1.026666 4.34133,-1.026666 2.40533,0 4.34133,1.026666 1.93599,1.026665 3.05066,2.962663 1.11466,1.906664 1.11466,4.429328 0,2.522664 -1.14399,4.458662 -1.11467,1.906664 -3.08,2.93333 -1.936,1.026665 -4.34133,1.026665 z m 0,-4.341328 q 1.43733,0 2.43467,-1.055999 1.02666,-1.055999 1.02666,-3.02133 0,-1.965331 -0.99733,-3.02133 -0.968,-1.055998 -2.40533,-1.055998 -1.46667,0 -2.43467,1.055998 -0.96799,1.026666 -0.96799,3.02133 0,1.965331 0.93866,3.02133 0.968,1.055999 2.40533,1.055999 z"
           style="font-weight:bold;font-family:Poppins;-inkscape-font-specification:'Poppins Bold';text-align:center;text-anchor:middle;fill:#000000"
           id="path5933" /><path
           d="m 217.29964,-31.981541 q 3.05066,0 4.83999,1.847998 1.81867,1.847998 1.81867,5.133327 v 9.562656 h -4.98666 v -8.88799 q 0,-1.583998 -0.85067,-2.434664 -0.82133,-0.879999 -2.28799,-0.879999 -1.46667,0 -2.31734,0.879999 -0.82133,0.850666 -0.82133,2.434664 v 8.88799 h -4.98666 v -8.88799 q 0,-1.583998 -0.85066,-2.434664 -0.82134,-0.879999 -2.288,-0.879999 -1.46667,0 -2.31733,0.879999 -0.82134,0.850666 -0.82134,2.434664 v 8.88799 h -5.01599 v -16.367981 h 5.01599 v 2.053331 q 0.76267,-1.026666 1.99467,-1.613332 1.232,-0.615999 2.78666,-0.615999 1.848,0 3.28533,0.791999 1.46667,0.791999 2.288,2.258664 0.85067,-1.349332 2.31733,-2.199998 1.46667,-0.850665 3.19733,-0.850665 z"
           style="font-weight:bold;font-family:Poppins;-inkscape-font-specification:'Poppins Bold';text-align:center;text-anchor:middle;fill:#000000"
           id="path5935" /><path
           d="m 242.90761,-23.88555 q 0,0.703999 -0.088,1.466664 h -11.35199 q 0.11734,1.525332 0.968,2.346664 0.88,0.792 2.14133,0.792 1.87734,0 2.61067,-1.583999 h 5.33866 q -0.41067,1.613332 -1.496,2.903997 -1.056,1.290665 -2.66933,2.023998 -1.61333,0.733332 -3.608,0.733332 -2.40533,0 -4.28266,-1.026665 -1.87733,-1.026666 -2.93333,-2.93333 -1.056,-1.906665 -1.056,-4.458662 0,-2.551997 1.02667,-4.458661 1.056,-1.906665 2.93333,-2.93333 1.87733,-1.026666 4.31199,-1.026666 2.376,0 4.224,0.997332 1.848,0.997333 2.87466,2.84533 1.056,1.847998 1.056,4.311996 z m -5.13333,-1.319999 q 0,-1.290665 -0.88,-2.053331 -0.87999,-0.762666 -2.19999,-0.762666 -1.26133,0 -2.14133,0.733333 -0.85067,0.733332 -1.056,2.082664 z"
           style="font-weight:bold;font-family:Poppins;-inkscape-font-specification:'Poppins Bold';text-align:center;text-anchor:middle;fill:#000000"
           id="path5937" /><path
           d="m 85.490548,18.070758 v 4.253328 h -2.551997 q -2.727997,0 -4.253328,-1.319998 -1.525332,-1.349332 -1.525332,-4.370662 V 10.121433 H 75.165227 V 5.9561049 h 1.994664 V 1.9667761 h 5.015994 v 3.9893288 h 3.28533 v 4.1653281 h -3.28533 v 6.57066 q 0,0.733332 0.352,1.055998 0.351999,0.322667 1.173332,0.322667 z"
           style="font-weight:bold;font-family:Poppins;-inkscape-font-specification:'Poppins Bold';text-align:center;text-anchor:middle;fill:#000000"
           id="path5939" /><path
           d="m 98.338537,5.7801051 q 2.815993,0 4.517333,1.8773312 1.70133,1.8479978 1.70133,5.1039937 v 9.562656 h -4.986664 v -8.88799 q 0,-1.642665 -0.850666,-2.551997 -0.850665,-0.9093321 -2.287997,-0.9093321 -1.437332,0 -2.287997,0.9093321 -0.850666,0.909332 -0.850666,2.551997 v 8.88799 H 88.277216 V 0.61744434 H 93.29321 V 8.1561023 q 0.762666,-1.085332 2.082664,-1.7306646 1.319999,-0.6453326 2.962663,-0.6453326 z"
           style="font-weight:bold;font-family:Poppins;-inkscape-font-specification:'Poppins Bold';text-align:center;text-anchor:middle;fill:#000000"
           id="path5941" /><path
           d="m 123.47717,13.876096 q 0,0.703999 -0.088,1.466665 h -11.35199 q 0.11734,1.525331 0.968,2.346664 0.88,0.791999 2.14133,0.791999 1.87733,0 2.61067,-1.583998 h 5.33866 q -0.41067,1.613331 -1.496,2.903996 -1.056,1.290665 -2.66933,2.023998 -1.61333,0.733332 -3.608,0.733332 -2.40533,0 -4.28266,-1.026665 -1.87733,-1.026666 -2.93333,-2.93333 -1.056,-1.906664 -1.056,-4.458662 0,-2.551997 1.02667,-4.4586611 1.056,-1.9066645 2.93333,-2.9333299 1.87733,-1.0266655 4.31199,-1.0266655 2.376,0 4.224,0.9973322 1.848,0.9973322 2.87466,2.84533 1.056,1.8479983 1.056,4.3119953 z m -5.13333,-1.319999 q 0,-1.290665 -0.88,-2.053331 -0.88,-0.7626655 -2.19999,-0.7626655 -1.26134,0 -2.14134,0.7333325 -0.85066,0.733333 -1.05599,2.082664 z"
           style="font-weight:bold;font-family:Poppins;-inkscape-font-specification:'Poppins Bold';text-align:center;text-anchor:middle;fill:#000000"
           id="path5943" /><path
           d="m 139.78646,22.558752 q -2.40533,0 -4.34133,-1.026665 -1.90667,-1.026666 -3.02133,-2.93333 -1.08533,-1.906664 -1.08533,-4.458662 0,-2.522663 1.11466,-4.4293278 1.11467,-1.9359978 3.05067,-2.9626632 1.93599,-1.0266655 4.34132,-1.0266655 2.40533,0 4.34133,1.0266655 1.936,1.0266654 3.05067,2.9626632 1.11466,1.9066648 1.11466,4.4293278 0,2.522664 -1.144,4.458662 -1.11466,1.906664 -3.07999,2.93333 -1.936,1.026665 -4.34133,1.026665 z m 0,-4.341328 q 1.43733,0 2.43466,-1.055999 1.02667,-1.055998 1.02667,-3.02133 0,-1.965331 -0.99734,-3.021329 -0.96799,-1.055999 -2.40533,-1.055999 -1.46666,0 -2.43466,1.055999 -0.968,1.026665 -0.968,3.021329 0,1.965332 0.93867,3.02133 0.968,1.055999 2.40533,1.055999 z"
           style="font-weight:bold;font-family:Poppins;-inkscape-font-specification:'Poppins Bold';text-align:center;text-anchor:middle;fill:#000000"
           id="path5945" /><path
           d="m 174.51706,5.9561049 -4.42933,16.3679811 h -5.544 l -2.58133,-10.618654 -2.66933,10.618654 h -5.51466 L 149.31975,5.9561049 h 5.016 l 2.31733,11.7039861 2.75733,-11.7039861 h 5.30932 l 2.78667,11.6453201 2.28799,-11.6453201 z"
           style="font-weight:bold;font-family:Poppins;-inkscape-font-specification:'Poppins Bold';text-align:center;text-anchor:middle;fill:#000000"
           id="path5947" /><path
           d="m 186.39702,5.7801051 q 2.87467,0 4.576,1.8773312 1.73066,1.8479978 1.73066,5.1039937 v 9.562656 h -4.98666 v -8.88799 q 0,-1.642665 -0.85066,-2.551997 -0.85067,-0.9093321 -2.288,-0.9093321 -1.43733,0 -2.288,0.9093321 -0.85066,0.909332 -0.85066,2.551997 v 8.88799 h -5.016 V 5.9561049 h 5.016 V 8.126769 q 0.76266,-1.085332 2.05333,-1.7013313 1.29066,-0.6453326 2.90399,-0.6453326 z"
           style="font-weight:bold;font-family:Poppins;-inkscape-font-specification:'Poppins Bold';text-align:center;text-anchor:middle;fill:#000000"
           id="path5949" /><path
           d="m 211.62365,13.876096 q 0,0.703999 -0.088,1.466665 h -11.35198 q 0.11733,1.525331 0.968,2.346664 0.88,0.791999 2.14133,0.791999 1.87733,0 2.61066,-1.583998 h 5.33866 q -0.41067,1.613331 -1.496,2.903996 -1.056,1.290665 -2.66933,2.023998 -1.61333,0.733332 -3.60799,0.733332 -2.40533,0 -4.28266,-1.026665 -1.87734,-1.026666 -2.93333,-2.93333 -1.056,-1.906664 -1.056,-4.458662 0,-2.551997 1.02666,-4.4586611 1.056,-1.9066645 2.93333,-2.9333299 1.87733,-1.0266655 4.312,-1.0266655 2.37599,0 4.22399,0.9973322 1.848,0.9973322 2.87467,2.84533 1.05599,1.8479983 1.05599,4.3119953 z m -5.13332,-1.319999 q 0,-1.290665 -0.88,-2.053331 -0.88,-0.7626655 -2.2,-0.7626655 -1.26133,0 -2.14133,0.7333325 -0.85067,0.733333 -1.056,2.082664 z"
           style="font-weight:bold;font-family:Poppins;-inkscape-font-specification:'Poppins Bold';text-align:center;text-anchor:middle;fill:#000000"
           id="path5951" /><path
           d="m 219.27962,8.6841017 q 0.88,-1.3493317 2.2,-2.1119975 1.32,-0.7919991 2.93333,-0.7919991 v 5.3093269 h -1.37866 q -1.87734,0 -2.816,0.821333 -0.93867,0.791999 -0.93867,2.815996 v 7.597325 h -5.01599 V 5.9561049 h 5.01599 z"
           style="font-weight:bold;font-family:Poppins;-inkscape-font-specification:'Poppins Bold';text-align:center;text-anchor:middle;fill:#000000"
           id="path5953" /></g><g
         aria-label="BEP20 compatible"
         transform="matrix(3.125,0,0,3.125,1518.8686,1855.2393)"
         id="text8832-5-9-5-3"
         style="font-size:29.3333px;white-space:pre;shape-inside:url(#rect8834-2-4-9-4);display:inline;fill:#5f6073"><path
           d="m 119.37044,-25.997548 q 1.78933,0.381333 2.87466,1.789331 1.08533,1.378665 1.08533,3.167997 0,2.58133 -1.81866,4.106662 -1.78933,1.495998 -5.016,1.495998 h -9.59199 v -20.591977 h 9.26933 q 3.13866,0 4.89866,1.437332 1.78933,1.437332 1.78933,3.901329 0,1.818665 -0.968,3.02133 -0.93867,1.202665 -2.52266,1.671998 z m -7.45066,-1.701331 h 3.28533 q 1.232,0 1.87733,-0.528 0.67466,-0.557333 0.67466,-1.613331 0,-1.055999 -0.67466,-1.613332 -0.64533,-0.557332 -1.87733,-0.557332 h -3.28533 z m 3.69599,8.213323 q 1.26134,0 1.936,-0.557332 0.704,-0.586666 0.704,-1.671998 0,-1.085332 -0.73333,-1.701332 -0.704,-0.615999 -1.96533,-0.615999 h -3.63733 v 4.546661 z"
           style="font-weight:bold;font-family:Poppins;-inkscape-font-specification:'Poppins Bold';text-align:center;text-anchor:middle;fill:#000000"
           id="path5956" /><path
           d="m 131.25043,-32.010874 v 4.165328 h 6.71733 v 3.871996 h -6.71733 v 4.517328 h 7.59733 v 4.018662 h -12.61332 v -20.591977 h 12.61332 v 4.018663 z"
           style="font-weight:bold;font-family:Poppins;-inkscape-font-specification:'Poppins Bold';text-align:center;text-anchor:middle;fill:#000000"
           id="path5958" /><path
           d="m 157.79708,-29.400211 q 0,1.789331 -0.82133,3.28533 -0.82133,1.466665 -2.52267,2.375997 -1.70133,0.909332 -4.22399,0.909332 h -3.10933 v 7.391992 h -5.01599 v -20.591977 h 8.12532 q 2.464,0 4.16533,0.850666 1.70133,0.850666 2.55199,2.346664 0.85067,1.495998 0.85067,3.431996 z m -7.94932,2.581331 q 1.43733,0 2.14133,-0.674666 0.704,-0.674666 0.704,-1.906665 0,-1.231998 -0.704,-1.906664 -0.704,-0.674666 -2.14133,-0.674666 h -2.728 v 5.162661 z"
           style="font-weight:bold;font-family:Poppins;-inkscape-font-specification:'Poppins Bold';text-align:center;text-anchor:middle;fill:#000000"
           id="path5960" /><path
           d="m 159.73309,-19.456222 q 0.99733,-0.791999 0.90933,-0.733333 2.87467,-2.375997 4.51733,-3.901329 1.672,-1.525331 2.816,-3.197329 1.144,-1.671998 1.144,-3.255997 0,-1.202665 -0.55733,-1.877331 -0.55734,-0.674666 -1.672,-0.674666 -1.11467,0 -1.76,0.850666 -0.616,0.821332 -0.616,2.346664 h -4.83999 q 0.0587,-2.49333 1.05599,-4.165328 1.02667,-1.671999 2.66934,-2.463998 1.67199,-0.791999 3.69599,-0.791999 3.49066,0 5.25066,1.789332 1.78933,1.789331 1.78933,4.663994 0,3.138663 -2.14133,5.837327 -2.14133,2.66933 -5.45599,5.221327 h 7.91999 v 4.077329 h -14.72532 z"
           style="font-weight:bold;font-family:Poppins;-inkscape-font-specification:'Poppins Bold';text-align:center;text-anchor:middle;fill:#000000"
           id="path5962" /><path
           d="m 176.65838,-26.437548 q 0,-5.045327 1.936,-7.949324 1.96533,-2.903996 6.30666,-2.903996 4.34133,0 6.27733,2.903996 1.96533,2.903997 1.96533,7.949324 0,5.103995 -1.96533,8.007991 -1.936,2.903997 -6.27733,2.903997 -4.34133,0 -6.30666,-2.903997 -1.936,-2.903996 -1.936,-8.007991 z m 11.55732,0 q 0,-2.962663 -0.64533,-4.546661 -0.64533,-1.613331 -2.66933,-1.613331 -2.024,0 -2.66933,1.613331 -0.64533,1.583998 -0.64533,4.546661 0,1.994665 0.23466,3.314663 0.23467,1.290665 0.93867,2.111998 0.73333,0.791999 2.14133,0.791999 1.408,0 2.112,-0.791999 0.73333,-0.821333 0.968,-2.111998 0.23466,-1.319998 0.23466,-3.314663 z"
           style="font-weight:bold;font-family:Poppins;-inkscape-font-specification:'Poppins Bold';text-align:center;text-anchor:middle;fill:#000000"
           id="path5964" /><path
           d="m 63.329169,14.140095 q 0,-2.551997 1.026665,-4.4586611 1.055999,-1.9066645 2.903997,-2.9333299 1.877331,-1.0266655 4.282662,-1.0266655 3.079996,0 5.133327,1.6133315 2.082664,1.6133314 2.727997,4.546661 h -5.33866 Q 73.390491,10.0041 71.454493,10.0041 q -1.378665,0 -2.199998,1.085332 -0.821332,1.055999 -0.821332,3.050663 0,1.994665 0.821332,3.079997 0.821333,1.055999 2.199998,1.055999 1.935998,0 2.610664,-1.877331 h 5.33866 q -0.645333,2.874663 -2.727997,4.517328 -2.082664,1.642664 -5.133327,1.642664 -2.405331,0 -4.282662,-1.026665 -1.847998,-1.026666 -2.903997,-2.93333 -1.026665,-1.906664 -1.026665,-4.458662 z"
           style="font-weight:bold;font-family:Poppins;-inkscape-font-specification:'Poppins Bold';text-align:center;text-anchor:middle;fill:#000000"
           id="path5966" /><path
           d="m 89.523793,22.558752 q -2.405331,0 -4.341329,-1.026665 -1.906664,-1.026666 -3.02133,-2.93333 -1.085332,-1.906664 -1.085332,-4.458662 0,-2.522663 1.114666,-4.4293278 1.114665,-1.9359978 3.050663,-2.9626632 1.935998,-1.0266655 4.341328,-1.0266655 2.405331,0 4.341329,1.0266655 1.935997,1.0266654 3.050663,2.9626632 1.114665,1.9066648 1.114665,4.4293278 0,2.522664 -1.143999,4.458662 -1.114665,1.906664 -3.079996,2.93333 -1.935998,1.026665 -4.341328,1.026665 z m 0,-4.341328 q 1.437331,0 2.434664,-1.055999 1.026665,-1.055998 1.026665,-3.02133 0,-1.965331 -0.997332,-3.021329 -0.967999,-1.055999 -2.405331,-1.055999 -1.466665,0 -2.434664,1.055999 -0.967998,1.026665 -0.967998,3.021329 0,1.965332 0.938665,3.02133 0.967999,1.055999 2.405331,1.055999 z"
           style="font-weight:bold;font-family:Poppins;-inkscape-font-specification:'Poppins Bold';text-align:center;text-anchor:middle;fill:#000000"
           id="path5968" /><path
           d="m 121.64373,5.7801051 q 3.05066,0 4.83999,1.8479979 1.81867,1.8479978 1.81867,5.133327 v 9.562656 h -4.98666 v -8.88799 q 0,-1.583998 -0.85067,-2.434664 -0.82133,-0.879999 -2.288,-0.879999 -1.46666,0 -2.31733,0.879999 -0.82133,0.850666 -0.82133,2.434664 v 8.88799 h -4.98666 v -8.88799 q 0,-1.583998 -0.85067,-2.434664 -0.82133,-0.879999 -2.28799,-0.879999 -1.46667,0 -2.31733,0.879999 -0.82134,0.850666 -0.82134,2.434664 v 8.88799 h -5.01599 V 5.9561049 h 5.01599 v 2.0533309 q 0.76267,-1.0266654 1.99467,-1.6133314 1.232,-0.6159993 2.78666,-0.6159993 1.848,0 3.28533,0.7919991 1.46667,0.7919991 2.288,2.258664 0.85066,-1.3493317 2.31733,-2.1999974 1.46666,-0.8506657 3.19733,-0.8506657 z"
           style="font-weight:bold;font-family:Poppins;-inkscape-font-specification:'Poppins Bold';text-align:center;text-anchor:middle;fill:#000000"
           id="path5970" /><path
           d="m 136.83838,8.2734355 q 0.73333,-1.1439986 2.02399,-1.8479978 1.29067,-0.7039992 3.02133,-0.7039992 2.024,0 3.66667,1.0266655 1.64266,1.0266654 2.58133,2.9333299 0.96799,1.9066641 0.96799,4.4293281 0,2.522664 -0.96799,4.458662 -0.93867,1.906664 -2.58133,2.962663 -1.64267,1.026665 -3.66667,1.026665 -1.70133,0 -3.02133,-0.703999 -1.29066,-0.703999 -2.02399,-1.818664 v 10.090655 h -5.016 V 5.9561049 h 5.016 z m 7.15732,5.8373265 q 0,-1.877331 -1.056,-2.93333 -1.02666,-1.085332 -2.552,-1.085332 -1.49599,0 -2.55199,1.085332 -1.02667,1.085332 -1.02667,2.962663 0,1.877332 1.02667,2.962664 1.056,1.085332 2.55199,1.085332 1.496,0 2.552,-1.085332 1.056,-1.114666 1.056,-2.991997 z"
           style="font-weight:bold;font-family:Poppins;-inkscape-font-specification:'Poppins Bold';text-align:center;text-anchor:middle;fill:#000000"
           id="path5972" /><path
           d="m 150.74239,14.110762 q 0,-2.522664 0.93867,-4.4293281 0.968,-1.9066645 2.61066,-2.9333299 1.64267,-1.0266655 3.66666,-1.0266655 1.73067,0 3.02133,0.7039992 1.32,0.7039992 2.024,1.8479978 V 5.9561049 h 5.016 V 22.324086 h -5.016 v -2.317331 q -0.73333,1.143999 -2.05333,1.847998 -1.29066,0.703999 -3.02133,0.703999 -1.99466,0 -3.63733,-1.026665 -1.64266,-1.055999 -2.61066,-2.962663 -0.93867,-1.935998 -0.93867,-4.458662 z m 12.26132,0.02933 q 0,-1.877331 -1.056,-2.962663 -1.02666,-1.085332 -2.52266,-1.085332 -1.496,0 -2.552,1.085332 -1.02666,1.055999 -1.02666,2.93333 0,1.877331 1.02666,2.991997 1.056,1.085332 2.552,1.085332 1.496,0 2.52266,-1.085332 1.056,-1.085332 1.056,-2.962664 z"
           style="font-weight:bold;font-family:Poppins;-inkscape-font-specification:'Poppins Bold';text-align:center;text-anchor:middle;fill:#000000"
           id="path5974" /><path
           d="m 180.77971,18.070758 v 4.253328 h -2.552 q -2.728,0 -4.25333,-1.319998 -1.52533,-1.349332 -1.52533,-4.370662 v -6.511993 h -1.99466 V 5.9561049 h 1.99466 V 1.9667761 h 5.016 v 3.9893288 h 3.28533 v 4.1653281 h -3.28533 v 6.57066 q 0,0.733332 0.352,1.055998 0.35199,0.322667 1.17333,0.322667 z"
           style="font-weight:bold;font-family:Poppins;-inkscape-font-specification:'Poppins Bold';text-align:center;text-anchor:middle;fill:#000000"
           id="path5976" /><path
           d="m 186.08904,4.2547735 q -1.32,0 -2.17066,-0.7626658 -0.82134,-0.7919991 -0.82134,-1.9359978 0,-1.17333196 0.82134,-1.93599775 0.85066,-0.79199905 2.17066,-0.79199905 1.29067,0 2.112,0.79199905 0.85066,0.76266579 0.85066,1.93599775 0,1.1439987 -0.85066,1.9359978 -0.82133,0.7626658 -2.112,0.7626658 z m 2.49333,1.7013314 V 22.324086 h -5.01599 V 5.9561049 Z"
           style="font-weight:bold;font-family:Poppins;-inkscape-font-specification:'Poppins Bold';text-align:center;text-anchor:middle;fill:#000000"
           id="path5978" /><path
           d="m 197.2357,8.2734355 q 0.704,-1.1439986 2.024,-1.8479978 1.32,-0.7039992 3.02133,-0.7039992 2.02399,0 3.66666,1.0266655 1.64266,1.0266654 2.58133,2.9333299 0.968,1.9066641 0.968,4.4293281 0,2.522664 -0.968,4.458662 -0.93867,1.906664 -2.58133,2.962663 -1.64267,1.026665 -3.66666,1.026665 -1.73067,0 -3.02133,-0.674665 -1.29067,-0.704 -2.024,-1.847998 v 2.287997 h -5.016 V 0.61744434 h 5.016 z m 7.15732,5.8373265 q 0,-1.877331 -1.05599,-2.93333 -1.02667,-1.085332 -2.552,-1.085332 -1.496,0 -2.552,1.085332 -1.02666,1.085332 -1.02666,2.962663 0,1.877332 1.02666,2.962664 1.056,1.085332 2.552,1.085332 1.496,0 2.552,-1.085332 1.05599,-1.114666 1.05599,-2.991997 z"
           style="font-weight:bold;font-family:Poppins;-inkscape-font-specification:'Poppins Bold';text-align:center;text-anchor:middle;fill:#000000"
           id="path5980" /><path
           d="M 217.15304,0.61744434 V 22.324086 h -5.01599 V 0.61744434 Z"
           style="font-weight:bold;font-family:Poppins;-inkscape-font-specification:'Poppins Bold';text-align:center;text-anchor:middle;fill:#000000"
           id="path5982" /><path
           d="m 236.21968,13.876096 q 0,0.703999 -0.088,1.466665 H 224.7797 q 0.11733,1.525331 0.968,2.346664 0.87999,0.791999 2.14133,0.791999 1.87733,0 2.61066,-1.583998 h 5.33866 q -0.41067,1.613331 -1.496,2.903996 -1.056,1.290665 -2.66933,2.023998 -1.61333,0.733332 -3.60799,0.733332 -2.40533,0 -4.28267,-1.026665 -1.87733,-1.026666 -2.93333,-2.93333 -1.05599,-1.906664 -1.05599,-4.458662 0,-2.551997 1.02666,-4.4586611 1.056,-1.9066645 2.93333,-2.9333299 1.87733,-1.0266655 4.312,-1.0266655 2.37599,0 4.22399,0.9973322 1.848,0.9973322 2.87467,2.84533 1.05599,1.8479983 1.05599,4.3119953 z m -5.13332,-1.319999 q 0,-1.290665 -0.88,-2.053331 -0.88,-0.7626655 -2.2,-0.7626655 -1.26133,0 -2.14133,0.7333325 -0.85067,0.733333 -1.056,2.082664 z"
           style="font-weight:bold;font-family:Poppins;-inkscape-font-specification:'Poppins Bold';text-align:center;text-anchor:middle;fill:#000000"
           id="path5984" /></g><g
         aria-label="Zero profit"
         transform="matrix(3.125,0,0,3.125,3050.1186,1917.7393)"
         id="text8832-5-9-5-3-7"
         style="font-size:29.3333px;white-space:pre;shape-inside:url(#rect8834-2-4-9-4-3);display:inline;fill:#5f6073"><path
           d="m 79.286514,-19.544222 h 8.858656 v 4.106662 H 73.595854 v -3.813329 l 8.79999,-12.671986 h -8.79999 v -4.106662 H 88.14517 v 3.813329 z"
           style="font-weight:bold;font-family:Poppins;-inkscape-font-specification:'Poppins Bold';text-align:center;text-anchor:middle;fill:#fd3259"
           id="path5987" /><path
           d="m 106.85983,-23.88555 q 0,0.703999 -0.088,1.466664 H 95.419848 q 0.117333,1.525332 0.967999,2.346664 0.879999,0.792 2.141331,0.792 1.877332,0 2.610662,-1.583999 h 5.33866 q -0.41066,1.613332 -1.496,2.903997 -1.056,1.290665 -2.66933,2.023998 -1.61333,0.733332 -3.607992,0.733332 -2.405331,0 -4.282662,-1.026665 -1.877331,-1.026666 -2.93333,-2.93333 -1.055999,-1.906665 -1.055999,-4.458662 0,-2.551997 1.026666,-4.458661 1.055998,-1.906665 2.93333,-2.93333 1.877331,-1.026666 4.311995,-1.026666 2.375992,0 4.223992,0.997332 1.848,0.997333 2.87467,2.84533 1.05599,1.847998 1.05599,4.311996 z m -5.13332,-1.319999 q 0,-1.290665 -0.88,-2.053331 -0.88,-0.762666 -2.199999,-0.762666 -1.261332,0 -2.141331,0.733333 -0.850666,0.733332 -1.055999,2.082664 z"
           style="font-weight:bold;font-family:Poppins;-inkscape-font-specification:'Poppins Bold';text-align:center;text-anchor:middle;fill:#fd3259"
           id="path5989" /><path
           d="m 114.5158,-29.077545 q 0.88,-1.349331 2.2,-2.111997 1.32,-0.791999 2.93333,-0.791999 v 5.309327 h -1.37866 q -1.87734,0 -2.816,0.821332 -0.93867,0.792 -0.93867,2.815997 v 7.597325 h -5.01599 v -16.367981 h 5.01599 z"
           style="font-weight:bold;font-family:Poppins;-inkscape-font-specification:'Poppins Bold';text-align:center;text-anchor:middle;fill:#fd3259"
           id="path5991" /><path
           d="m 129.50511,-15.202894 q -2.40534,0 -4.34133,-1.026665 -1.90667,-1.026666 -3.02133,-2.93333 -1.08533,-1.906665 -1.08533,-4.458662 0,-2.522664 1.11466,-4.429328 1.11467,-1.935998 3.05066,-2.962663 1.936,-1.026666 4.34133,-1.026666 2.40533,0 4.34133,1.026666 1.936,1.026665 3.05066,2.962663 1.11467,1.906664 1.11467,4.429328 0,2.522664 -1.144,4.458662 -1.11467,1.906664 -3.08,2.93333 -1.93599,1.026665 -4.34132,1.026665 z m 0,-4.341328 q 1.43733,0 2.43466,-1.055999 1.02666,-1.055999 1.02666,-3.02133 0,-1.965331 -0.99733,-3.02133 -0.968,-1.055998 -2.40533,-1.055998 -1.46666,0 -2.43466,1.055998 -0.968,1.026666 -0.968,3.02133 0,1.965331 0.93866,3.02133 0.968,1.055999 2.40534,1.055999 z"
           style="font-weight:bold;font-family:Poppins;-inkscape-font-specification:'Poppins Bold';text-align:center;text-anchor:middle;fill:#fd3259"
           id="path5993" /><path
           d="m 151.97438,-29.488211 q 0.73334,-1.143998 2.024,-1.847998 1.29067,-0.703999 3.02133,-0.703999 2.024,0 3.66666,1.026666 1.64267,1.026665 2.58133,2.93333 0.968,1.906664 0.968,4.429328 0,2.522664 -0.968,4.458661 -0.93866,1.906665 -2.58133,2.962664 -1.64266,1.026665 -3.66666,1.026665 -1.70133,0 -3.02133,-0.703999 -1.29066,-0.703999 -2.024,-1.818665 v 10.0906555 h -5.01599 V -31.805541 h 5.01599 z m 7.15733,5.837327 q 0,-1.877331 -1.056,-2.93333 -1.02667,-1.085332 -2.552,-1.085332 -1.496,0 -2.55199,1.085332 -1.02667,1.085332 -1.02667,2.962663 0,1.877331 1.02667,2.962663 1.05599,1.085333 2.55199,1.085333 1.496,0 2.552,-1.085333 1.056,-1.114665 1.056,-2.991996 z"
           style="font-weight:bold;font-family:Poppins;-inkscape-font-specification:'Poppins Bold';text-align:center;text-anchor:middle;fill:#fd3259"
           id="path5995" /><path
           d="m 171.89172,-29.077545 q 0.88,-1.349331 2.2,-2.111997 1.32,-0.791999 2.93333,-0.791999 v 5.309327 h -1.37867 q -1.87733,0 -2.816,0.821332 -0.93866,0.792 -0.93866,2.815997 v 7.597325 h -5.01599 v -16.367981 h 5.01599 z"
           style="font-weight:bold;font-family:Poppins;-inkscape-font-specification:'Poppins Bold';text-align:center;text-anchor:middle;fill:#fd3259"
           id="path5997" /><path
           d="m 186.88102,-15.202894 q -2.40533,0 -4.34132,-1.026665 -1.90667,-1.026666 -3.02133,-2.93333 -1.08534,-1.906665 -1.08534,-4.458662 0,-2.522664 1.11467,-4.429328 1.11467,-1.935998 3.05066,-2.962663 1.936,-1.026666 4.34133,-1.026666 2.40533,0 4.34133,1.026666 1.936,1.026665 3.05066,2.962663 1.11467,1.906664 1.11467,4.429328 0,2.522664 -1.144,4.458662 -1.11467,1.906664 -3.08,2.93333 -1.93599,1.026665 -4.34133,1.026665 z m 0,-4.341328 q 1.43734,0 2.43467,-1.055999 1.02666,-1.055999 1.02666,-3.02133 0,-1.965331 -0.99733,-3.02133 -0.968,-1.055998 -2.40533,-1.055998 -1.46666,0 -2.43466,1.055998 -0.968,1.026666 -0.968,3.02133 0,1.965331 0.93866,3.02133 0.968,1.055999 2.40533,1.055999 z"
           style="font-weight:bold;font-family:Poppins;-inkscape-font-specification:'Poppins Bold';text-align:center;text-anchor:middle;fill:#fd3259"
           id="path5999" /><path
           d="m 206.32897,-27.640213 h -2.69866 v 12.202653 h -5.016 v -12.202653 h -1.81866 v -4.165328 h 1.81866 v -0.469333 q 0,-3.02133 1.73067,-4.575995 1.73066,-1.583998 5.07466,-1.583998 0.55733,0 0.82133,0.02933 v 4.253329 q -1.43733,-0.088 -2.024,0.410666 -0.58666,0.498666 -0.58666,1.789331 v 0.146667 h 2.69866 z"
           style="font-weight:bold;font-family:Poppins;-inkscape-font-specification:'Poppins Bold';text-align:center;text-anchor:middle;fill:#fd3259"
           id="path6001" /><path
           d="m 211.19832,-33.506873 q -1.32,0 -2.17067,-0.762666 -0.82133,-0.791999 -0.82133,-1.935997 0,-1.173332 0.82133,-1.935998 0.85067,-0.791999 2.17067,-0.791999 1.29066,0 2.11199,0.791999 0.85067,0.762666 0.85067,1.935998 0,1.143998 -0.85067,1.935997 -0.82133,0.762666 -2.11199,0.762666 z m 2.49333,1.701332 v 16.367981 h -5.016 v -16.367981 z"
           style="font-weight:bold;font-family:Poppins;-inkscape-font-specification:'Poppins Bold';text-align:center;text-anchor:middle;fill:#fd3259"
           id="path6003" /><path
           d="m 226.45164,-19.690889 v 4.253329 h -2.55199 q -2.728,0 -4.25333,-1.319999 -1.52533,-1.349331 -1.52533,-4.370661 v -6.511993 h -1.99467 v -4.165328 h 1.99467 v -3.989329 h 5.01599 v 3.989329 h 3.28533 v 4.165328 h -3.28533 v 6.570659 q 0,0.733333 0.352,1.055999 0.352,0.322666 1.17333,0.322666 z"
           style="font-weight:bold;font-family:Poppins;-inkscape-font-specification:'Poppins Bold';text-align:center;text-anchor:middle;fill:#fd3259"
           id="path6005" /></g></g></g></svg>
